<svg width="14" height="14" viewBox="0 0 14 14" fill="none" xmlns="http://www.w3.org/2000/svg">
<path d="M12.9277 1.07428C12.7328 0.878604 12.4163 0.877928 12.2206 1.07277C12.0249 1.26762 12.0242 1.5842 12.2191 1.77988L12.9277 1.07428ZM12.6622 3.49608L13.0166 3.84888L13.0328 3.83252L13.0476 3.81473L12.6622 3.49608ZM12.2204 1.78125C12.4153 1.97693 12.7319 1.97761 12.9275 1.78277C13.1232 1.58792 13.1239 1.27134 12.929 1.07566L12.2204 1.78125ZM10.5146 1.3392L10.1943 0.955229L10.1766 0.97003L10.1603 0.986404L10.5146 1.3392ZM9.35617 1.79393C9.16133 1.98961 9.162 2.30619 9.35768 2.50104C9.55336 2.69588 9.86994 2.69521 10.0648 2.49953L9.35617 1.79393ZM11.5039 3.95081C11.309 4.14649 11.3097 4.46308 11.5054 4.65792C11.701 4.85276 12.0176 4.85209 12.2125 4.65641L11.5039 3.95081ZM1.78094 1.77988C1.97578 1.5842 1.97511 1.26762 1.77943 1.07277C1.58375 0.877928 1.26717 0.878604 1.07232 1.07428L1.78094 1.77988ZM1.33775 3.49608L0.95244 3.81473L0.967155 3.83252L0.983446 3.84888L1.33775 3.49608ZM1.07095 1.07566C0.876106 1.27134 0.876783 1.58792 1.07246 1.78277C1.26814 1.97761 1.58472 1.97693 1.77957 1.78125L1.07095 1.07566ZM3.48544 1.3392L3.83975 0.986404L3.82344 0.97003L3.8057 0.955229L3.48544 1.3392ZM3.93521 2.49953C4.13006 2.69521 4.44664 2.69588 4.64232 2.50104C4.838 2.30619 4.83867 1.98961 4.64383 1.79393L3.93521 2.49953ZM1.78753 4.65641C1.98238 4.85209 2.29896 4.85276 2.49464 4.65792C2.69031 4.46307 2.69099 4.14649 2.49615 3.95081L1.78753 4.65641ZM10.4983 13.2492C10.6359 13.4886 10.9416 13.5711 11.181 13.4335C11.4204 13.2958 11.5029 12.9902 11.3652 12.7508L10.4983 13.2492ZM2.72614 12.7508C2.58851 12.9902 2.67101 13.2958 2.91042 13.4335C3.14982 13.5711 3.45546 13.4886 3.59309 13.2492L2.72614 12.7508ZM7.09013 6.92825H6.59013V7.42825H7.09013V6.92825ZM7.59013 3.5448C7.59013 3.26866 7.36627 3.0448 7.09013 3.0448C6.81399 3.0448 6.59013 3.26866 6.59013 3.5448H7.59013ZM8.96181 7.42825C9.23795 7.42825 9.46181 7.20439 9.46181 6.92825C9.46181 6.65211 9.23795 6.42825 8.96181 6.42825V7.42825ZM12.2191 1.77988C12.2193 1.78013 12.2194 1.78024 12.2195 1.78032L12.9286 1.07522C12.9282 1.07484 12.9279 1.07449 12.9277 1.07428L12.2191 1.77988ZM12.2195 1.78032C12.5909 2.15385 12.5764 2.81526 12.2769 3.17744L13.0476 3.81473C13.6421 3.09582 13.6983 1.84929 12.9286 1.07522L12.2195 1.78032ZM12.929 1.07566C12.9289 1.07553 12.9285 1.07512 12.9281 1.07473L12.22 1.78081C12.2201 1.78088 12.2201 1.78093 12.2204 1.78125L12.929 1.07566ZM12.9281 1.07473C12.1562 0.300574 10.9115 0.357004 10.1943 0.955229L10.8348 1.72317C11.1941 1.42354 11.8492 1.40895 12.22 1.78081L12.9281 1.07473ZM10.1603 0.986404L9.35617 1.79393L10.0648 2.49953L10.8689 1.692L10.1603 0.986404ZM12.3079 3.14329L11.5039 3.95081L12.2125 4.65641L13.0166 3.84888L12.3079 3.14329ZM1.07232 1.07428C1.072 1.0746 1.07169 1.07491 1.07139 1.07522L1.7805 1.78032C1.78065 1.78016 1.7808 1.78002 1.78094 1.77988L1.07232 1.07428ZM1.07139 1.07522C0.301689 1.84928 0.357924 3.09582 0.95244 3.81473L1.72307 3.17744C1.42355 2.81526 1.40908 2.15385 1.7805 1.78032L1.07139 1.07522ZM1.77957 1.78125C1.77971 1.78112 1.77985 1.78097 1.78001 1.78081L1.07188 1.07473C1.07158 1.07503 1.07127 1.07534 1.07095 1.07566L1.77957 1.78125ZM1.78001 1.78081C2.15079 1.40895 2.80593 1.42354 3.16518 1.72317L3.8057 0.955229C3.08846 0.357004 1.8438 0.300574 1.07188 1.07473L1.78001 1.78081ZM3.13113 1.692L3.93521 2.49953L4.64383 1.79393L3.83975 0.986404L3.13113 1.692ZM0.983446 3.84888L1.78753 4.65641L2.49615 3.95081L1.69206 3.14329L0.983446 3.84888ZM9.277 11.1248L10.4983 13.2492L11.3652 12.7508L10.144 10.6264L9.277 11.1248ZM3.94744 10.6264L2.72614 12.7508L3.59309 13.2492L4.81438 11.1248L3.94744 10.6264ZM7.59013 6.92825V3.5448H6.59013V6.92825H7.59013ZM7.09013 7.42825H8.96181V6.42825H7.09013V7.42825ZM11.8308 6.64629C11.8308 9.22701 9.74823 11.3154 7.18372 11.3154V12.3154C10.3045 12.3154 12.8308 9.77526 12.8308 6.64629H11.8308ZM7.18372 11.3154C4.6192 11.3154 2.53661 9.22701 2.53661 6.64629H1.53661C1.53661 9.77526 4.06289 12.3154 7.18372 12.3154V11.3154ZM2.53661 6.64629C2.53661 4.06558 4.6192 1.97714 7.18372 1.97714V0.977142C4.06289 0.977142 1.53661 3.51732 1.53661 6.64629H2.53661ZM7.18372 1.97714C9.74823 1.97714 11.8308 4.06558 11.8308 6.64629H12.8308C12.8308 3.51732 10.3045 0.977142 7.18372 0.977142V1.97714Z" fill="url(#paint0_linear_2112_1524)"/>
<defs>
<linearGradient id="paint0_linear_2112_1524" x1="7" y1="1" x2="7" y2="13" gradientUnits="userSpaceOnUse">
<stop stop-color="#33E4DB"/>
<stop offset="1" stop-color="#00BBD3"/>
</linearGradient>
</defs>
</svg>
