<svg width="43" height="43" viewBox="0 0 43 43" fill="none" xmlns="http://www.w3.org/2000/svg">
<path d="M15.437 20.4897C15.3799 20.3456 15.3622 20.1889 15.3856 20.0357C15.409 19.8825 15.4727 19.7383 15.5702 19.618L16.1783 18.8538C16.2759 18.7336 16.339 18.589 16.3607 18.4354L16.5084 17.4708C16.5324 17.3179 16.5958 17.1739 16.6923 17.0531C16.7888 16.9323 16.9151 16.8389 17.0586 16.7821L17.965 16.4277C18.1094 16.372 18.2363 16.2787 18.3328 16.1574L18.9409 15.3962C19.0362 15.2745 19.1621 15.1805 19.3056 15.1238C19.4491 15.0672 19.6051 15.0498 19.7575 15.0736L20.7218 15.2218C20.8741 15.2449 21.0298 15.2279 21.1735 15.1724L22.0799 14.818C22.2235 14.7607 22.3797 14.7429 22.5324 14.7664C22.6851 14.7899 22.8288 14.8538 22.9487 14.9516M22.9487 14.9516L23.7103 15.5618M22.9487 14.9516L23.8493 15.7652M25.0887 15.8959C25.2398 15.9195 25.382 15.9827 25.501 16.0791C25.62 16.1756 25.7115 16.3018 25.7663 16.4451L26.1225 17.3574C26.1775 17.5009 26.2694 17.6272 26.3889 17.7236L27.1505 18.3366C27.2712 18.4326 27.3643 18.5591 27.4203 18.7031C27.4763 18.847 27.4931 19.0034 27.469 19.156L27.3271 20.1236C27.3037 20.2757 27.3218 20.4313 27.3792 20.5739M27.3792 20.5739L27.7325 21.4863C27.7896 21.6304 27.8073 21.7871 27.7839 21.9403C27.7605 22.0935 27.6968 22.2377 27.5993 22.358L26.9912 23.1222C26.8944 23.2429 26.8314 23.3873 26.8088 23.5406L26.6611 24.5052C26.6388 24.6587 26.576 24.8035 26.4793 24.9246C26.3825 25.0456 26.2554 25.1386 26.1109 25.1938L25.2045 25.5483C25.0607 25.605 24.934 25.6981 24.8367 25.8185L24.2286 26.5827C24.133 26.7038 24.0069 26.7973 23.8634 26.8534C23.7199 26.9096 23.5641 26.9265 23.412 26.9023L22.4477 26.7541C22.297 26.7331 22.1435 26.7511 22.0017 26.8064L21.0954 27.1609C20.952 27.2186 20.796 27.2368 20.6433 27.2139C20.4906 27.1909 20.3468 27.1275 20.2266 27.0302L19.4679 26.4171C19.3468 26.3213 19.2032 26.2582 19.0509 26.234L18.0866 26.0859C17.9344 26.0632 17.791 26.0005 17.6709 25.904C17.5508 25.8075 17.4585 25.6808 17.4032 25.5367L17.047 24.6243C16.9919 24.4809 16.9 24.3546 16.7806 24.2582L16.019 23.6481C15.8992 23.5507 15.8068 23.4236 15.7509 23.2794C15.6951 23.1351 15.6777 22.9788 15.7005 22.8258L15.8482 21.8611M27.3792 20.5739L30.3793 20.2456M24.6506 18.3944C24.7955 18.4573 24.9266 18.5483 25.0365 18.6621C25.1464 18.7758 25.2329 18.9103 25.291 19.0576C25.3491 19.2049 25.3776 19.3623 25.3751 19.5207C25.3725 19.6792 25.3389 19.8355 25.276 19.9809M19.2855 26.3038L17.8897 29.5319M25.0192 25.6442L25.8879 27.036M23.8493 15.7565L25.0365 13.0107M17.965 16.4306L16.1204 14.0334M15.8424 21.8524L12.5469 22.2941M30.7673 24.0193C30.4628 23.7454 30.0778 23.5783 29.6704 23.5432C29.263 23.5081 28.8552 23.6069 28.5086 23.8246M28.4507 25.6904C28.6868 25.5076 28.9674 25.3917 29.2634 25.3549C29.5594 25.3181 29.8597 25.3617 30.1332 25.4812C30.4527 25.6687 30.7451 25.8994 31.0019 26.167C31.2691 26.4201 31.6186 26.5678 31.9858 26.5827C32.353 26.5977 32.7132 26.4789 33 26.2483M12.2645 15.5521C11.9486 15.2919 11.557 15.1416 11.1487 15.1238C10.7403 15.106 10.3373 15.2216 10 15.4533M10.0029 17.3187C10.2296 17.124 10.5045 16.9942 10.7985 16.9431C11.0926 16.892 11.395 16.9214 11.6738 17.0282C12.0065 17.2004 12.3135 17.4185 12.5859 17.6761C12.8633 17.9172 13.218 18.0499 13.585 18.0499C13.952 18.0499 14.3066 17.9172 14.584 17.6761M19.4215 19.7182C19.4215 20.2045 19.0287 20.5986 18.5441 20.5986C18.0595 20.5986 17.6666 20.2045 17.6666 19.7182C17.6666 19.232 18.0595 18.8378 18.5441 18.8378C19.0287 18.8378 19.4215 19.232 19.4215 19.7182ZM26.4902 12.0344C26.4902 12.6057 26.0287 13.0688 25.4593 13.0688C24.89 13.0688 24.4284 12.6057 24.4284 12.0344C24.4284 11.4631 24.89 11 25.4593 11C26.0287 11 26.4902 11.4631 26.4902 12.0344ZM18.5094 30.4791C18.5094 31.0504 18.0478 31.5135 17.4785 31.5135C16.9091 31.5135 16.4476 31.0504 16.4476 30.4791C16.4476 29.9078 16.9091 29.4447 17.4785 29.4447C18.0478 29.4447 18.5094 29.9078 18.5094 30.4791ZM27.5472 27.8554C27.5472 28.4266 27.0856 28.8898 26.5163 28.8898C25.9469 28.8898 25.4854 28.4266 25.4854 27.8554C25.4854 27.2841 25.9469 26.821 26.5163 26.821C27.0856 26.821 27.5472 27.2841 27.5472 27.8554ZM12.434 22.387C12.434 22.8203 12.084 23.1715 11.6521 23.1715C11.2203 23.1715 10.8703 22.8203 10.8703 22.387C10.8703 21.9538 11.2203 21.6025 11.6521 21.6025C12.084 21.6025 12.434 21.9538 12.434 22.387ZM16.3491 13.3419C16.3491 13.7752 15.9991 14.1264 15.5673 14.1264C15.1355 14.1264 14.7854 13.7752 14.7854 13.3419C14.7854 12.9086 15.1355 12.5574 15.5673 12.5574C15.9991 12.5574 16.3491 12.9086 16.3491 13.3419ZM32.0444 20.1788C32.0444 20.6121 31.6943 20.9633 31.2625 20.9633C30.8307 20.9633 30.4806 20.6121 30.4806 20.1788C30.4806 19.7455 30.8307 19.3943 31.2625 19.3943C31.6943 19.3943 32.0444 19.7455 32.0444 20.1788ZM23.4467 24.1246C23.4467 24.6782 22.9994 25.127 22.4477 25.127C21.8959 25.127 21.4486 24.6782 21.4486 24.1246C21.4486 23.571 21.8959 23.1222 22.4477 23.1222C22.9994 23.1222 23.4467 23.571 23.4467 24.1246Z" stroke="white" stroke-linecap="round" stroke-linejoin="round"/>
</svg>
