<svg width="70" height="70" viewBox="0 0 70 70" fill="none" xmlns="http://www.w3.org/2000/svg">
<g clip-path="url(#clip0_2372_1453)">
<path d="M15.9627 32.6068C15.7847 32.1574 15.7294 31.6684 15.8025 31.1904C15.8755 30.7124 16.0743 30.2625 16.3783 29.8873L18.2756 27.5031C18.5802 27.1281 18.7771 26.6768 18.8448 26.1977L19.3055 23.1881C19.3805 22.711 19.5783 22.2619 19.8794 21.8851C20.1804 21.5083 20.5743 21.2168 21.0221 21.0397L23.8499 19.9337C24.3004 19.7602 24.6965 19.4691 24.9973 19.0906L26.8946 16.7156C27.192 16.336 27.5848 16.0428 28.0325 15.8659C28.4803 15.6891 28.9669 15.635 29.4423 15.7093L32.4509 16.1717C32.926 16.2437 33.4117 16.1906 33.8603 16.0176L36.6881 14.9116C37.136 14.733 37.6233 14.6775 38.0997 14.7508C38.5761 14.8241 39.0244 15.0236 39.3985 15.3286M39.3985 15.3286L41.7746 17.2323M39.3985 15.3286L42.2082 17.8669M46.075 18.2748C46.5465 18.3484 46.9903 18.5455 47.3615 18.8464C47.7328 19.1472 48.0182 19.5411 48.1891 19.9881L49.3004 22.8346C49.4722 23.2822 49.759 23.6762 50.1316 23.9768L52.5077 25.8895C52.8843 26.189 53.1748 26.5835 53.3494 27.0327C53.5241 27.4819 53.5766 27.9696 53.5015 28.4459L53.0588 31.4646C52.9859 31.9391 53.042 32.4246 53.2214 32.8697M53.2214 32.8697L54.3236 35.7162C54.5016 36.1656 54.5569 36.6545 54.4839 37.1325C54.4108 37.6106 54.212 38.0604 53.908 38.4357L52.0108 40.8198C51.7088 41.1965 51.5123 41.6471 51.4416 42.1252L50.9808 45.1348C50.9111 45.6138 50.7153 46.0655 50.4136 46.4432C50.1118 46.8209 49.715 47.1109 49.2642 47.2833L46.4364 48.3892C45.9878 48.5662 45.5925 48.8566 45.289 49.2323L43.3918 51.6164C43.0933 51.9943 42.7001 52.2858 42.2524 52.4611C41.8047 52.6363 41.3186 52.6889 40.844 52.6136L37.8355 52.1513C37.3654 52.0857 36.8865 52.1419 36.4442 52.3145L33.6163 53.4204C33.1692 53.6002 32.6823 53.6572 32.206 53.5855C31.7296 53.5138 31.2808 53.316 30.9059 53.0125L28.5389 51.0997C28.1611 50.8007 27.7131 50.6041 27.2379 50.5286L24.2294 50.0663C23.7546 49.9957 23.3071 49.7999 22.9325 49.4989C22.5578 49.1978 22.2696 48.8024 22.0972 48.353L20.986 45.5065C20.8141 45.0589 20.5274 44.6648 20.1548 44.3643L17.7787 42.4606C17.4049 42.1567 17.1166 41.7602 16.9423 41.3103C16.768 40.8604 16.7137 40.3726 16.7849 39.8952L17.2456 36.8856M53.2214 32.8697L62.5812 31.8453M44.7082 26.0698C45.1604 26.2661 45.5696 26.5498 45.9124 26.9048C46.2552 27.2598 46.525 27.6792 46.7062 28.1388C46.8875 28.5985 46.9766 29.0895 46.9686 29.5838C46.9606 30.078 46.8557 30.5659 46.6597 31.0194M27.9697 50.7462L23.615 60.8176M45.8582 48.6884L48.5686 53.0306M42.2082 17.8397L45.9124 9.27309M23.8499 19.9428L18.0949 12.464M17.2276 36.8584L6.94619 38.2363M63.7919 43.6188C62.8419 42.7643 61.6407 42.243 60.3696 42.1335C59.0984 42.0239 57.8263 42.3321 56.7449 43.0114M56.5642 48.8326C57.3007 48.2621 58.1764 47.9006 59.0998 47.7858C60.0232 47.671 60.9603 47.8071 61.8133 48.1799C62.8104 48.7648 63.7224 49.4847 64.5237 50.3193C65.3574 51.1091 66.4477 51.5698 67.5933 51.6164C68.739 51.6631 69.8628 51.2925 70.7576 50.5731M6.06505 17.2022C5.07935 16.3904 3.85774 15.9215 2.58374 15.8659C1.30975 15.8104 0.0521941 16.1711 -1 16.894M-0.990996 22.7138C-0.283638 22.1063 0.573925 21.7014 1.49135 21.5419C2.40878 21.3823 3.35212 21.474 4.22197 21.8073C5.26004 22.3444 6.21798 23.0249 7.06786 23.8288C7.93333 24.5809 9.03989 24.9948 10.1848 24.9948C11.3297 24.9948 12.4363 24.5809 13.3017 23.8288M28.3941 30.2C28.3941 31.717 27.1684 32.9467 25.6566 32.9467C24.1447 32.9467 22.9191 31.717 22.9191 30.2C22.9191 28.683 24.1447 27.4533 25.6566 27.4533C27.1684 27.4533 28.3941 28.683 28.3941 30.2ZM50.4478 6.2272C50.4478 8.00953 49.0078 9.45439 47.2314 9.45439C45.4551 9.45439 44.0151 8.00953 44.0151 6.2272C44.0151 4.44486 45.4551 3 47.2314 3C49.0078 3 50.4478 4.44486 50.4478 6.2272ZM25.5484 63.7728C25.5484 65.5551 24.1084 67 22.3321 67C20.5558 67 19.1158 65.5551 19.1158 63.7728C19.1158 61.9905 20.5558 60.5456 22.3321 60.5456C24.1084 60.5456 25.5484 61.9905 25.5484 63.7728ZM53.7454 55.587C53.7454 57.3693 52.3054 58.8142 50.5291 58.8142C48.7528 58.8142 47.3128 57.3693 47.3128 55.587C47.3128 53.8046 48.7528 52.3598 50.5291 52.3598C52.3054 52.3598 53.7454 53.8046 53.7454 55.587ZM6.59384 38.5263C6.59384 39.8781 5.50171 40.9739 4.1545 40.9739C2.80729 40.9739 1.71516 39.8781 1.71516 38.5263C1.71516 37.1746 2.80729 36.0788 4.1545 36.0788C5.50171 36.0788 6.59384 37.1746 6.59384 38.5263ZM18.8086 10.3065C18.8086 11.6583 17.7165 12.7541 16.3693 12.7541C15.0221 12.7541 13.9299 11.6583 13.9299 10.3065C13.9299 8.95475 15.0221 7.85892 16.3693 7.85892C17.7165 7.85892 18.8086 8.95475 18.8086 10.3065ZM67.7761 31.6368C67.7761 32.9886 66.684 34.0844 65.3368 34.0844C63.9896 34.0844 62.8974 32.9886 62.8974 31.6368C62.8974 30.2851 63.9896 29.1892 65.3368 29.1892C66.684 29.1892 67.7761 30.2851 67.7761 31.6368ZM40.9524 43.9473C40.9524 45.6746 39.5569 47.0748 37.8355 47.0748C36.114 47.0748 34.7185 45.6746 34.7185 43.9473C34.7185 42.2201 36.114 40.8198 37.8355 40.8198C39.5569 40.8198 40.9524 42.2201 40.9524 43.9473Z" stroke="white" stroke-linecap="round" stroke-linejoin="round"/>
</g>
<defs>
<clipPath id="clip0_2372_1453">
<rect width="70" height="70" fill="white"/>
</clipPath>
</defs>
</svg>
