<svg width="70" height="70" viewBox="0 0 70 70" fill="none" xmlns="http://www.w3.org/2000/svg">
<path d="M42.8187 27.9847V53.6187C42.8187 56.6962 41.6008 59.6476 39.433 61.8236C37.2653 63.9997 34.3251 65.2222 31.2594 65.2222C28.2448 65.2232 25.349 64.0419 23.1896 61.9303C21.0302 59.8186 19.778 56.9437 19.7002 53.9185V13.7221M42.8187 23.1886C42.8187 23.1886 42.8187 13.9252 42.8187 13.7028H19.7579M42.8187 40.3714C41.3951 38.7248 39.3801 37.711 37.214 37.5515C35.0479 37.3921 32.907 38.1 31.2594 39.5205C30.4601 40.2141 29.5324 40.7427 28.5294 41.0763C27.5265 41.4099 26.4679 41.5418 25.4141 41.4646C24.3603 41.3874 23.3321 41.1025 22.388 40.6262C21.444 40.15 20.6026 39.4917 19.9121 38.6889M48.0589 50.186L54.8211 65.2125M56.3334 37.3159C56.3334 45.1128 50.0368 51.4334 42.2696 51.4334C34.5024 51.4334 28.2058 45.1128 28.2058 37.3159C28.2058 29.5189 34.5024 23.1983 42.2696 23.1983C50.0368 23.1983 56.3334 29.5189 56.3334 37.3159ZM17.0993 4.77777H45.4484C46.0641 4.77777 46.6546 5.02329 47.09 5.46032C47.5253 5.89735 47.7699 6.49008 47.7699 7.10814V13.7124H14.7778V7.10814C14.7778 6.49008 15.0224 5.89735 15.4578 5.46032C15.8931 5.02329 16.4836 4.77777 17.0993 4.77777Z" stroke="white" stroke-linecap="round" stroke-linejoin="round"/>
</svg>
