<svg width="43" height="43" viewBox="0 0 43 43" fill="none" xmlns="http://www.w3.org/2000/svg">
<path d="M24.7161 18.9789V28.1911C24.7161 29.2971 24.2784 30.3577 23.4994 31.1397C22.7203 31.9218 21.6637 32.3611 20.562 32.3611C19.4786 32.3615 18.4379 31.9369 17.6619 31.1781C16.8859 30.4192 16.4359 29.386 16.4079 28.2988V13.8533M24.7161 17.2553C24.7161 17.2553 24.7161 13.9262 24.7161 13.8463H16.4286M24.7161 23.4304C24.2045 22.8386 23.4803 22.4743 22.7019 22.417C21.9235 22.3597 21.1541 22.6141 20.562 23.1246C20.2747 23.3738 19.9413 23.5638 19.5809 23.6837C19.2205 23.8035 18.84 23.851 18.4613 23.8232C18.0826 23.7955 17.7131 23.6931 17.3738 23.5219C17.0346 23.3508 16.7322 23.1142 16.484 22.8257M26.5993 26.9575L29.0294 32.3576M29.5729 22.3323C29.5729 25.1343 27.3101 27.4058 24.5188 27.4058C21.7274 27.4058 19.4646 25.1343 19.4646 22.3323C19.4646 19.5302 21.7274 17.2588 24.5188 17.2588C27.3101 17.2588 29.5729 19.5302 29.5729 22.3323ZM15.4732 10.6389H25.6612C25.8824 10.6389 26.0946 10.7271 26.2511 10.8842C26.4075 11.0412 26.4954 11.2542 26.4954 11.4764V13.8498H14.6389V11.4764C14.6389 11.2542 14.7268 11.0412 14.8833 10.8842C15.0397 10.7271 15.2519 10.6389 15.4732 10.6389Z" stroke="white" stroke-linecap="round" stroke-linejoin="round"/>
</svg>
