<svg width="19" height="23" viewBox="0 0 19 23" fill="none" xmlns="http://www.w3.org/2000/svg">
<path d="M2.94002 17.9729H0.649981C0.596847 17.9733 0.544999 17.9893 0.500934 18.019C0.456868 18.0487 0.422586 18.0907 0.402301 18.1398C0.382016 18.1889 0.376652 18.2429 0.38692 18.2951C0.397188 18.3472 0.422586 18.3951 0.459979 18.4329L3.75002 21.7229L3.94002 21.8029C3.97631 21.8042 4.01248 21.7982 4.0464 21.7853C4.08033 21.7723 4.11127 21.7527 4.13741 21.7274C4.16355 21.7022 4.18438 21.672 4.19857 21.6386C4.21276 21.6052 4.22001 21.5692 4.21999 21.5329V19.2529C4.21999 18.9134 4.08516 18.5879 3.84511 18.3478C3.60506 18.1078 3.2795 17.9729 2.94002 17.9729Z" fill="url(#paint0_linear_2104_692)"/>
<path d="M16.57 3.19291H13.39V1.10291C13.39 0.970305 13.3373 0.843105 13.2435 0.749337C13.1498 0.655568 13.0226 0.602913 12.89 0.602913C12.7814 0.602286 12.6757 0.638517 12.5903 0.705727C12.505 0.772937 12.4449 0.867144 12.42 0.972908V3.19291H13.42V5.2729C13.42 5.4055 13.3673 5.53267 13.2736 5.62644C13.1798 5.72021 13.0526 5.7729 12.92 5.7729C12.7874 5.7729 12.6602 5.72021 12.5664 5.62644C12.4726 5.53267 12.42 5.4055 12.42 5.2729V3.19291H6.10999V1.10291C6.10743 0.971107 6.05391 0.845394 5.96069 0.752175C5.86747 0.658956 5.74179 0.605473 5.60999 0.602913C5.5005 0.603528 5.39427 0.640046 5.30756 0.706887C5.22084 0.773727 5.15847 0.86719 5.13 0.972908V3.19291H6.13V5.2729C6.13 5.4055 6.07729 5.53267 5.98352 5.62644C5.88975 5.72021 5.76261 5.7729 5.63 5.7729C5.4974 5.7729 5.3702 5.72021 5.27643 5.62644C5.18266 5.53267 5.13 5.4055 5.13 5.2729V3.19291H1.57001C1.36873 3.18625 1.16812 3.21965 0.979858 3.29118C0.791601 3.3627 0.619463 3.4709 0.473389 3.60954C0.327314 3.74817 0.210231 3.91444 0.128967 4.0987C0.0477034 4.28296 0.00386452 4.48155 0 4.6829V8.6829H18.1V4.6829C18.0895 4.28409 17.9237 3.90511 17.6379 3.62678C17.3521 3.34844 16.969 3.19277 16.57 3.19291Z" fill="url(#paint1_linear_2104_692)"/>
<path d="M0 17.1629C0.194166 17.039 0.419629 16.9731 0.649963 16.9729H2.94C3.54389 16.9755 4.12224 17.2166 4.54926 17.6436C4.97627 18.0706 5.21734 18.649 5.21997 19.2529V21.5329C5.213 21.7682 5.14029 21.9968 5.01001 22.1929H16.57C16.9723 22.1929 17.3585 22.0345 17.6448 21.7519C17.9312 21.4692 18.0947 21.0852 18.1 20.6829V9.68289H0V17.1629ZM12.56 12.7229H13.22C13.3526 12.7229 13.4798 12.7756 13.5735 12.8693C13.6673 12.9631 13.72 13.0903 13.72 13.2229C13.72 13.3555 13.6673 13.4827 13.5735 13.5764C13.4798 13.6702 13.3526 13.7229 13.22 13.7229H12.56C12.4274 13.7229 12.3002 13.6702 12.2064 13.5764C12.1127 13.4827 12.06 13.3555 12.06 13.2229C12.0545 13.154 12.0633 13.0846 12.0859 13.0193C12.1086 12.9539 12.1445 12.8939 12.1915 12.8432C12.2385 12.7924 12.2955 12.752 12.3589 12.7244C12.4224 12.6968 12.4908 12.6827 12.56 12.6829V12.7229ZM12.56 16.1129H13.22C13.3526 16.1129 13.4798 16.1656 13.5735 16.2593C13.6673 16.3531 13.72 16.4803 13.72 16.6129C13.72 16.7455 13.6673 16.8727 13.5735 16.9664C13.4798 17.0602 13.3526 17.1129 13.22 17.1129H12.56C12.4274 17.1129 12.3002 17.0602 12.2064 16.9664C12.1127 16.8727 12.06 16.7455 12.06 16.6129C12.06 16.4803 12.1127 16.3531 12.2064 16.2593C12.3002 16.1656 12.4274 16.1129 12.56 16.1129ZM8.89996 12.6829H9.56C9.69261 12.6829 9.81975 12.7356 9.91351 12.8293C10.0073 12.9231 10.06 13.0503 10.06 13.1829C10.06 13.3155 10.0073 13.4427 9.91351 13.5364C9.81975 13.6302 9.69261 13.6829 9.56 13.6829H8.89996C8.76735 13.6829 8.64022 13.6302 8.54645 13.5364C8.45268 13.4427 8.39996 13.3155 8.39996 13.1829C8.39996 13.0503 8.45268 12.9231 8.54645 12.8293C8.64022 12.7356 8.76735 12.6829 8.89996 12.6829ZM8.89996 16.0729H9.56C9.69261 16.0729 9.81975 16.1256 9.91351 16.2193C10.0073 16.3131 10.06 16.4403 10.06 16.5729C10.06 16.7055 10.0073 16.8327 9.91351 16.9265C9.81975 17.0202 9.69261 17.0729 9.56 17.0729H8.89996C8.76735 17.0729 8.64022 17.0202 8.54645 16.9265C8.45268 16.8327 8.39996 16.7055 8.39996 16.5729C8.41004 16.4473 8.46718 16.3302 8.55988 16.2449C8.65257 16.1597 8.774 16.1125 8.89996 16.1129V16.0729ZM5.22998 12.6829H5.89996C6.03257 12.6829 6.15977 12.7356 6.25354 12.8293C6.34731 12.9231 6.39996 13.0503 6.39996 13.1829C6.39996 13.3155 6.34731 13.4427 6.25354 13.5364C6.15977 13.6302 6.03257 13.6829 5.89996 13.6829H5.22998C5.09737 13.6829 4.97023 13.6302 4.87646 13.5364C4.7827 13.4427 4.72998 13.3155 4.72998 13.1829C4.73254 13.0511 4.78605 12.9254 4.87927 12.8322C4.97249 12.739 5.09817 12.6855 5.22998 12.6829ZM5.22998 16.0729H5.89996C6.03257 16.0729 6.15977 16.1256 6.25354 16.2193C6.34731 16.3131 6.39996 16.4403 6.39996 16.5729C6.39996 16.7055 6.34731 16.8327 6.25354 16.9265C6.15977 17.0202 6.03257 17.0729 5.89996 17.0729H5.22998C5.09737 17.0729 4.97023 17.0202 4.87646 16.9265C4.7827 16.8327 4.72998 16.7055 4.72998 16.5729C4.74225 16.4482 4.79999 16.3323 4.89221 16.2475C4.98443 16.1627 5.10468 16.1147 5.22998 16.1129V16.0729Z" fill="url(#paint2_linear_2104_692)"/>
<defs>
<linearGradient id="paint0_linear_2104_692" x1="9.04999" y1="0.602905" x2="9.04999" y2="22.1929" gradientUnits="userSpaceOnUse">
<stop stop-color="#33E4DB"/>
<stop offset="1" stop-color="#00BBD3"/>
</linearGradient>
<linearGradient id="paint1_linear_2104_692" x1="9.04999" y1="0.602905" x2="9.04999" y2="22.1929" gradientUnits="userSpaceOnUse">
<stop stop-color="#33E4DB"/>
<stop offset="1" stop-color="#00BBD3"/>
</linearGradient>
<linearGradient id="paint2_linear_2104_692" x1="9.04999" y1="0.602905" x2="9.04999" y2="22.1929" gradientUnits="userSpaceOnUse">
<stop stop-color="#33E4DB"/>
<stop offset="1" stop-color="#00BBD3"/>
</linearGradient>
</defs>
</svg>
