<svg width="21" height="22" viewBox="0 0 21 22" fill="none" xmlns="http://www.w3.org/2000/svg">
<path d="M17.9536 2.91176L17.9536 2.41176L17.9536 2.91176ZM19.1818 4.03028H18.6818V4.03028L19.1818 4.03028ZM1 4.03028H0.5H1ZM2.2282 2.91176L2.2282 3.41176L2.2282 2.91176ZM17.9536 20.98L17.9536 20.48H17.9536V20.98ZM19.1818 19.8615H19.6818H19.1818ZM5.25665 18.2208H5.75665H5.25665ZM4.02706 17.1023L4.02706 17.6023L4.02757 17.6023L4.02706 17.1023ZM1.47293 17.5379L1.13553 17.9069L1.47293 17.5379ZM6.79748 20.98V21.48V20.98ZM4.13781 19.9705L3.80123 20.3402L4.13781 19.9705ZM1.61633 8.14706C1.34019 8.14706 1.11633 8.37092 1.11633 8.64706C1.11633 8.9232 1.34019 9.14706 1.61633 9.14706V8.14706ZM19.0277 9.14706C19.3039 9.14706 19.5277 8.9232 19.5277 8.64706C19.5277 8.37092 19.3039 8.14706 19.0277 8.14706V9.14706ZM6.13382 5.22934C6.13382 5.50548 6.35767 5.72934 6.63382 5.72934C6.90996 5.72934 7.13382 5.50548 7.13382 5.22934H6.13382ZM7.13382 1C7.13382 0.723858 6.90996 0.5 6.63382 0.5C6.35767 0.5 6.13382 0.723858 6.13382 1H7.13382ZM13.5298 5.22934C13.5298 5.50548 13.7537 5.72934 14.0298 5.72934C14.306 5.72934 14.5298 5.50548 14.5298 5.22934H13.5298ZM14.5298 1C14.5298 0.723858 14.306 0.5 14.0298 0.5C13.7537 0.5 13.5298 0.723858 13.5298 1H14.5298ZM6.54699 11.9706C6.27085 11.9706 6.04699 12.1944 6.04699 12.4706C6.04699 12.7467 6.27085 12.9706 6.54699 12.9706V11.9706ZM6.70108 12.9706C6.97722 12.9706 7.20108 12.7467 7.20108 12.4706C7.20108 12.1944 6.97722 11.9706 6.70108 11.9706V12.9706ZM6.54699 15.2059C6.27085 15.2059 6.04699 15.4297 6.04699 15.7059C6.04699 15.982 6.27085 16.2059 6.54699 16.2059V15.2059ZM6.70108 16.2059C6.97722 16.2059 7.20108 15.982 7.20108 15.7059C7.20108 15.4297 6.97722 15.2059 6.70108 15.2059V16.2059ZM10.245 11.9706C9.96885 11.9706 9.74499 12.1944 9.74499 12.4706C9.74499 12.7467 9.96885 12.9706 10.245 12.9706V11.9706ZM10.3991 12.9706C10.6752 12.9706 10.8991 12.7467 10.8991 12.4706C10.8991 12.1944 10.6752 11.9706 10.3991 11.9706V12.9706ZM10.245 15.2059C9.96885 15.2059 9.74499 15.4297 9.74499 15.7059C9.74499 15.982 9.96885 16.2059 10.245 16.2059V15.2059ZM10.3991 16.2059C10.6752 16.2059 10.8991 15.982 10.8991 15.7059C10.8991 15.4297 10.6752 15.2059 10.3991 15.2059V16.2059ZM13.943 11.9706C13.6668 11.9706 13.443 12.1944 13.443 12.4706C13.443 12.7467 13.6668 12.9706 13.943 12.9706V11.9706ZM14.0971 12.9706C14.3732 12.9706 14.5971 12.7467 14.5971 12.4706C14.5971 12.1944 14.3732 11.9706 14.0971 11.9706V12.9706ZM13.943 15.2059C13.6668 15.2059 13.443 15.4297 13.443 15.7059C13.443 15.982 13.6668 16.2059 13.943 16.2059V15.2059ZM14.0971 16.2059C14.3732 16.2059 14.5971 15.982 14.5971 15.7059C14.5971 15.4297 14.3732 15.2059 14.0971 15.2059V16.2059ZM17.9536 20.48H6.79748V21.48H17.9536V20.48ZM1.5 16.478V4.03028H0.5L0.5 16.478L1.5 16.478ZM2.2282 3.41176L17.9536 3.41176L17.9536 2.41176L2.2282 2.41176L2.2282 3.41176ZM18.6818 4.03028L18.6818 19.8615H19.6818L19.6818 4.03028L18.6818 4.03028ZM17.9536 3.41176C18.4008 3.41176 18.6818 3.73167 18.6818 4.03028L19.6818 4.03028C19.6818 3.09341 18.863 2.41176 17.9536 2.41176L17.9536 3.41176ZM1.5 4.03028C1.5 3.73167 1.78098 3.41176 2.2282 3.41176L2.2282 2.41176C1.31879 2.41176 0.5 3.09341 0.5 4.03028H1.5ZM4.47439 19.6007C3.60741 18.8115 2.44919 17.7531 1.81032 17.1689L1.13553 17.9069C1.77442 18.4911 2.93336 19.5502 3.80123 20.3402L4.47439 19.6007ZM17.9536 21.48C18.863 21.48 19.6818 20.7983 19.6818 19.8615H18.6818C18.6818 20.1601 18.4008 20.48 17.9536 20.48L17.9536 21.48ZM4.75665 18.2208L4.75665 21H5.75665L5.75665 18.2208H4.75665ZM1 17.6023L4.02706 17.6023L4.02706 16.6023L1 16.6023L1 17.6023ZM5.75665 18.2208C5.75665 17.2832 4.93663 16.6014 4.02654 16.6023L4.02757 17.6023C4.4752 17.6018 4.75665 17.922 4.75665 18.2208H5.75665ZM0.5 16.478C0.5 17.0222 0.730969 17.537 1.13553 17.9069L1.81032 17.1689C1.6084 16.9843 1.5 16.7354 1.5 16.478L0.5 16.478ZM6.79748 20.48C6.44935 20.48 5.99977 20.3856 5.55647 20.2178C5.11229 20.0497 4.72133 19.8255 4.47439 19.6007L3.80123 20.3402C4.17009 20.676 4.68347 20.9566 5.20243 21.153C5.72227 21.3498 6.29463 21.48 6.79748 21.48V20.48ZM1.61633 9.14706H19.0277V8.14706H1.61633V9.14706ZM7.13382 5.22934V1H6.13382V5.22934H7.13382ZM14.5298 5.22934V1H13.5298V5.22934H14.5298ZM6.54699 12.9706H6.70108V11.9706H6.54699V12.9706ZM6.54699 16.2059H6.70108V15.2059H6.54699V16.2059ZM10.245 12.9706H10.3991V11.9706H10.245V12.9706ZM10.245 16.2059H10.3991V15.2059H10.245V16.2059ZM13.943 12.9706H14.0971V11.9706H13.943V12.9706ZM13.943 16.2059H14.0971V15.2059H13.943V16.2059Z" fill="url(#paint0_linear_2064_547)"/>
<defs>
<linearGradient id="paint0_linear_2064_547" x1="10.0909" y1="1" x2="10.0909" y2="21" gradientUnits="userSpaceOnUse">
<stop stop-color="#33E4DB"/>
<stop offset="1" stop-color="#00BBD3"/>
</linearGradient>
</defs>
</svg>
