<svg width="22" height="22" viewBox="0 0 22 22" fill="none" xmlns="http://www.w3.org/2000/svg">
<path d="M19.7795 9.42493C19.8694 9.93493 19.9155 10.4517 19.9173 10.9696C19.9158 11.5039 19.8654 12.0371 19.7667 12.5623C19.7522 12.6393 19.762 12.7188 19.7948 12.79C19.8275 12.8612 19.8815 12.9205 19.9494 12.9596L20.6608 13.3698C20.7476 13.4207 20.8108 13.5038 20.8366 13.601C20.8624 13.6983 20.8487 13.8017 20.7986 13.889L18.3567 18.1191C18.3064 18.2056 18.2239 18.2688 18.1272 18.2946C18.0305 18.3204 17.9275 18.3069 17.8407 18.2568L17.0909 17.8242C17.0236 17.7866 16.9464 17.7704 16.8696 17.7778C16.7929 17.7853 16.7202 17.816 16.6614 17.8659C15.8674 18.5196 14.9665 19.0313 13.9984 19.3785C13.924 19.4038 13.8593 19.4516 13.8134 19.5154C13.7675 19.5791 13.7425 19.6556 13.742 19.7342V20.6219C13.742 20.6715 13.7323 20.7207 13.7133 20.7666C13.6943 20.8125 13.6664 20.8541 13.6313 20.8893C13.5962 20.9244 13.5545 20.9522 13.5086 20.9712C13.4627 20.9902 13.4135 21 13.3639 21H8.47364C8.37335 21 8.27718 20.9602 8.20626 20.8893C8.13535 20.8183 8.09552 20.7221 8.09552 20.6219V19.6605C8.09509 19.5836 8.07122 19.5087 8.02714 19.4457C7.98305 19.3827 7.92084 19.3347 7.84875 19.308C6.91502 18.9534 6.04817 18.443 5.28506 17.7986C5.22564 17.7485 5.15221 17.7179 5.0748 17.7111C4.99739 17.7042 4.91973 17.7213 4.85241 17.7601L4.0128 18.244C3.92559 18.2942 3.82212 18.3079 3.72488 18.282C3.62765 18.2562 3.54451 18.193 3.49365 18.1062L3.08349 17.398L2.69571 16.7218L1.05174 13.8761C1.00158 13.7889 0.987943 13.6854 1.01375 13.5882C1.03956 13.491 1.10275 13.4079 1.18955 13.357L2.04837 12.8635C2.11538 12.8244 2.16863 12.7655 2.20078 12.6949C2.23292 12.6243 2.24238 12.5455 2.22785 12.4693C2.14274 11.9772 2.09985 11.4786 2.09965 10.9792C2.10052 10.4873 2.14233 9.99638 2.22464 9.51146C2.23724 9.43547 2.22654 9.35745 2.19393 9.28766C2.16132 9.21787 2.10836 9.15958 2.04199 9.12049L1.18955 8.62698C1.14636 8.60241 1.1085 8.5695 1.07814 8.53016C1.04778 8.49083 1.02552 8.44585 1.0127 8.39784C0.999876 8.34984 0.996724 8.29976 1.00343 8.25052C1.01013 8.20129 1.02655 8.15388 1.05174 8.11104L3.49365 3.88095C3.51853 3.83765 3.55175 3.79972 3.59137 3.76932C3.631 3.73893 3.67627 3.71667 3.72453 3.70386C3.7728 3.69104 3.82312 3.68792 3.8726 3.69466C3.92208 3.70141 3.96972 3.71789 4.0128 3.74315L4.8332 4.21743C4.90084 4.25582 4.97868 4.27241 5.0561 4.26496C5.13352 4.2575 5.20674 4.22636 5.26582 4.17577C6.03822 3.52367 6.916 3.00783 7.86155 2.65037C7.93389 2.62405 7.99641 2.5761 8.04055 2.51304C8.0847 2.44997 8.10834 2.37485 8.10831 2.29787V1.37814C8.10831 1.27785 8.14814 1.18166 8.21905 1.11075C8.28997 1.03983 8.38618 1 8.48647 1H13.3703C13.4706 1 13.5668 1.03983 13.6377 1.11075C13.7086 1.18166 13.7484 1.27785 13.7484 1.37814V2.22737C13.7484 2.30607 13.7732 2.38275 13.8192 2.4466C13.8652 2.51044 13.9302 2.55819 14.0048 2.58308C14.9809 2.93299 15.8885 3.45026 16.6871 4.11169C16.7454 4.16244 16.8181 4.19371 16.8951 4.20117C16.9721 4.20864 17.0495 4.19192 17.1165 4.15333L17.8471 3.73353C17.89 3.70834 17.9374 3.69192 17.9866 3.68522C18.0359 3.67851 18.086 3.68166 18.134 3.69449C18.182 3.70731 18.2269 3.72955 18.2663 3.75991C18.3056 3.79027 18.3385 3.82815 18.3631 3.87134L20.805 8.10142C20.8302 8.14425 20.8466 8.19166 20.8533 8.2409C20.86 8.29013 20.8569 8.34021 20.844 8.38822C20.8312 8.43623 20.809 8.48122 20.7786 8.52056C20.7483 8.5599 20.7104 8.59281 20.6672 8.61738L19.959 9.02756C19.8917 9.06717 19.8383 9.12664 19.8062 9.19778C19.7741 9.26893 19.7648 9.34827 19.7795 9.42493Z" stroke="url(#paint0_linear_6040_195)" stroke-linecap="round" stroke-linejoin="round"/>
<defs>
<linearGradient id="paint0_linear_6040_195" x1="10.9284" y1="1" x2="10.9284" y2="21" gradientUnits="userSpaceOnUse">
<stop stop-color="#33E4DB"/>
<stop offset="1" stop-color="#00BBD3"/>
</linearGradient>
</defs>
</svg>
