<svg width="19" height="23" viewBox="0 0 19 23" fill="none" xmlns="http://www.w3.org/2000/svg">
<path d="M11.8484 22.12C12.1245 22.12 12.3484 21.8961 12.3484 21.62C12.3484 21.3439 12.1245 21.12 11.8484 21.12V22.12ZM6.91557 17.1501H6.41557C6.41557 17.1656 6.4163 17.1812 6.41776 17.1967L6.91557 17.1501ZM11.8421 21.12C11.5659 21.12 11.3421 21.3439 11.3421 21.62C11.3421 21.8961 11.5659 22.12 11.8421 22.12V21.12ZM16.7749 17.1501H17.2749H16.7749ZM17.2749 13.3147C17.2749 13.0386 17.051 12.8147 16.7749 12.8147C16.4987 12.8147 16.2749 13.0386 16.2749 13.3147H17.2749ZM7.41557 14.1665C7.41557 13.8904 7.19172 13.6665 6.91557 13.6665C6.63943 13.6665 6.41557 13.8904 6.41557 14.1665H7.41557ZM12.5495 3.81906H13.0495C13.0495 3.80881 13.0491 3.79855 13.0485 3.78831L12.5495 3.81906ZM6.77473 14.1739V13.6739V14.1739ZM10.6933 1.64556C10.4171 1.64556 10.1933 1.86941 10.1933 2.14556C10.1933 2.4217 10.4171 2.64556 10.6933 2.64556V1.64556ZM1 3.81906L0.500947 3.78831C0.500316 3.79855 0.5 3.80881 0.5 3.81906H1ZM2.85616 2.64556C3.1323 2.64556 3.35616 2.4217 3.35616 2.14556C3.35616 1.86941 3.1323 1.64556 2.85616 1.64556V2.64556ZM11.8484 21.12H11.8452V22.12H11.8484V21.12ZM11.8456 21.12C9.50267 21.1184 7.60065 19.1013 7.41339 17.1034L6.41776 17.1967C6.64928 19.6669 8.94565 22.118 11.8449 22.12L11.8456 21.12ZM11.8421 22.12H11.8452V21.12H11.8421V22.12ZM11.8456 22.12C14.6897 22.1181 17.2749 19.9235 17.2749 17.1501H16.2749C16.2749 19.2712 14.2429 21.1184 11.8449 21.12L11.8456 22.12ZM17.2749 17.1501L17.2749 13.3147H16.2749L16.2749 17.1501H17.2749ZM7.41557 17.1501V14.1665H6.41557V17.1501H7.41557ZM12.0495 3.81906V8.31661H13.0495V3.81906H12.0495ZM12.0495 8.31661C12.0495 11.2821 9.68121 13.6739 6.77473 13.6739V14.6739C10.2468 14.6739 13.0495 11.8209 13.0495 8.31661H12.0495ZM13.0485 3.78831C13.0261 3.42429 12.8837 2.9006 12.5218 2.45705C12.1437 1.99351 11.5467 1.64556 10.6933 1.64556V2.64556C11.2424 2.64556 11.5563 2.85543 11.747 3.0892C11.954 3.34294 12.0385 3.656 12.0504 3.84981L13.0485 3.78831ZM0.5 3.81906V8.31661H1.5V3.81906H0.5ZM0.5 8.31661C0.5 11.8209 3.30262 14.6739 6.77473 14.6739V13.6739C3.86824 13.6739 1.5 11.2821 1.5 8.31661H0.5ZM1.49905 3.84981C1.511 3.65601 1.59547 3.34294 1.80248 3.0892C1.99319 2.85543 2.30709 2.64556 2.85616 2.64556V1.64556C2.0028 1.64556 1.4058 1.99351 1.02764 2.45705C0.665769 2.9006 0.523378 3.42428 0.500947 3.78831L1.49905 3.84981ZM4.44372 2.00236C4.44372 2.28763 4.2184 2.50472 3.95779 2.50472V3.50472C4.7862 3.50472 5.44372 2.82427 5.44372 2.00236H4.44372ZM3.95779 2.50472C3.69717 2.50472 3.47186 2.28763 3.47186 2.00236H2.47186C2.47186 2.82427 3.12937 3.50472 3.95779 3.50472V2.50472ZM3.47186 2.00236C3.47186 1.71709 3.69717 1.5 3.95779 1.5V0.5C3.12937 0.5 2.47186 1.18045 2.47186 2.00236H3.47186ZM3.95779 1.5C4.2184 1.5 4.44372 1.71709 4.44372 2.00236H5.44372C5.44372 1.18045 4.7862 0.5 3.95779 0.5V1.5ZM10.0776 2.00236C10.0776 2.28763 9.85228 2.50472 9.59167 2.50472V3.50472C10.4201 3.50472 11.0776 2.82427 11.0776 2.00236H10.0776ZM9.59167 2.50472C9.33105 2.50472 9.10574 2.28763 9.10574 2.00236H8.10574C8.10574 2.82427 8.76325 3.50472 9.59167 3.50472V2.50472ZM9.10574 2.00236C9.10574 1.71709 9.33105 1.5 9.59167 1.5V0.5C8.76325 0.5 8.10574 1.18045 8.10574 2.00236H9.10574ZM9.59167 1.5C9.85228 1.5 10.0776 1.71709 10.0776 2.00236H11.0776C11.0776 1.18045 10.4201 0.5 9.59167 0.5V1.5ZM17.6833 11.7396C17.6833 12.3412 17.2058 12.8147 16.634 12.8147V13.8147C17.7736 13.8147 18.6833 12.8778 18.6833 11.7396H17.6833ZM16.634 12.8147C16.0623 12.8147 15.5847 12.3412 15.5847 11.7396H14.5847C14.5847 12.8778 15.4944 13.8147 16.634 13.8147V12.8147ZM15.5847 11.7396C15.5847 11.138 16.0623 10.6644 16.634 10.6644V9.66444C15.4944 9.66444 14.5847 10.6013 14.5847 11.7396H15.5847ZM16.634 10.6644C17.2058 10.6644 17.6833 11.138 17.6833 11.7396H18.6833C18.6833 10.6013 17.7736 9.66444 16.634 9.66444V10.6644Z" fill="url(#paint0_linear_6011_921)"/>
<defs>
<linearGradient id="paint0_linear_6011_921" x1="9.59167" y1="1" x2="9.59167" y2="21.62" gradientUnits="userSpaceOnUse">
<stop stop-color="#39E8DB"/>
<stop offset="1" stop-color="#05BFD4"/>
</linearGradient>
</defs>
</svg>
