<svg width="15" height="22" viewBox="0 0 15 22" fill="none" xmlns="http://www.w3.org/2000/svg">
<path d="M3.16666 5.01609C3.4428 5.01609 3.66666 4.79223 3.66666 4.51609C3.66666 4.23994 3.4428 4.01609 3.16666 4.01609V5.01609ZM11.9863 5.38924V5.88924C12.2624 5.88924 12.4863 5.66538 12.4863 5.38924H11.9863ZM8.98763 3.05792L8.52701 2.86343C8.46182 3.01783 8.47832 3.19462 8.57095 3.33428C8.66359 3.47395 8.82004 3.55792 8.98763 3.55792V3.05792ZM9.10527 2.46994H8.60527L8.60528 2.4723L9.10527 2.46994ZM6.16539 2.46994L6.66539 2.47585V2.46994H6.16539ZM6.28296 3.05792V3.55792C6.45118 3.55792 6.60813 3.47332 6.70062 3.3328C6.7931 3.19228 6.80872 3.01467 6.74219 2.86016L6.28296 3.05792ZM3.19608 5.38924H2.69608C2.69608 5.66538 2.91994 5.88924 3.19608 5.88924V5.38924ZM8.06181 7.6794C8.06181 7.40326 7.83795 7.1794 7.56181 7.1794C7.28566 7.1794 7.06181 7.40326 7.06181 7.6794H8.06181ZM7.06181 11.0955C7.06181 11.3717 7.28566 11.5955 7.56181 11.5955C7.83795 11.5955 8.06181 11.3717 8.06181 11.0955H7.06181ZM9.26988 9.88747C9.54602 9.88747 9.76988 9.66361 9.76988 9.38747C9.76988 9.11133 9.54602 8.88747 9.26988 8.88747V9.88747ZM5.85373 8.88747C5.57759 8.88747 5.35373 9.11133 5.35373 9.38747C5.35373 9.66361 5.57759 9.88747 5.85373 9.88747V8.88747ZM3.3372 12.8563C3.06105 12.8563 2.8372 13.0802 2.8372 13.3563C2.8372 13.6325 3.06105 13.8563 3.3372 13.8563V12.8563ZM11.8364 13.8563C12.1125 13.8563 12.3364 13.6325 12.3364 13.3563C12.3364 13.0802 12.1125 12.8563 11.8364 12.8563V13.8563ZM3.3372 15.2641C3.06105 15.2641 2.8372 15.4879 2.8372 15.7641C2.8372 16.0402 3.06105 16.2641 3.3372 16.2641V15.2641ZM11.8364 16.2641C12.1125 16.2641 12.3364 16.0402 12.3364 15.7641C12.3364 15.4879 12.1125 15.2641 11.8364 15.2641V16.2641ZM3.3372 17.7012C3.06105 17.7012 2.8372 17.9251 2.8372 18.2012C2.8372 18.4774 3.06105 18.7012 3.3372 18.7012V17.7012ZM11.8364 18.7012C12.1125 18.7012 12.3364 18.4774 12.3364 18.2012C12.3364 17.9251 12.1125 17.7012 11.8364 17.7012V18.7012ZM11.9863 5.01609H12.5743V4.01609H11.9863V5.01609ZM12.5743 5.01609C13.1289 5.01609 13.656 5.52598 13.656 6.28001H14.656C14.656 5.08197 13.7836 4.01609 12.5743 4.01609V5.01609ZM13.656 6.28001V19.2361H14.656V6.28001H13.656ZM13.656 19.2361C13.656 19.9835 13.1208 20.5 12.5743 20.5V21.5C13.7741 21.5 14.656 20.429 14.656 19.2361H13.656ZM12.5743 20.5H2.57868V21.5H12.5743V20.5ZM2.57868 20.5C2.02572 20.5 1.5 19.989 1.5 19.2361H0.5C0.5 20.4293 1.36771 21.5 2.57868 21.5V20.5ZM1.5 19.2361V6.28001H0.5V19.2361H1.5ZM1.5 6.28001C1.5 5.52959 2.03521 5.01609 2.57868 5.01609V4.01609C1.38174 4.01609 0.5 5.08424 0.5 6.28001H1.5ZM2.57868 5.01609H3.16666V4.01609H2.57868V5.01609ZM12.4863 5.38924V4.51609H11.4863V5.38924H12.4863ZM12.4863 4.51609V3.72526H11.4863V4.51609H12.4863ZM12.4863 3.72526C12.4863 3.41569 12.3634 3.11877 12.1444 2.89982L11.4373 3.60693C11.4687 3.63829 11.4863 3.68084 11.4863 3.72526H12.4863ZM12.1444 2.89982C11.9255 2.68088 11.6285 2.55792 11.3189 2.55792V3.55792C11.3634 3.55792 11.4059 3.57556 11.4373 3.60693L12.1444 2.89982ZM11.3189 2.55792H8.98763V3.55792H11.3189V2.55792ZM9.44826 3.2524C9.55307 3.00416 9.60654 2.73718 9.60527 2.46758L8.60528 2.4723C8.60591 2.60656 8.57929 2.73962 8.52701 2.86343L9.44826 3.2524ZM9.60527 2.46994C9.60527 1.94744 9.39766 1.4464 9.02825 1.07699L8.32114 1.78409C8.50307 1.96602 8.60527 2.21273 8.60527 2.46994H9.60527ZM9.02825 1.07699C8.65883 0.707562 8.15781 0.5 7.63533 0.5V1.5C7.89256 1.5 8.13923 1.60218 8.32114 1.78409L9.02825 1.07699ZM7.63533 0.5C7.11288 0.5 6.61178 0.707544 6.24234 1.07699L6.94945 1.78409C7.13134 1.6022 7.37808 1.5 7.63533 1.5V0.5ZM6.24234 1.07699C5.87289 1.44644 5.66539 1.94751 5.66539 2.46994H6.66539C6.66539 2.21267 6.76757 1.96597 6.94945 1.78409L6.24234 1.07699ZM5.66543 2.46403C5.66221 2.73603 5.7161 3.00574 5.82373 3.25567L6.74219 2.86016C6.68997 2.7389 6.66379 2.60797 6.66536 2.47585L5.66543 2.46403ZM6.28296 2.55792H3.86344V3.55792H6.28296V2.55792ZM3.86344 2.55792C3.55387 2.55792 3.25691 2.68088 3.03797 2.89982L3.74508 3.60693C3.77644 3.57556 3.81903 3.55792 3.86344 3.55792V2.55792ZM3.03797 2.89982C2.81903 3.11877 2.69608 3.41569 2.69608 3.72526H3.69608C3.69608 3.68084 3.71372 3.63829 3.74508 3.60693L3.03797 2.89982ZM2.69608 3.72526V5.38924H3.69608V3.72526H2.69608ZM3.19608 5.88924H11.9863V4.88924H3.19608V5.88924ZM7.06181 7.6794V9.38747H8.06181V7.6794H7.06181ZM7.06181 9.38747V11.0955H8.06181V9.38747H7.06181ZM9.26988 8.88747H7.56181V9.88747H9.26988V8.88747ZM7.56181 8.88747H5.85373V9.88747H7.56181V8.88747ZM7.50867 2.4229C7.50867 2.34971 7.568 2.29038 7.64118 2.29038V3.29038C8.12028 3.29038 8.50867 2.902 8.50867 2.4229H7.50867ZM7.64118 2.29038C7.71437 2.29038 7.7737 2.34971 7.7737 2.4229H6.7737C6.7737 2.902 7.16208 3.29038 7.64118 3.29038V2.29038ZM7.7737 2.4229C7.7737 2.49608 7.71437 2.55541 7.64118 2.55541V1.55541C7.16208 1.55541 6.7737 1.9438 6.7737 2.4229H7.7737ZM7.64118 2.55541C7.568 2.55541 7.50867 2.49608 7.50867 2.4229H8.50867C8.50867 1.9438 8.12028 1.55541 7.64118 1.55541V2.55541ZM3.3372 13.8563H11.8364V12.8563H3.3372V13.8563ZM3.3372 16.2641H11.8364V15.2641H3.3372V16.2641ZM3.3372 18.7012H11.8364V17.7012H3.3372V18.7012Z" fill="url(#paint0_linear_6011_366)"/>
<defs>
<linearGradient id="paint0_linear_6011_366" x1="7.57798" y1="1" x2="7.57798" y2="21" gradientUnits="userSpaceOnUse">
<stop stop-color="#33E4DB"/>
<stop offset="1" stop-color="#00BBD3"/>
</linearGradient>
</defs>
</svg>
