<svg width="42" height="40" viewBox="0 0 42 40" fill="none" xmlns="http://www.w3.org/2000/svg">
<path d="M2.60676 27.08H4.62876C5.47276 27.08 6.16876 27.25 6.71676 27.59C7.26476 27.926 7.67276 28.392 7.94076 28.988C8.20876 29.584 8.34276 30.266 8.34276 31.034C8.34276 31.806 8.20876 32.49 7.94076 33.086C7.67676 33.682 7.27076 34.15 6.72276 34.49C6.17476 34.83 5.47676 35 4.62876 35H2.60676V27.08ZM3.86076 28.22V33.86H4.52076C5.09276 33.86 5.56076 33.74 5.92476 33.5C6.29276 33.256 6.56476 32.922 6.74076 32.498C6.91676 32.074 7.00676 31.59 7.01076 31.046C7.01476 30.502 6.92876 30.018 6.75276 29.594C6.57676 29.166 6.30276 28.83 5.93076 28.586C5.56276 28.342 5.09276 28.22 4.52076 28.22H3.86076ZM11.896 35.144C11.38 35.144 10.92 35.032 10.516 34.808C10.116 34.58 9.80198 34.272 9.57398 33.884C9.34598 33.492 9.23198 33.048 9.23198 32.552C9.23198 32.056 9.34598 31.61 9.57398 31.214C9.80198 30.818 10.116 30.506 10.516 30.278C10.92 30.046 11.38 29.93 11.896 29.93C12.412 29.93 12.868 30.046 13.264 30.278C13.66 30.506 13.97 30.818 14.194 31.214C14.422 31.61 14.536 32.056 14.536 32.552C14.536 33.048 14.422 33.492 14.194 33.884C13.97 34.272 13.66 34.58 13.264 34.808C12.868 35.032 12.412 35.144 11.896 35.144ZM11.896 34.064C12.184 34.064 12.434 33.998 12.646 33.866C12.858 33.734 13.022 33.554 13.138 33.326C13.254 33.098 13.312 32.838 13.312 32.546C13.312 32.254 13.254 31.994 13.138 31.766C13.022 31.534 12.858 31.35 12.646 31.214C12.434 31.078 12.184 31.01 11.896 31.01C11.608 31.01 11.356 31.078 11.14 31.214C10.928 31.35 10.762 31.534 10.642 31.766C10.526 31.994 10.468 32.254 10.468 32.546C10.468 32.838 10.526 33.098 10.642 33.326C10.762 33.554 10.928 33.734 11.14 33.866C11.356 33.998 11.608 34.064 11.896 34.064ZM18.0503 34.106C18.3343 34.106 18.5643 34.06 18.7403 33.968C18.9203 33.872 19.0363 33.802 19.0883 33.758L19.6943 34.658C19.6463 34.698 19.5463 34.758 19.3943 34.838C19.2423 34.914 19.0483 34.984 18.8123 35.048C18.5803 35.112 18.3163 35.144 18.0203 35.144C17.5323 35.144 17.0883 35.042 16.6883 34.838C16.2923 34.63 15.9743 34.332 15.7343 33.944C15.4983 33.552 15.3803 33.082 15.3803 32.534C15.3803 31.982 15.4983 31.512 15.7343 31.124C15.9743 30.736 16.2923 30.44 16.6883 30.236C17.0883 30.032 17.5323 29.93 18.0203 29.93C18.3123 29.93 18.5723 29.964 18.8003 30.032C19.0323 30.096 19.2243 30.17 19.3763 30.254C19.5283 30.338 19.6303 30.404 19.6823 30.452L19.0643 31.352C19.0363 31.324 18.9783 31.28 18.8903 31.22C18.8063 31.156 18.6943 31.098 18.5543 31.046C18.4143 30.994 18.2463 30.968 18.0503 30.968C17.8103 30.968 17.5803 31.032 17.3603 31.16C17.1403 31.288 16.9603 31.47 16.8203 31.706C16.6803 31.938 16.6103 32.214 16.6103 32.534C16.6103 32.854 16.6803 33.132 16.8203 33.368C16.9603 33.604 17.1403 33.786 17.3603 33.914C17.5803 34.042 17.8103 34.106 18.0503 34.106ZM20.169 30.074H21.093V28.052H22.365V30.074H23.583V31.154H22.365V33.26C22.365 33.524 22.409 33.722 22.497 33.854C22.589 33.986 22.719 34.052 22.887 34.052C23.027 34.052 23.137 34.026 23.217 33.974C23.301 33.922 23.351 33.886 23.367 33.866L23.841 34.796C23.817 34.82 23.747 34.86 23.631 34.916C23.515 34.972 23.365 35.024 23.181 35.072C22.997 35.12 22.787 35.144 22.551 35.144C22.135 35.144 21.787 35.02 21.507 34.772C21.231 34.524 21.093 34.136 21.093 33.608V31.154H20.169V30.074ZM27.0249 35.144C26.5089 35.144 26.0489 35.032 25.6449 34.808C25.2449 34.58 24.9309 34.272 24.7029 33.884C24.4749 33.492 24.3609 33.048 24.3609 32.552C24.3609 32.056 24.4749 31.61 24.7029 31.214C24.9309 30.818 25.2449 30.506 25.6449 30.278C26.0489 30.046 26.5089 29.93 27.0249 29.93C27.5409 29.93 27.9969 30.046 28.3929 30.278C28.7889 30.506 29.0989 30.818 29.3229 31.214C29.5509 31.61 29.6649 32.056 29.6649 32.552C29.6649 33.048 29.5509 33.492 29.3229 33.884C29.0989 34.272 28.7889 34.58 28.3929 34.808C27.9969 35.032 27.5409 35.144 27.0249 35.144ZM27.0249 34.064C27.3129 34.064 27.5629 33.998 27.7749 33.866C27.9869 33.734 28.1509 33.554 28.2669 33.326C28.3829 33.098 28.4409 32.838 28.4409 32.546C28.4409 32.254 28.3829 31.994 28.2669 31.766C28.1509 31.534 27.9869 31.35 27.7749 31.214C27.5629 31.078 27.3129 31.01 27.0249 31.01C26.7369 31.01 26.4849 31.078 26.2689 31.214C26.0569 31.35 25.8909 31.534 25.7709 31.766C25.6549 31.994 25.5969 32.254 25.5969 32.546C25.5969 32.838 25.6549 33.098 25.7709 33.326C25.8909 33.554 26.0569 33.734 26.2689 33.866C26.4849 33.998 26.7369 34.064 27.0249 34.064ZM31.9672 35H30.6892V30.074H31.9672V30.896H31.9372C31.9652 30.796 32.0412 30.672 32.1652 30.524C32.2932 30.372 32.4692 30.236 32.6932 30.116C32.9172 29.992 33.1872 29.93 33.5032 29.93C33.7312 29.93 33.9352 29.962 34.1152 30.026C34.2952 30.09 34.4232 30.154 34.4992 30.218L33.9832 31.274C33.9312 31.21 33.8332 31.148 33.6892 31.088C33.5492 31.024 33.3752 30.992 33.1672 30.992C32.9072 30.992 32.6872 31.068 32.5072 31.22C32.3312 31.372 32.1972 31.554 32.1052 31.766C32.0132 31.978 31.9672 32.176 31.9672 32.36V35ZM36.9943 29.93C37.2703 29.93 37.5263 29.956 37.7623 30.008C37.9983 30.06 38.2003 30.122 38.3683 30.194C38.5363 30.266 38.6523 30.326 38.7163 30.374L38.2483 31.166C38.1683 31.098 38.0243 31.02 37.8163 30.932C37.6123 30.844 37.3823 30.8 37.1263 30.8C36.8703 30.8 36.6543 30.846 36.4783 30.938C36.3023 31.03 36.2143 31.168 36.2143 31.352C36.2143 31.532 36.3063 31.676 36.4903 31.784C36.6783 31.892 36.9323 31.982 37.2523 32.054C37.5163 32.114 37.7683 32.198 38.0083 32.306C38.2483 32.41 38.4443 32.56 38.5963 32.756C38.7523 32.948 38.8303 33.206 38.8303 33.53C38.8303 33.838 38.7643 34.096 38.6323 34.304C38.5043 34.508 38.3323 34.672 38.1163 34.796C37.9003 34.92 37.6603 35.008 37.3963 35.06C37.1363 35.116 36.8743 35.144 36.6103 35.144C36.2863 35.144 35.9963 35.112 35.7403 35.048C35.4883 34.984 35.2783 34.91 35.1103 34.826C34.9423 34.738 34.8223 34.664 34.7503 34.604L35.2183 33.716C35.3223 33.816 35.4923 33.922 35.7283 34.034C35.9643 34.142 36.2283 34.196 36.5203 34.196C36.8323 34.196 37.0823 34.136 37.2703 34.016C37.4583 33.896 37.5523 33.736 37.5523 33.536C37.5523 33.388 37.5063 33.268 37.4143 33.176C37.3263 33.084 37.2043 33.01 37.0483 32.954C36.8923 32.898 36.7183 32.848 36.5263 32.804C36.3463 32.76 36.1643 32.704 35.9803 32.636C35.8003 32.564 35.6343 32.472 35.4823 32.36C35.3303 32.244 35.2083 32.1 35.1163 31.928C35.0243 31.756 34.9783 31.554 34.9783 31.322C34.9783 31.026 35.0723 30.774 35.2603 30.566C35.4483 30.358 35.6963 30.2 36.0043 30.092C36.3123 29.984 36.6423 29.93 36.9943 29.93Z" fill="url(#paint0_linear_2069_1384)"/>
<path d="M22.8484 22.12C23.1245 22.12 23.3484 21.8961 23.3484 21.62C23.3484 21.3439 23.1245 21.12 22.8484 21.12V22.12ZM17.9156 17.1501H17.4156C17.4156 17.1656 17.4163 17.1812 17.4178 17.1967L17.9156 17.1501ZM22.8421 21.12C22.5659 21.12 22.3421 21.3439 22.3421 21.62C22.3421 21.8961 22.5659 22.12 22.8421 22.12V21.12ZM27.7749 17.1501H28.2749H27.7749ZM28.2749 13.3147C28.2749 13.0386 28.051 12.8147 27.7749 12.8147C27.4987 12.8147 27.2749 13.0386 27.2749 13.3147H28.2749ZM18.4156 14.1665C18.4156 13.8904 18.1917 13.6665 17.9156 13.6665C17.6394 13.6665 17.4156 13.8904 17.4156 14.1665H18.4156ZM23.5495 3.81906H24.0495C24.0495 3.80881 24.0491 3.79855 24.0485 3.78831L23.5495 3.81906ZM17.7747 14.1739V13.6739V14.1739ZM21.6933 1.64556C21.4171 1.64556 21.1933 1.86941 21.1933 2.14556C21.1933 2.4217 21.4171 2.64556 21.6933 2.64556V1.64556ZM12 3.81906L11.5009 3.78831C11.5003 3.79855 11.5 3.80881 11.5 3.81906H12ZM13.8562 2.64556C14.1323 2.64556 14.3562 2.4217 14.3562 2.14556C14.3562 1.86941 14.1323 1.64556 13.8562 1.64556V2.64556ZM22.8484 21.12H22.8452V22.12H22.8484V21.12ZM22.8456 21.12C20.5027 21.1184 18.6007 19.1013 18.4134 17.1034L17.4178 17.1967C17.6493 19.6669 19.9456 22.118 22.8449 22.12L22.8456 21.12ZM22.8421 22.12H22.8452V21.12H22.8421V22.12ZM22.8456 22.12C25.6897 22.1181 28.2749 19.9235 28.2749 17.1501H27.2749C27.2749 19.2712 25.2429 21.1184 22.8449 21.12L22.8456 22.12ZM28.2749 17.1501L28.2749 13.3147H27.2749L27.2749 17.1501H28.2749ZM18.4156 17.1501V14.1665H17.4156V17.1501H18.4156ZM23.0495 3.81906V8.31661H24.0495V3.81906H23.0495ZM23.0495 8.31661C23.0495 11.2821 20.6812 13.6739 17.7747 13.6739V14.6739C21.2468 14.6739 24.0495 11.8209 24.0495 8.31661H23.0495ZM24.0485 3.78831C24.0261 3.42429 23.8837 2.9006 23.5218 2.45705C23.1437 1.99351 22.5467 1.64556 21.6933 1.64556V2.64556C22.2424 2.64556 22.5563 2.85543 22.747 3.0892C22.954 3.34294 23.0385 3.656 23.0504 3.84981L24.0485 3.78831ZM11.5 3.81906V8.31661H12.5V3.81906H11.5ZM11.5 8.31661C11.5 11.8209 14.3026 14.6739 17.7747 14.6739V13.6739C14.8682 13.6739 12.5 11.2821 12.5 8.31661H11.5ZM12.4991 3.84981C12.511 3.65601 12.5955 3.34294 12.8025 3.0892C12.9932 2.85543 13.3071 2.64556 13.8562 2.64556V1.64556C13.0028 1.64556 12.4058 1.99351 12.0276 2.45705C11.6658 2.9006 11.5234 3.42428 11.5009 3.78831L12.4991 3.84981ZM15.4437 2.00236C15.4437 2.28763 15.2184 2.50472 14.9578 2.50472V3.50472C15.7862 3.50472 16.4437 2.82427 16.4437 2.00236H15.4437ZM14.9578 2.50472C14.6972 2.50472 14.4719 2.28763 14.4719 2.00236H13.4719C13.4719 2.82427 14.1294 3.50472 14.9578 3.50472V2.50472ZM14.4719 2.00236C14.4719 1.71709 14.6972 1.5 14.9578 1.5V0.5C14.1294 0.5 13.4719 1.18045 13.4719 2.00236H14.4719ZM14.9578 1.5C15.2184 1.5 15.4437 1.71709 15.4437 2.00236H16.4437C16.4437 1.18045 15.7862 0.5 14.9578 0.5V1.5ZM21.0776 2.00236C21.0776 2.28763 20.8523 2.50472 20.5917 2.50472V3.50472C21.4201 3.50472 22.0776 2.82427 22.0776 2.00236H21.0776ZM20.5917 2.50472C20.3311 2.50472 20.1057 2.28763 20.1057 2.00236H19.1057C19.1057 2.82427 19.7632 3.50472 20.5917 3.50472V2.50472ZM20.1057 2.00236C20.1057 1.71709 20.3311 1.5 20.5917 1.5V0.5C19.7632 0.5 19.1057 1.18045 19.1057 2.00236H20.1057ZM20.5917 1.5C20.8523 1.5 21.0776 1.71709 21.0776 2.00236H22.0776C22.0776 1.18045 21.4201 0.5 20.5917 0.5V1.5ZM28.6833 11.7396C28.6833 12.3412 28.2058 12.8147 27.634 12.8147V13.8147C28.7736 13.8147 29.6833 12.8778 29.6833 11.7396H28.6833ZM27.634 12.8147C27.0623 12.8147 26.5847 12.3412 26.5847 11.7396H25.5847C25.5847 12.8778 26.4944 13.8147 27.634 13.8147V12.8147ZM26.5847 11.7396C26.5847 11.138 27.0623 10.6644 27.634 10.6644V9.66444C26.4944 9.66444 25.5847 10.6013 25.5847 11.7396H26.5847ZM27.634 10.6644C28.2058 10.6644 28.6833 11.138 28.6833 11.7396H29.6833C29.6833 10.6013 28.7736 9.66444 27.634 9.66444V10.6644Z" fill="url(#paint1_linear_2069_1384)"/>
<defs>
<linearGradient id="paint0_linear_2069_1384" x1="20.6923" y1="25" x2="20.6923" y2="39.4846" gradientUnits="userSpaceOnUse">
<stop stop-color="#39E8DB"/>
<stop offset="1" stop-color="#05BFD4"/>
</linearGradient>
<linearGradient id="paint1_linear_2069_1384" x1="20.5917" y1="1" x2="20.5917" y2="21.62" gradientUnits="userSpaceOnUse">
<stop stop-color="#39E8DB"/>
<stop offset="1" stop-color="#05BFD4"/>
</linearGradient>
</defs>
</svg>
