<svg width="46" height="44" viewBox="0 0 46 44" fill="none" xmlns="http://www.w3.org/2000/svg">
<rect width="46" height="44" rx="9" fill="url(#paint0_linear_2445_2340)"/>
<path d="M27.8376 14.8032H27.3376V14.8032L27.8376 14.8032ZM29.0812 15.9395V15.4395L29.0807 15.4395L29.0812 15.9395ZM31.6645 15.497L32.0027 15.1287L31.6645 15.497ZM28.9692 13.0256L28.6318 13.3946L28.9692 13.0256ZM19.0519 18.3523C18.7758 18.3523 18.5519 18.5762 18.5519 18.8523C18.5519 19.1284 18.7758 19.3523 19.0519 19.3523V18.3523ZM28.7143 19.3523C28.9904 19.3523 29.2143 19.1284 29.2143 18.8523C29.2143 18.5762 28.9904 18.3523 28.7143 18.3523V19.3523ZM19.0519 21.938C18.7758 21.938 18.5519 22.1619 18.5519 22.438C18.5519 22.7142 18.7758 22.938 19.0519 22.938V21.938ZM28.7143 22.938C28.9904 22.938 29.2143 22.7142 29.2143 22.438C29.2143 22.1619 28.9904 21.938 28.7143 21.938V22.938ZM19.0519 25.225C18.7758 25.225 18.5519 25.4488 18.5519 25.725C18.5519 26.0011 18.7758 26.225 19.0519 26.225V25.225ZM28.7143 26.225C28.9904 26.225 29.2143 26.0011 29.2143 25.725C29.2143 25.4488 28.9904 25.225 28.7143 25.225V26.225ZM16.2422 12.5H26.2791V11.5H16.2422V12.5ZM31.6429 16.5738V30.8636H32.6429V16.5738H31.6429ZM30.9006 31.5H16.2422V32.5H30.9006V31.5ZM15.5 30.8636V13.1364H14.5V30.8636H15.5ZM16.2422 31.5C15.7895 31.5 15.5 31.1741 15.5 30.8636H14.5C14.5 31.8084 15.3229 32.5 16.2422 32.5V31.5ZM31.6429 30.8636C31.6429 31.1741 31.3534 31.5 30.9006 31.5V32.5C31.82 32.5 32.6429 31.8084 32.6429 30.8636H31.6429ZM28.6318 13.3946C29.5087 14.1964 30.6801 15.2717 31.3263 15.8652L32.0027 15.1287C31.3566 14.5352 30.1844 13.4592 29.3066 12.6566L28.6318 13.3946ZM16.2422 11.5C15.3229 11.5 14.5 12.1916 14.5 13.1364H15.5C15.5 12.8259 15.7895 12.5 16.2422 12.5V11.5ZM28.3376 14.8032V12.3483H27.3376V14.8032H28.3376ZM31.996 15.4395H29.0812V16.4395H31.996V15.4395ZM27.3376 14.8032C27.3376 15.7487 28.1617 16.4405 29.0817 16.4395L29.0807 15.4395C28.6275 15.44 28.3376 15.1139 28.3376 14.8032L27.3376 14.8032ZM32.6429 16.5738C32.6429 16.024 32.4106 15.5033 32.0027 15.1287L31.3263 15.8652C31.5319 16.054 31.6429 16.3092 31.6429 16.5738H32.6429ZM26.2791 12.5C26.6318 12.5 27.0869 12.596 27.5356 12.7666C27.9852 12.9375 28.3813 13.1655 28.6318 13.3946L29.3066 12.6566C28.9343 12.3162 28.4157 12.0314 27.8911 11.8319C27.3656 11.6321 26.7872 11.5 26.2791 11.5V12.5ZM19.0519 19.3523H28.7143V18.3523H19.0519V19.3523ZM19.0519 22.938H28.7143V21.938H19.0519V22.938ZM19.0519 26.225H28.7143V25.225H19.0519V26.225Z" fill="white"/>
<defs>
<linearGradient id="paint0_linear_2445_2340" x1="23" y1="0" x2="23" y2="44" gradientUnits="userSpaceOnUse">
<stop stop-color="#33E4DB"/>
<stop offset="1" stop-color="#00BBD3"/>
</linearGradient>
</defs>
</svg>
