<svg width="13" height="13" viewBox="0 0 13 13" fill="none" xmlns="http://www.w3.org/2000/svg">
<circle cx="6.5" cy="6.5" r="6.5" fill="#E9F6FE"/>
<path d="M6.87227 9.87664L9.41872 8.44031M5.47701 4.42463L8.23657 9.1071M6.62531 3.59085C6.66717 3.66299 6.63998 3.75658 6.56457 3.7999L4.27767 5.11357C4.20227 5.15689 4.1072 5.13352 4.06534 5.06138C3.12157 3.43498 3.73563 2.81259 4.2842 2.49748C4.83276 2.18236 5.67996 1.96174 6.62531 3.59085ZM6.7011 3.72147L9.37976 8.3376C9.41238 8.39381 9.42822 8.45821 9.42472 8.52302C9.38056 9.34112 9.26771 10.058 9.19285 10.4651C9.15731 10.6584 8.96161 10.7719 8.77514 10.7071C8.38143 10.5703 7.69704 10.3118 6.95883 9.93956C6.90059 9.91019 6.85239 9.86431 6.81974 9.80804L4.14114 5.192L6.7011 3.72147Z" stroke="#252525" stroke-width="0.7" stroke-linecap="round"/>
</svg>
