<svg width="27" height="27" viewBox="0 0 27 27" fill="none" xmlns="http://www.w3.org/2000/svg">
<circle cx="13.5" cy="13.5" r="13.5" fill="#E9F6FE"/>
<path d="M12.4615 11.423H20.7692M12.4615 11.423C12.4615 12.5701 11.5316 13.5 10.3846 13.5C9.23751 13.5 8.30764 12.5701 8.30764 11.423M12.4615 11.423C12.4615 10.276 11.5316 9.34612 10.3846 9.34612C9.23751 9.34612 8.30764 10.276 8.30764 11.423M6.23071 11.423H8.30764M17.6538 16.6154H20.7692M17.6538 16.6154C17.6538 17.7624 16.7239 18.6923 15.5769 18.6923C14.4298 18.6923 13.4999 17.7624 13.4999 16.6154M17.6538 16.6154C17.6538 15.4683 16.7239 14.5384 15.5769 14.5384C14.4298 14.5384 13.4999 15.4683 13.4999 16.6154M6.23071 16.6154H13.4999" stroke="#252525" stroke-linecap="round" stroke-linejoin="round"/>
</svg>
