<svg width="40" height="40" viewBox="0 0 40 40" fill="none" xmlns="http://www.w3.org/2000/svg">
<circle cx="20" cy="20" r="20" fill="url(#paint0_linear_2445_2273)"/>
<path d="M17.7621 19.9692C18.3305 21.8564 21.9229 27.3292 26.2882 28.4615M24.583 30.5846C21.1726 29.5231 17.7246 26.9122 15.7158 22.4461C13.3285 17.1385 18.7852 15.0153 20.8315 19.6154C21.6185 21.3846 22.8778 23.3307 26.6293 25.2769C30.3808 27.223 32.7681 21.3847 29.3577 19.6154C24.3919 17.0394 23.2188 9.63693 16.0569 11.1231C5.99636 13.2108 8.21284 27.0462 13.3285 30.9385M28.3345 22.4461C22.1957 20.323 22.3443 11.4942 15.7158 14.3076C8.21281 17.4922 13.6696 30.2308 20.4905 32M21.5136 9C25.2651 9.35385 26.2883 13.2462 30.3808 16.7846" stroke="#E9F6FE" stroke-linecap="round" stroke-linejoin="round"/>
<defs>
<linearGradient id="paint0_linear_2445_2273" x1="20" y1="0" x2="20" y2="40" gradientUnits="userSpaceOnUse">
<stop stop-color="#33E4DB"/>
<stop offset="1" stop-color="#00BBD3"/>
</linearGradient>
</defs>
</svg>
