<svg width="40" height="40" viewBox="0 0 40 40" fill="none" xmlns="http://www.w3.org/2000/svg">
<circle cx="20" cy="20" r="20" fill="url(#paint0_linear_2445_2241)"/>
<path d="M31 20C31 26.0751 26.0751 31 20 31M31 20C31 13.9249 26.0751 9 20 9M31 20H9M20 31C13.9249 31 9 26.0751 9 20M20 31C22.3228 31 24.2059 26.0751 24.2059 20C24.2059 13.9249 22.3228 9 20 9M20 31C17.6772 31 15.7941 26.0751 15.7941 20C15.7941 13.9249 17.6772 9 20 9M9 20C9 13.9249 13.9249 9 20 9M10.9412 13.8529C10.9412 13.8529 14.5028 15.4706 20.0774 15.4706C25.6521 15.4706 29.0588 13.8529 29.0588 13.8529M29.0588 26.1471C29.0588 26.1471 25.4972 24.5294 19.9226 24.5294C14.3479 24.5294 10.9412 26.1471 10.9412 26.1471" stroke="white" stroke-linecap="round"/>
<defs>
<linearGradient id="paint0_linear_2445_2241" x1="20" y1="0" x2="20" y2="40" gradientUnits="userSpaceOnUse">
<stop stop-color="#33E4DB"/>
<stop offset="1" stop-color="#00BBD3"/>
</linearGradient>
</defs>
</svg>
