<svg width="50" height="37" viewBox="0 0 50 37" fill="none" xmlns="http://www.w3.org/2000/svg">
<path fill-rule="evenodd" clip-rule="evenodd" d="M15.4645 2.55975C17.4171 0.480082 20.5829 0.480082 22.5355 2.55975L24 4.11951L25.4645 2.55975C27.4171 0.480082 30.5829 0.480082 32.5355 2.55975C34.4882 4.63942 34.4882 8.01124 32.5355 10.0909L24 19.1818L15.4645 10.0909C13.5118 8.01124 13.5118 4.63942 15.4645 2.55975Z" stroke="url(#paint0_linear_2069_1408)" stroke-linecap="round"/>
<path d="M4.9704 24.08H9.2364V25.208H6.2304V27.47H9.0264V28.592H6.2304V32H4.9704V24.08ZM13.9969 32V31.088C13.9649 31.184 13.8729 31.316 13.7209 31.484C13.5729 31.652 13.3689 31.804 13.1089 31.94C12.8529 32.076 12.5489 32.144 12.1969 32.144C11.7369 32.144 11.3229 32.034 10.9549 31.814C10.5869 31.594 10.2969 31.288 10.0849 30.896C9.87293 30.504 9.76693 30.052 9.76693 29.54C9.76693 29.028 9.87293 28.576 10.0849 28.184C10.2969 27.792 10.5869 27.486 10.9549 27.266C11.3229 27.042 11.7369 26.93 12.1969 26.93C12.5409 26.93 12.8389 26.99 13.0909 27.11C13.3429 27.23 13.5449 27.368 13.6969 27.524C13.8529 27.68 13.9489 27.816 13.9849 27.932V27.074H15.2569V32H13.9969ZM11.0329 29.54C11.0329 29.856 11.1029 30.132 11.2429 30.368C11.3829 30.604 11.5649 30.786 11.7889 30.914C12.0169 31.042 12.2609 31.106 12.5209 31.106C12.8009 31.106 13.0489 31.04 13.2649 30.908C13.4849 30.776 13.6569 30.594 13.7809 30.362C13.9089 30.126 13.9729 29.852 13.9729 29.54C13.9729 29.228 13.9089 28.956 13.7809 28.724C13.6569 28.488 13.4849 28.304 13.2649 28.172C13.0489 28.036 12.8009 27.968 12.5209 27.968C12.2609 27.968 12.0169 28.034 11.7889 28.166C11.5649 28.294 11.3829 28.476 11.2429 28.712C11.1029 28.948 11.0329 29.224 11.0329 29.54ZM16.0971 27.074H17.4711L18.9531 30.824L20.4351 27.074H21.8031L19.7091 32H18.2031L16.0971 27.074ZM25.0637 32.144C24.5477 32.144 24.0877 32.032 23.6837 31.808C23.2837 31.58 22.9697 31.272 22.7417 30.884C22.5137 30.492 22.3997 30.048 22.3997 29.552C22.3997 29.056 22.5137 28.61 22.7417 28.214C22.9697 27.818 23.2837 27.506 23.6837 27.278C24.0877 27.046 24.5477 26.93 25.0637 26.93C25.5797 26.93 26.0357 27.046 26.4317 27.278C26.8277 27.506 27.1377 27.818 27.3617 28.214C27.5897 28.61 27.7037 29.056 27.7037 29.552C27.7037 30.048 27.5897 30.492 27.3617 30.884C27.1377 31.272 26.8277 31.58 26.4317 31.808C26.0357 32.032 25.5797 32.144 25.0637 32.144ZM25.0637 31.064C25.3517 31.064 25.6017 30.998 25.8137 30.866C26.0257 30.734 26.1897 30.554 26.3057 30.326C26.4217 30.098 26.4797 29.838 26.4797 29.546C26.4797 29.254 26.4217 28.994 26.3057 28.766C26.1897 28.534 26.0257 28.35 25.8137 28.214C25.6017 28.078 25.3517 28.01 25.0637 28.01C24.7757 28.01 24.5237 28.078 24.3077 28.214C24.0957 28.35 23.9297 28.534 23.8097 28.766C23.6937 28.994 23.6357 29.254 23.6357 29.546C23.6357 29.838 23.6937 30.098 23.8097 30.326C23.9297 30.554 24.0957 30.734 24.3077 30.866C24.5237 30.998 24.7757 31.064 25.0637 31.064ZM30.0061 32H28.7281V27.074H30.0061V27.896H29.9761C30.0041 27.796 30.0801 27.672 30.2041 27.524C30.3321 27.372 30.5081 27.236 30.7321 27.116C30.9561 26.992 31.2261 26.93 31.5421 26.93C31.7701 26.93 31.9741 26.962 32.1541 27.026C32.3341 27.09 32.4621 27.154 32.5381 27.218L32.0221 28.274C31.9701 28.21 31.8721 28.148 31.7281 28.088C31.5881 28.024 31.4141 27.992 31.2061 27.992C30.9461 27.992 30.7261 28.068 30.5461 28.22C30.3701 28.372 30.2361 28.554 30.1441 28.766C30.0521 28.978 30.0061 29.176 30.0061 29.36V32ZM33.2551 32V27.074H34.5331V32H33.2551ZM33.9091 25.598C33.6931 25.598 33.5071 25.52 33.3511 25.364C33.1991 25.208 33.1231 25.022 33.1231 24.806C33.1231 24.59 33.1991 24.404 33.3511 24.248C33.5071 24.088 33.6931 24.008 33.9091 24.008C34.0531 24.008 34.1851 24.046 34.3051 24.122C34.4291 24.194 34.5271 24.29 34.5991 24.41C34.6751 24.526 34.7131 24.658 34.7131 24.806C34.7131 25.022 34.6351 25.208 34.4791 25.364C34.3231 25.52 34.1331 25.598 33.9091 25.598ZM35.6102 27.074H36.5342V25.052H37.8062V27.074H39.0242V28.154H37.8062V30.26C37.8062 30.524 37.8502 30.722 37.9382 30.854C38.0302 30.986 38.1602 31.052 38.3282 31.052C38.4682 31.052 38.5782 31.026 38.6582 30.974C38.7422 30.922 38.7922 30.886 38.8082 30.866L39.2822 31.796C39.2582 31.82 39.1882 31.86 39.0722 31.916C38.9562 31.972 38.8062 32.024 38.6222 32.072C38.4382 32.12 38.2282 32.144 37.9922 32.144C37.5762 32.144 37.2282 32.02 36.9482 31.772C36.6722 31.524 36.5342 31.136 36.5342 30.608V28.154H35.6102V27.074ZM41.0021 29.84C41.0101 30.1 41.0721 30.334 41.1881 30.542C41.3041 30.75 41.4741 30.914 41.6981 31.034C41.9261 31.15 42.2041 31.208 42.5321 31.208C42.8161 31.208 43.0601 31.17 43.2641 31.094C43.4721 31.014 43.6441 30.92 43.7801 30.812C43.9161 30.7 44.0161 30.596 44.0801 30.5L44.6501 31.274C44.5261 31.442 44.3701 31.592 44.1821 31.724C43.9941 31.856 43.7601 31.958 43.4801 32.03C43.2041 32.106 42.8621 32.144 42.4541 32.144C41.9181 32.144 41.4521 32.034 41.0561 31.814C40.6601 31.594 40.3521 31.284 40.1321 30.884C39.9161 30.484 39.8081 30.016 39.8081 29.48C39.8081 29 39.9081 28.568 40.1081 28.184C40.3081 27.796 40.5981 27.49 40.9781 27.266C41.3621 27.042 41.8221 26.93 42.3581 26.93C42.8581 26.93 43.2921 27.03 43.6601 27.23C44.0281 27.43 44.3121 27.718 44.5121 28.094C44.7161 28.466 44.8181 28.916 44.8181 29.444C44.8181 29.476 44.8161 29.542 44.8121 29.642C44.8121 29.742 44.8081 29.808 44.8001 29.84H41.0021ZM43.6181 28.904C43.6141 28.776 43.5701 28.63 43.4861 28.466C43.4061 28.302 43.2761 28.16 43.0961 28.04C42.9161 27.916 42.6761 27.854 42.3761 27.854C42.0681 27.854 41.8181 27.914 41.6261 28.034C41.4341 28.15 41.2921 28.29 41.2001 28.454C41.1081 28.614 41.0541 28.764 41.0381 28.904H43.6181Z" fill="url(#paint1_linear_2069_1408)"/>
<defs>
<linearGradient id="paint0_linear_2069_1408" x1="24" y1="1" x2="24" y2="19.1818" gradientUnits="userSpaceOnUse">
<stop stop-color="#33E4DB"/>
<stop offset="1" stop-color="#00BBD3"/>
</linearGradient>
<linearGradient id="paint1_linear_2069_1408" x1="24.8308" y1="22" x2="24.8308" y2="36.4846" gradientUnits="userSpaceOnUse">
<stop stop-color="#39E8DB"/>
<stop offset="1" stop-color="#05BFD4"/>
</linearGradient>
</defs>
</svg>
