<svg width="23" height="22" viewBox="0 0 23 22" fill="none" xmlns="http://www.w3.org/2000/svg">
<path d="M19.25 11.0229H2.87006V20.6829C2.87006 21.0144 3.00172 21.3324 3.23615 21.5668C3.47057 21.8012 3.78854 21.9329 4.12006 21.9329H7.40002V18.7729C7.39931 18.3103 7.49496 17.8527 7.68091 17.4291C7.86686 17.0056 8.13904 16.6254 8.48004 16.3129C9.18328 15.6663 10.1048 15.3092 11.0601 15.3129C12.0126 15.3077 12.9314 15.6652 13.63 16.3129C13.9723 16.6249 14.2461 17.0048 14.4337 17.4283C14.6214 17.8518 14.7189 18.3097 14.72 18.7729V21.9329H17.9901C18.155 21.9342 18.3186 21.9029 18.4714 21.8406C18.6242 21.7784 18.7632 21.6865 18.8804 21.5703C18.9975 21.4541 19.0905 21.3159 19.1539 21.1636C19.2174 21.0113 19.25 20.8479 19.25 20.6829V11.0229Z" fill="url(#paint0_linear_2104_693)"/>
<path d="M13.72 18.8029C13.7181 18.477 13.6487 18.155 13.5162 17.8573C13.3837 17.5595 13.1909 17.2925 12.95 17.0729C12.4353 16.5988 11.7598 16.3378 11.0601 16.3429C10.3603 16.3378 9.68472 16.5988 9.17004 17.0729C8.92775 17.2913 8.73402 17.5581 8.60138 17.8562C8.46874 18.1542 8.40012 18.4767 8.40002 18.8029V21.9629H13.73L13.72 18.8029Z" fill="url(#paint1_linear_2104_693)"/>
<path d="M21.7 8.1529L12.22 0.992892C11.8859 0.740497 11.4788 0.603628 11.0601 0.602908C10.6411 0.602161 10.2335 0.739183 9.90004 0.992892L0.420056 8.04288C0.288873 8.14224 0.182591 8.27077 0.109692 8.41831C0.0367928 8.56584 -0.000765323 8.72833 1.18189e-05 8.89289C0.00181999 9.18372 0.108368 9.46417 0.300061 9.68289C0.393771 9.78956 0.509122 9.87506 0.63844 9.93369C0.767757 9.99231 0.908076 10.0227 1.05006 10.0229H21.0501C21.1922 10.0267 21.3335 10.0001 21.4646 9.94489C21.5956 9.88971 21.7134 9.80719 21.8101 9.70288C21.9903 9.4985 22.0898 9.23541 22.09 8.96289C22.0928 8.80681 22.0589 8.65225 21.9912 8.5116C21.9235 8.37094 21.8237 8.2481 21.7 8.1529Z" fill="url(#paint2_linear_2104_693)"/>
<defs>
<linearGradient id="paint0_linear_2104_693" x1="11.0451" y1="0.602905" x2="11.0451" y2="21.9629" gradientUnits="userSpaceOnUse">
<stop stop-color="#33E4DB"/>
<stop offset="1" stop-color="#00BBD3"/>
</linearGradient>
<linearGradient id="paint1_linear_2104_693" x1="11.0451" y1="0.602905" x2="11.0451" y2="21.9629" gradientUnits="userSpaceOnUse">
<stop stop-color="#33E4DB"/>
<stop offset="1" stop-color="#00BBD3"/>
</linearGradient>
<linearGradient id="paint2_linear_2104_693" x1="11.0451" y1="0.602905" x2="11.0451" y2="21.9629" gradientUnits="userSpaceOnUse">
<stop stop-color="#33E4DB"/>
<stop offset="1" stop-color="#00BBD3"/>
</linearGradient>
</defs>
</svg>
