<svg width="22" height="22" viewBox="0 0 22 22" fill="none" xmlns="http://www.w3.org/2000/svg">
<path d="M2.56976 10.6257L2.56976 10.1257L2.56976 10.6257ZM1.58985 7.91157L1.89739 8.3058H1.89739L1.58985 7.91157ZM20.4102 7.91157L20.1026 8.3058L20.4102 7.91157ZM19.4302 10.6257V11.1257V10.6257ZM11.9799 1.33504L12.2875 0.940808V0.940808L11.9799 1.33504ZM10.0201 1.33504L9.71255 0.940808V0.940808L10.0201 1.33504ZM11 15.1463V15.6463V15.1463ZM13.75 17.788H14.25H13.75ZM8.25 17.788H7.75H8.25ZM7.75 21C7.75 21.2761 7.97386 21.5 8.25 21.5C8.52614 21.5 8.75 21.2761 8.75 21H7.75ZM13.25 21C13.25 21.2761 13.4739 21.5 13.75 21.5C14.0261 21.5 14.25 21.2761 14.25 21H13.25ZM18.1766 10.4661V19.4754H19.1766V10.4661H18.1766ZM17.11 20.5H5.20335V21.5H17.11V20.5ZM4.13669 19.4754V10.4661H3.13669V19.4754H4.13669ZM5.20335 20.5C4.60133 20.5 4.13669 20.0285 4.13669 19.4754H3.13669C3.13669 20.6063 4.07489 21.5 5.20335 21.5V20.5ZM18.1766 19.4754C18.1766 20.0285 17.712 20.5 17.11 20.5V21.5C18.2384 21.5 19.1766 20.6063 19.1766 19.4754H18.1766ZM11.6724 1.72927L20.1026 8.3058L20.7177 7.51734L12.2875 0.940808L11.6724 1.72927ZM19.4302 10.1257L2.56976 10.1257L2.56976 11.1257L19.4302 11.1257V10.1257ZM1.89739 8.3058L10.3276 1.72927L9.71255 0.940808L1.28231 7.51734L1.89739 8.3058ZM2.56976 10.1257C1.53403 10.1257 1.14215 8.89498 1.89739 8.3058L1.28231 7.51734C-0.272191 8.73003 0.645197 11.1257 2.56976 11.1257L2.56976 10.1257ZM20.1026 8.3058C20.8579 8.89498 20.466 10.1257 19.4302 10.1257V11.1257C21.3548 11.1257 22.2722 8.73002 20.7177 7.51734L20.1026 8.3058ZM12.2875 0.940808C11.534 0.353064 10.466 0.353064 9.71255 0.940808L10.3276 1.72927C10.7195 1.42358 11.2805 1.42358 11.6724 1.72927L12.2875 0.940808ZM11 15.6463C12.2618 15.6463 13.25 16.6239 13.25 17.788H14.25C14.25 16.0342 12.7758 14.6463 11 14.6463V15.6463ZM8.75 17.788C8.75 16.6239 9.73823 15.6463 11 15.6463V14.6463C9.22421 14.6463 7.75 16.0342 7.75 17.788H8.75ZM8.75 21V17.788H7.75V21H8.75ZM13.25 17.788L13.25 21H14.25L14.25 17.788H13.25Z" fill="url(#paint0_linear_2064_1102)"/>
<defs>
<linearGradient id="paint0_linear_2064_1102" x1="11" y1="1" x2="11" y2="21" gradientUnits="userSpaceOnUse">
<stop stop-color="#33E4DB"/>
<stop offset="1" stop-color="#00BBD3"/>
</linearGradient>
</defs>
</svg>
