<svg width="42" height="43" viewBox="0 0 42 43" fill="none" xmlns="http://www.w3.org/2000/svg">
<path d="M12.391 30.9004C11.3735 30.9523 10.3637 30.6946 9.48904 30.1597C8.61437 29.6249 7.91397 28.8369 7.47611 27.8951C7.06909 26.9391 6.91901 25.8892 7.04142 24.8539C7.16382 23.8187 7.55424 22.8357 8.17229 22.0068C9.03993 20.8526 10.2817 20.0653 11.3623 19.1185C12.8598 17.7841 14.0591 16.1352 14.8785 14.2839C15.6979 12.4326 16.1183 10.4223 16.111 8.38977M29.609 30.9004C30.6265 30.9523 31.6363 30.6946 32.511 30.1597C33.3856 29.6249 34.086 28.8369 34.5239 27.8951C34.9309 26.9391 35.081 25.8892 34.9586 24.8539C34.8362 23.8187 34.4458 22.8357 33.8277 22.0068C32.9601 20.8526 31.7183 20.0653 30.6377 19.1185C29.1402 17.7841 27.9409 16.1352 27.1215 14.2839C26.302 12.4326 25.8817 10.4223 25.889 8.38977M11.5494 27.9111C12.9886 27.5494 14.1472 28.5068 15.0616 29.56C16.7397 31.5493 18.2984 33.2834 21.052 33.3898H21.2442C23.9978 33.31 25.5616 31.5493 27.2346 29.56C28.1282 28.4961 29.3128 27.5494 30.7519 27.9111" stroke="white" stroke-linecap="round" stroke-linejoin="round"/>
</svg>
