<svg width="42" height="33" viewBox="0 0 42 33" fill="none" xmlns="http://www.w3.org/2000/svg">
<path d="M38.0454 15.2234C38.1473 15.0197 38.2372 14.8099 38.3211 14.6241C38.6881 13.7242 38.9203 12.775 39.0103 11.8072C39.1911 9.8055 38.7595 7.79612 37.7727 6.04516C36.7859 4.2942 35.2905 2.8843 33.4845 2.00227C31.1223 0.850814 28.3996 0.684441 25.9148 1.53968C23.43 2.39492 21.3866 4.20177 20.2335 6.56313C20.1616 6.71895 20.0896 6.88682 20.0237 7.06661C19.9577 6.88682 19.8858 6.71895 19.8138 6.56313C18.6607 4.20177 16.6173 2.39492 14.1325 1.53968C11.6477 0.684441 8.92499 0.850814 6.56283 2.00227C4.20189 3.15416 2.39511 5.1966 1.53982 7.68043C0.68453 10.1643 0.850694 12.8861 2.0019 15.2474C4.3992 20.1678 20.0177 32.2922 20.0177 32.2922C20.0177 32.2922 30.7696 23.9436 35.798 18.292M6.30504 14.4443H12.544L14.9353 18.7055L18.6811 10.1831L20.1794 14.4443H23.6136L26.0109 18.7055L29.7507 10.1831L31.255 15.571L41 15.3433" stroke="white" stroke-linecap="round" stroke-linejoin="round"/>
</svg>
