<svg width="42" height="43" viewBox="0 0 42 43" fill="none" xmlns="http://www.w3.org/2000/svg">
<path d="M21 5.38977V11.27M21 31.5095V37.3898M37 21.3898H31.1197M10.8803 21.3898H5M16.3191 30.0353V26.3164C16.3191 25.0749 16.8123 23.8843 17.6901 23.0065C18.568 22.1286 19.7586 21.6355 21 21.6355C22.2415 21.6355 23.4321 22.1286 24.3099 23.0065C25.1878 23.8843 25.6809 25.0749 25.6809 26.3164V30.027M25.6809 13.2523V16.9629C25.6809 18.2044 25.1878 19.395 24.3099 20.2728C23.4321 21.1507 22.2415 21.6438 21 21.6438C19.7586 21.6438 18.568 21.1507 17.6901 20.2728C16.8123 19.395 16.3191 18.2044 16.3191 16.9629V13.2523M16.3191 14.5183H25.6809M16.3193 17.0004H25.6808M16.3191 26.2997H25.6809M17.0236 23.8468H24.9896M17.0081 19.4075H24.9919M16.3191 28.7859H25.6809M34.393 21.6438C34.393 29.0406 28.3968 35.0368 21 35.0368C13.6032 35.0368 7.60698 29.0406 7.60698 21.6438C7.60698 14.247 13.6032 8.25078 21 8.25078C28.3968 8.25078 34.393 14.247 34.393 21.6438Z" stroke="white" stroke-linecap="round" stroke-linejoin="round"/>
</svg>
