<svg width="42" height="43" viewBox="0 0 42 43" fill="none" xmlns="http://www.w3.org/2000/svg">
<path d="M33.7767 14.0773C32.3618 14.7533 28.9258 16.6404 27.368 16.869C25.7017 17.1171 24.0847 16.3097 22.3938 16.7523C21.9604 16.8464 21.5558 17.0405 21.213 17.3187C20.8703 17.5968 20.5992 17.951 20.4219 18.3524C20.2635 18.7595 20.2629 19.2099 20.4202 19.6174C20.5776 20.0249 20.8819 20.3607 21.2748 20.5605C22.6797 21.1344 22.4185 21.3095 22.2903 22.8464C22.2312 23.5565 22.3642 24.3688 22.9607 24.7919C25.5291 26.5088 27.7179 21.2025 28.8764 20.0887C31.2082 17.8758 32.421 17.2824 36 16.4897M7.3926 25.4534C9.20675 25.0983 10.9913 24.4806 12.2139 23.5079C13.5154 22.4525 13.9935 20.7308 15.4576 19.7921C15.8184 19.5392 16.2348 19.3743 16.6727 19.3109C17.1106 19.2475 17.5575 19.2874 17.9768 19.4273C18.3885 19.5841 18.7271 19.885 18.9281 20.2726C19.129 20.6602 19.1783 21.1073 19.0662 21.5284C18.5733 22.9437 18.864 22.8708 20.1063 23.8046C20.6782 24.2374 21.2008 24.8795 21.0923 25.5847C20.7965 27.6615 18.0063 27.0438 16.5964 26.7568C15.1457 26.3903 13.6312 26.3421 12.1596 26.6158C10.6265 26.9757 9.20183 27.9095 7.89051 28.712M32.4406 13.2018C32.2287 12.0491 32.0316 11.3537 32.0316 11.3537C32.0316 11.3537 23.2122 13.5666 19.9635 7.38977C16.7148 13.5666 7.90041 11.3537 7.90041 11.3537C7.90041 11.3537 6.21436 17.19 7.45666 23.2015M10.0744 29.3783C12.0463 32.0922 15.1274 34.3392 19.9635 35.3898C30.4195 33.1136 32.7809 25.2685 32.9189 19.1549M22.7685 18.688C22.7685 18.688 22.4185 21.0031 22.2755 22.8464M18.9923 21.7473C18.9923 21.7473 18.7112 22.5157 17.9077 24.9719" stroke="white" stroke-linecap="round" stroke-linejoin="round"/>
</svg>
