<svg width="42" height="42" viewBox="0 0 42 42" fill="none" xmlns="http://www.w3.org/2000/svg">
<path d="M28.0316 23.8303C30.3393 23.8303 32 26.4955 32 29.7551V35M9 35V29.7551C9 26.4955 10.8868 23.8303 13.1907 23.8303H13.4635M25.6535 16.9226C25.4409 18.1311 24.8077 19.2263 23.8651 20.0157C22.9226 20.8051 21.7311 21.2382 20.5 21.2389C19.2691 21.2388 18.0777 20.8058 17.1357 20.0162C16.1937 19.2266 15.5615 18.1311 15.3504 16.9226M26.2656 14.5643V12.7422C26.2656 11.2192 25.6586 9.75868 24.5781 8.68181C23.4976 7.60494 22.032 7 20.5039 7C18.9754 7 17.5095 7.60481 16.4284 8.68157C15.3472 9.75833 14.7393 11.2189 14.7383 12.7422V13.8222C18.929 12.0817 19.1395 10.143 19.1395 10.143C19.1395 10.143 19.8334 12.5324 22.8741 12.2138C22.8741 12.2138 22.8741 14.7663 26.2617 14.5449M14.7383 13.3793C14.0678 13.3793 13.9352 14.1564 13.9352 15.1315C13.9352 16.1067 14.1496 16.9109 14.8162 16.9109H15.2061M26.2617 13.3793C26.9283 13.3793 26.9984 14.1564 26.9984 15.1432C26.9984 16.13 26.7879 16.9226 26.1213 16.9226H25.7315M25.5172 22.8085C27.9614 22.8085 28.6747 24.2926 28.6747 26.3051V30.8352M15.4829 22.8318C13.4363 23.0222 12.8204 24.4364 12.8204 26.2973V28.3914M12.8204 28.3914C12.1638 28.3935 11.5348 28.6546 11.0709 29.1176C10.607 29.5807 10.3459 30.208 10.3449 30.8623V34.1103H10.8244M12.8204 28.3914C13.4773 28.3935 14.1067 28.6545 14.5713 29.1174C15.0358 29.5804 15.2976 30.2076 15.2996 30.8623V34.1103H14.7149M17.0423 22.657C18.0309 23.4147 19.2431 23.8255 20.4903 23.8255C21.7375 23.8255 22.9497 23.4147 23.9383 22.657M16.82 22.1986C17.0694 22.0035 17.2653 21.7488 17.3894 21.4581C17.5134 21.1673 17.5616 20.85 17.5295 20.5357M24.1683 22.2452C23.897 22.0556 23.6817 21.797 23.5446 21.4964C23.4075 21.1958 23.3536 20.8641 23.3886 20.5357M22.1841 34.2813L24.2658 21.9771L25.4158 22.3423L25.408 25.2095L24.7063 25.5436L25.7276 27.6338L22.1841 34.2813ZM18.8159 34.2813L16.7342 21.9771L15.5842 22.3423L15.592 25.2095L16.2937 25.5436L15.2724 27.6338L18.8159 34.2813ZM30.1483 32.296C30.1483 33.107 29.4886 33.7645 28.6748 33.7645C27.8609 33.7645 27.2012 33.107 27.2012 32.296C27.2012 31.4849 27.8609 30.8274 28.6748 30.8274C29.4886 30.8274 30.1483 31.4849 30.1483 32.296Z" stroke="white" stroke-linecap="round" stroke-linejoin="round"/>
</svg>
