<svg width="57" height="45" viewBox="0 0 57 45" fill="none" xmlns="http://www.w3.org/2000/svg">
<path d="M51.5196 20.7108C51.6594 20.4312 51.7828 20.1433 51.8979 19.8883C52.4016 18.6533 52.7202 17.3507 52.8437 16.0226C53.0918 13.2755 52.4995 10.518 51.1453 8.11508C49.7911 5.71217 47.7389 3.7773 45.2605 2.56686C42.0188 0.986672 38.2822 0.758352 34.8722 1.93203C31.4622 3.10571 28.658 5.58532 27.0756 8.82591C26.9769 9.03976 26.8781 9.27012 26.7876 9.51687C26.6971 9.27012 26.5984 9.03976 26.4997 8.82591C24.9172 5.58532 22.113 3.10571 18.703 1.93203C15.293 0.758352 11.5565 0.986672 8.31476 2.56686C5.07474 4.14765 2.59523 6.95057 1.42148 10.3592C0.247731 13.7679 0.475766 17.5031 2.05561 20.7436C5.34553 27.4962 26.7794 44.135 26.7794 44.135C26.7794 44.135 41.5347 32.6779 48.4353 24.9219M7.96098 19.6416H16.523L19.8047 25.4894L24.9452 13.7937L27.0014 19.6416H31.7142L35.0041 25.4894L40.1364 13.7937L42.2008 21.1878L55.5743 20.8753" stroke="white" stroke-width="1.37234" stroke-linecap="round" stroke-linejoin="round"/>
</svg>
