<svg width="42" height="43" viewBox="0 0 42 43" fill="none" xmlns="http://www.w3.org/2000/svg">
<path d="M19.8653 30.3898C20.5657 28.8587 20.247 27.0765 19.4355 25.6613C18.4985 24.0288 16.8806 22.8842 15.3833 21.7974C14.6147 21.22 13.9961 20.4661 13.58 19.5995C13.1639 18.7328 12.9624 17.7788 12.9925 16.8179C13.1374 14.1421 15.5668 12.925 17.9237 12.5145C20.1358 12.0991 22.4059 12.0991 24.618 12.5145C26.6755 12.9298 29.1822 13.6543 29.8197 15.8954C30.3027 17.6148 29.6845 19.4646 28.6123 20.8315C27.2599 22.5461 24.9464 23.2802 23.6423 25.0576C22.5701 26.5065 22.1403 28.7717 23.1932 30.3704M20.0345 22.2563C19.5853 21.3773 18.4937 20.9136 17.7016 20.3244C17.2002 19.9832 16.7901 19.5244 16.5072 18.9881C16.2243 18.4517 16.0772 17.8541 16.0788 17.2477C16.1706 15.6491 17.7258 14.9245 19.2328 14.6782C20.6483 14.4295 22.0964 14.4295 23.5119 14.6782C24.8305 14.9294 26.4099 15.3593 26.8398 16.7068C27.2696 18.0543 26.463 19.5081 25.3473 20.3195C24.56 20.8943 23.4636 21.3579 23.0145 22.2515M28.1293 13.7799C28.6799 14.1566 29.4285 13.9876 30.0612 13.7364C32.2009 12.8767 34.2342 11.109 36.6878 11.4278C41.3534 12.0411 40.3827 19.2956 36.8521 20.8122C36.3463 21.0295 35.7986 21.1317 35.2485 21.1116C35.122 21.1067 34.8814 21.0735 34.7571 21.0495M14.7216 13.7799C14.171 14.1566 13.4224 13.9876 12.7897 13.7364C10.6501 12.8767 8.61669 11.109 6.16313 11.4278C1.49748 12.0411 2.46824 19.2956 5.99887 20.8122C6.50462 21.0295 7.05234 21.1317 7.60241 21.1116C7.72891 21.1067 7.94071 21.1116 8.07135 21.0495M34.7475 20.9208C34.8534 21.7946 34.1299 22.6011 33.1316 22.7221C32.1332 22.8431 31.2381 22.2328 31.1322 21.3589C31.0263 20.485 31.7497 19.6785 32.7481 19.5575C33.7464 19.4365 34.6416 20.0469 34.7475 20.9208ZM10.074 19.5144C11.0723 19.6354 11.7957 20.4419 11.6898 21.3158C11.5839 22.1896 10.6888 22.8 9.69043 22.679C8.69211 22.558 7.96865 21.7515 8.07455 20.8776C8.18046 20.0038 9.07563 19.3934 10.074 19.5144Z" stroke="white" stroke-linecap="round" stroke-linejoin="round"/>
</svg>
