<svg width="42" height="43" viewBox="0 0 42 43" fill="none" xmlns="http://www.w3.org/2000/svg">
<path d="M31.0582 20.0154C30.3447 22.0139 29.4122 23.9286 28.6242 25.8963C28.0858 27.2507 28.0989 28.7684 28.0244 30.2242C27.95 31.6801 27.8887 33.886 26.4923 34.6934C25.0082 35.5493 23.822 33.661 23.3973 32.5184C23.0953 31.7154 22.7319 30.0434 21.7382 29.8007C20.5825 29.5183 20.0922 31.2345 19.8033 32.0286C19.3656 33.1934 18.8796 34.486 17.7501 35.1169C16.6864 35.7213 15.5307 35.2669 14.8785 34.2919C14.2368 33.223 13.9757 31.9656 14.1386 30.7272C14.2524 29.364 14.2524 28.4772 13.7008 27.1625C12.7246 24.7669 11.3851 22.5478 10.387 20.1654C8.98178 16.808 7.9486 11.9242 10.8729 9.07417C11.4928 8.44796 12.2482 7.97477 13.0797 7.69159C13.9113 7.40841 14.7966 7.32291 15.6664 7.44181C17.4831 7.75505 18.8752 9.10065 20.3855 10.0492C21.5301 10.8457 22.8546 11.3402 24.2378 11.4874M20.8539 10.0139C21.5812 9.00866 22.5861 8.24147 23.7432 7.80802C24.7937 7.4381 25.9217 7.35097 27.0158 7.55525C28.1099 7.75953 29.1321 8.24814 29.9814 8.97273C31.2115 10.0448 31.7324 10.9271 31.9425 12.4801M31.6448 13.9492L32.2665 15.6963L34 16.3183L32.2665 16.9448L31.6448 18.6919L31.0276 16.9448L29.294 16.3183L31.0276 15.6963L31.6448 13.9492Z" stroke="white" stroke-linecap="round" stroke-linejoin="round"/>
</svg>
