<svg width="42" height="42" viewBox="0 0 42 42" fill="none" xmlns="http://www.w3.org/2000/svg">
<path d="M33.8579 20.3634C33.9318 20.2006 33.997 20.033 34.0578 19.8846C34.3239 19.1656 34.4922 18.4073 34.5574 17.6341C34.6885 16.0349 34.3756 14.4296 33.6602 13.0307C32.9448 11.6318 31.8606 10.5054 30.5513 9.80073C28.8387 8.88081 26.8647 8.74789 25.0632 9.43116C23.2617 10.1144 21.7803 11.558 20.9443 13.4445C20.8921 13.569 20.84 13.7031 20.7922 13.8467C20.7444 13.7031 20.6922 13.569 20.64 13.4445C19.804 11.558 18.3226 10.1144 16.5211 9.43116C14.7196 8.74789 12.7456 8.88081 11.0331 9.80073C9.32137 10.721 8.01146 12.3528 7.39137 14.3371C6.77128 16.3215 6.89175 18.496 7.72638 20.3825C9.46442 24.3136 20.7878 34 20.7878 34C20.7878 34 28.583 27.3301 32.2285 22.8149M10.8462 19.7409H15.3694L17.1031 23.1453L19.8188 16.3366L20.9051 19.7409H23.3948L25.1329 23.1453L27.8442 16.3366L28.9349 20.6411L36 20.4592" stroke="white" stroke-linecap="round" stroke-linejoin="round"/>
</svg>
