<svg width="42" height="42" viewBox="0 0 42 42" fill="none" xmlns="http://www.w3.org/2000/svg">
<path d="M26.0577 22.3849C26.0584 23.59 25.8231 24.7835 25.3653 25.8975M26.0577 22.3849C26.0603 21.1785 25.8265 19.9835 25.3697 18.8678M26.0577 22.3849C26.0576 21.1698 25.8177 19.9669 25.3519 18.8455C24.8881 17.7214 24.2079 16.7004 23.3502 15.841C23.1682 15.6627 22.9819 15.4889 22.7821 15.3195C22.7821 15.3195 24.4021 14.9317 25.0279 11M25.3653 25.8975C24.8657 25.4602 24.4654 24.9203 24.1913 24.3144C23.9172 23.7084 23.7757 23.0504 23.7764 22.3849C23.7748 21.7181 23.9162 21.0588 24.1912 20.4518C24.4661 19.8449 24.8681 19.3046 25.3697 18.8678M25.3653 25.8975C24.9035 27.0203 24.2247 28.0399 23.3679 28.8975M25.3697 18.8678C24.9059 17.7437 24.2257 16.7227 23.3679 15.8633C22.5144 16.7189 21.8379 17.7356 21.377 18.8548C20.9162 19.974 20.6801 21.1737 20.6826 22.3849C20.6808 23.5946 20.9171 24.7927 21.378 25.9104C21.8388 27.0281 22.5151 28.0432 23.3679 28.8975M23.3679 28.8975C22.5174 29.7544 21.5068 30.4342 20.3939 30.8978C19.2811 31.3613 18.0881 31.5996 16.8833 31.5989C14.4497 31.5989 12.1156 30.6282 10.3943 28.9004C8.6731 27.1725 7.70553 24.829 7.70435 22.3849C7.70435 22.1382 7.71325 21.8975 7.73101 21.6627M22.964 15.2437L6 22.3581L25.0279 29.9852C24.8122 30.7084 24.476 31.3896 24.0337 32M36 22.3581H34.6684M33.2969 22.3581H30.7759M29.4221 22.3581H28.0905M35.4896 31.5587L34.6107 30.8767M33.075 29.7221L30.19 27.4933M28.8584 26.3923L27.984 25.7103M27.984 19.0104L28.8584 18.3284M30.19 17.2407L32.8531 15.2437M34.6107 13.844L35.4896 13.162M7.71324 21.6404C7.90057 19.3322 8.94615 17.1794 10.6419 15.6101C12.3378 14.0408 14.5596 13.17 16.8655 13.1709C19.0316 13.1675 21.1284 13.9368 22.7821 15.3418M18.5122 17.0357C18.5122 17.0357 20.0435 15.6984 20.9312 12.0342" stroke="white" stroke-linecap="round" stroke-linejoin="round"/>
</svg>
