<svg width="42" height="42" viewBox="0 0 42 42" fill="none" xmlns="http://www.w3.org/2000/svg">
<path d="M3 20.0045H17.4276C16.1465 23.8786 16.508 31.1951 21.8293 31.1951C22.391 31.1916 22.9451 31.0593 23.4523 30.8077C23.9594 30.5562 24.4072 30.1915 24.7637 29.7396C26.0449 28.1291 25.6781 25.8212 25.0136 24.0169C24.668 23.0982 23.2008 20.0045 25.205 20.0045H39M3 24.349H13.9138M27.4962 24.349H38.4046M5.65268 20.0045C5.65268 20.0045 5.46127 18.7814 7.54515 17.4531M11.0909 20.0045C11.0909 20.0045 10.9049 18.7814 12.9888 17.4531M28.1501 20.0045C28.1501 20.0045 27.9587 18.7814 30.0425 17.4531M33.5883 20.0045C33.5883 20.0045 33.4022 18.7814 35.4861 17.4531M27.2038 11C25.1837 11.7361 23.254 14.0108 22.0313 15.7486C20.0219 18.5933 17.9433 23.1702 19.453 26.7122C19.5642 26.999 19.7298 27.2595 19.9399 27.4782C20.15 27.6969 20.4002 27.8693 20.6757 27.9851C22.5629 28.688 23.2965 26.12 22.7436 24.7143C21.8506 22.4507 21.4785 20.2868 22.4247 17.9623C23.5357 15.2394 25.2953 13.1418 27.2038 11Z" stroke="white" stroke-width="0.878049" stroke-linecap="round" stroke-linejoin="round"/>
</svg>
