<svg width="40" height="40" viewBox="0 0 40 40" fill="none" xmlns="http://www.w3.org/2000/svg">
<circle cx="20" cy="20" r="20" fill="url(#paint0_linear_2445_2244)"/>
<path d="M19.8253 20.7948C19.5491 20.7948 19.3253 20.5709 19.3253 20.2948C19.3253 20.0187 19.5491 19.7948 19.8253 19.7948V20.7948ZM32.5237 20.2948L32.8367 19.9049C32.9549 19.9998 33.0237 20.1432 33.0237 20.2948C33.0237 20.4464 32.9549 20.5898 32.8367 20.6847L32.5237 20.2948ZM28.3944 17.6217C28.179 17.4488 28.1446 17.1341 28.3174 16.9188C28.4903 16.7034 28.805 16.669 29.0203 16.8418L28.3944 17.6217ZM29.0203 23.7478C28.805 23.9206 28.4903 23.8862 28.3174 23.6708C28.1446 23.4555 28.179 23.1408 28.3944 22.9679L29.0203 23.7478ZM25.0111 28.5714V28.0714V28.5714ZM25.8792 27.7079L26.3792 27.7079V27.7079H25.8792ZM13.4761 27.7079L13.9761 27.7079V27.7079L13.4761 27.7079ZM14.3442 12.4698V11.9698V12.4698ZM13.4761 13.3333L12.9761 13.3333V13.3333H13.4761ZM25.0111 12.4698V12.9698V12.4698ZM25.8792 13.3333H26.3792H25.8792ZM25.3792 24.0657C25.3792 23.7896 25.603 23.5657 25.8792 23.5657C26.1553 23.5657 26.3792 23.7896 26.3792 24.0657L25.3792 24.0657ZM26.3792 16.8456C26.3792 17.1218 26.1553 17.3456 25.8792 17.3456C25.603 17.3456 25.3792 17.1218 25.3792 16.8456H26.3792ZM19.8253 19.7948H32.5237V20.7948H19.8253V19.7948ZM32.2107 20.6847L28.3944 17.6217L29.0203 16.8418L32.8367 19.9049L32.2107 20.6847ZM32.8367 20.6847L29.0203 23.7478L28.3944 22.9679L32.2107 19.9049L32.8367 20.6847ZM25.0111 28.0714C25.2169 28.0714 25.3792 27.9062 25.3792 27.7079H26.3792C26.3792 28.4635 25.7641 29.0714 25.0111 29.0714V28.0714ZM14.3442 28.0714L25.0111 28.0714V29.0714L14.3442 29.0714L14.3442 28.0714ZM13.9761 27.7079C13.9761 27.9062 14.1384 28.0714 14.3442 28.0714L14.3442 29.0714C13.5911 29.0714 12.9761 28.4635 12.9761 27.7079L13.9761 27.7079ZM14.3442 12.9698C14.1384 12.9698 13.9761 13.1351 13.9761 13.3333H12.9761C12.9761 12.5778 13.5911 11.9698 14.3442 11.9698L14.3442 12.9698ZM25.0111 12.9698H14.3442V11.9698H25.0111V12.9698ZM25.3792 13.3333C25.3792 13.1351 25.2169 12.9698 25.0111 12.9698V11.9698C25.7641 11.9698 26.3792 12.5778 26.3792 13.3333H25.3792ZM13.9761 13.3333L13.9761 27.7079L12.9761 27.7079L12.9761 13.3333L13.9761 13.3333ZM25.3792 27.7079L25.3792 24.0657L26.3792 24.0657L26.3792 27.7079L25.3792 27.7079ZM25.3792 16.8456V13.3333H26.3792V16.8456H25.3792Z" fill="white"/>
<defs>
<linearGradient id="paint0_linear_2445_2244" x1="20" y1="0" x2="20" y2="40" gradientUnits="userSpaceOnUse">
<stop stop-color="#33E4DB"/>
<stop offset="1" stop-color="#00BBD3"/>
</linearGradient>
</defs>
</svg>
