<svg width="70" height="70" viewBox="0 0 70 70" fill="none" xmlns="http://www.w3.org/2000/svg">
<path d="M17.8153 13.4711H15.9683C13.1979 13.4711 11 15.8175 11 18.7242V61.458C11 64.356 13.2256 66.7111 15.9683 66.7111H49.2137M45.4551 13.4711H47.3021C50.0726 13.4711 52.2612 15.8175 52.2612 18.7242V34.0895M18.2863 43.9127H26.7823M18.2863 51.0832H37.7256M18.2863 58.3412H38.6768M20.1702 28.7488H24.7045L27.8628 34.0807L32.8034 23.4082L34.7889 30.1584H43.4327M52.2889 47.371V58.7264M58.2823 53.0531H46.3047M45.4551 16.0714V11.116C45.4551 10.5889 45.2343 10.0834 44.8411 9.71069C44.448 9.33797 43.9148 9.12859 43.3588 9.12859H36.0356C36.2859 8.57563 36.4117 7.97925 36.405 7.37757C36.405 6.21656 35.9185 5.10311 35.0526 4.28216C34.1867 3.4612 33.0122 3 31.7876 3C30.563 3 29.3885 3.4612 28.5226 4.28216C27.6567 5.10311 27.1702 6.21656 27.1702 7.37757C27.1682 7.97882 27.2938 8.57431 27.5396 9.12859H19.9393C19.3833 9.12859 18.8501 9.33797 18.457 9.71069C18.0639 10.0834 17.843 10.5889 17.843 11.116V16.0714H45.4551ZM67 53.0531C67 60.7558 60.4136 67 52.2889 67C44.1642 67 37.5778 60.7558 37.5778 53.0531C37.5778 45.3504 44.1642 39.1062 52.2889 39.1062C60.4136 39.1062 67 45.3504 67 53.0531Z" stroke="white" stroke-linecap="round" stroke-linejoin="round"/>
</svg>
