<svg width="43" height="43" viewBox="0 0 43 43" fill="none" xmlns="http://www.w3.org/2000/svg">
<path d="M14.3618 13.7631H13.7217C12.7617 13.7631 12 14.6063 12 15.6509V31.0083C12 32.0498 12.7713 32.8962 13.7217 32.8962H25.2426M23.9401 13.7631H24.5801C25.5402 13.7631 26.2987 14.6063 26.2987 15.6509V21.1728M14.525 24.703H17.4692M14.525 27.2799H21.2615M14.525 29.8882H21.5911M15.1778 19.2535H16.7492L17.8436 21.1696L19.5558 17.3342L20.2438 19.7601H23.2392M26.3083 25.9458V30.0267M28.3852 27.9878H24.2345M23.9401 14.6975V12.9167C23.9401 12.7273 23.8635 12.5456 23.7273 12.4117C23.5911 12.2777 23.4063 12.2025 23.2136 12.2025H20.6758C20.7626 12.0037 20.8062 11.7894 20.8039 11.5732C20.8039 11.156 20.6353 10.7558 20.3352 10.4608C20.0351 10.1657 19.6281 10 19.2037 10C18.7794 10 18.3724 10.1657 18.0723 10.4608C17.7722 10.7558 17.6036 11.156 17.6036 11.5732C17.6029 11.7893 17.6465 12.0033 17.7316 12.2025H15.0978C14.9052 12.2025 14.7204 12.2777 14.5841 12.4117C14.4479 12.5456 14.3714 12.7273 14.3714 12.9167V14.6975H23.9401ZM31.4062 27.9878C31.4062 30.756 29.1238 33 26.3083 33C23.4927 33 21.2103 30.756 21.2103 27.9878C21.2103 25.2197 23.4927 22.9756 26.3083 22.9756C29.1238 22.9756 31.4062 25.2197 31.4062 27.9878Z" stroke="white" stroke-linecap="round" stroke-linejoin="round"/>
</svg>
