<svg width="22" height="19" viewBox="0 0 22 19" fill="none" xmlns="http://www.w3.org/2000/svg">
<path d="M4.58209 6.51031C2.45988 7.51655 1 9.61699 1 12.0451C1 13.4299 1.47479 14.708 2.27645 15.7374L1.21693 18.2132C1.16629 18.3758 1.31508 18.531 1.48677 18.4947L4.36754 17.4733C5.27484 17.9453 6.31382 18.2132 7.41791 18.2132C8.87615 18.2132 10.2208 17.7458 11.2985 16.9584M21 8.88934C21 10.6605 20.3927 12.2953 19.3673 13.612L20.7225 16.7787C20.7873 16.9866 20.597 17.1851 20.3774 17.1387L16.6927 15.8323C15.5322 16.436 14.2033 16.7787 12.791 16.7787C8.25736 16.7787 4.58209 13.2465 4.58209 8.88934C4.58209 4.53218 8.25736 1 12.791 1C17.3247 1 21 4.53218 21 8.88934Z" stroke="url(#paint0_linear_2069_1329)" stroke-linecap="round" stroke-linejoin="round"/>
<defs>
<linearGradient id="paint0_linear_2069_1329" x1="11" y1="1" x2="11" y2="18.5" gradientUnits="userSpaceOnUse">
<stop stop-color="#33E4DB"/>
<stop offset="1" stop-color="#00BBD3"/>
</linearGradient>
</defs>
</svg>
