<svg width="23" height="21" viewBox="0 0 23 21" fill="none" xmlns="http://www.w3.org/2000/svg">
<path d="M11.3698 19.273C9.4897 18.8703 7.75857 17.9528 6.36981 16.623C5.42703 15.7162 4.67576 14.6294 4.16046 13.427C3.64516 12.2247 3.3763 10.9311 3.36981 9.62302C3.37324 9.01208 3.43349 8.40281 3.5498 7.80304C2.63287 8.42296 1.88064 9.25674 1.35797 10.2324C0.835302 11.208 0.557903 12.2962 0.549805 13.403C0.552399 14.899 1.05193 16.3517 1.96985 17.533C2.02483 17.6027 2.06027 17.6857 2.07257 17.7735C2.08487 17.8614 2.0736 17.951 2.03986 18.033L1.03986 20.493L3.96985 19.493C4.03308 19.4661 4.10106 19.4522 4.1698 19.4522C4.23854 19.4522 4.30658 19.4661 4.36981 19.493C5.42948 20.0423 6.60627 20.327 7.7998 20.323C9.06024 20.2855 10.2898 19.9239 11.3698 19.273Z" fill="url(#paint0_linear_2104_694)"/>
<path d="M18.1298 17.453C18.1931 17.4261 18.2611 17.4122 18.3298 17.4122C18.3986 17.4122 18.4666 17.4261 18.5298 17.453L22.5298 18.883L21.0598 15.453C21.0261 15.371 21.0148 15.2814 21.0271 15.1935C21.0394 15.1057 21.0748 15.0227 21.1298 14.953C22.3264 13.4224 22.9775 11.5359 22.9799 9.59302C22.9779 8.40644 22.7349 7.23263 22.2656 6.14279C21.7963 5.05296 21.1105 4.06981 20.2498 3.25302C18.4655 1.55451 16.0933 0.61207 13.6298 0.623019C11.1664 0.61207 8.79416 1.55451 7.00983 3.25302C6.14911 4.06981 5.4633 5.05296 4.99402 6.14279C4.52473 7.23263 4.28178 8.40644 4.27985 9.59302C4.28313 10.7779 4.52673 11.9498 4.99597 13.0378C5.46521 14.1259 6.15033 15.1074 7.00983 15.923C8.79186 17.6251 11.1656 18.5682 13.6298 18.553C15.1972 18.5596 16.7423 18.1819 18.1298 17.453Z" fill="url(#paint1_linear_2104_694)"/>
<defs>
<linearGradient id="paint0_linear_2104_694" x1="11.7648" y1="0.622925" x2="11.7648" y2="20.493" gradientUnits="userSpaceOnUse">
<stop stop-color="#33E4DB"/>
<stop offset="1" stop-color="#00BBD3"/>
</linearGradient>
<linearGradient id="paint1_linear_2104_694" x1="11.7648" y1="0.622925" x2="11.7648" y2="20.493" gradientUnits="userSpaceOnUse">
<stop stop-color="#33E4DB"/>
<stop offset="1" stop-color="#00BBD3"/>
</linearGradient>
</defs>
</svg>
