<svg width="40" height="40" viewBox="0 0 40 40" fill="none" xmlns="http://www.w3.org/2000/svg">
<circle cx="20" cy="20" r="20" fill="url(#paint0_linear_6262_1365)"/>
<path d="M19.0593 33H21.2203M17.6186 26.3894C15.8178 26.3894 16.178 23.7101 14.8442 22.1676C14.8334 22.1478 14.8228 22.1281 14.8126 22.1085C13.0857 20.5221 12 18.2239 12 15.6672C12 10.8804 15.8056 7 20.5 7C25.1944 7 29 10.8804 29 15.6672C29 18.255 27.8878 20.5779 26.1242 22.166L26.123 22.1676C24.4619 23.8937 25.0021 26.3894 23.0212 26.3894M17.6186 26.3894H16.8983M17.6186 26.3894H23.0212M23.0212 26.3894H23.7415M15.0975 26.3894H16.8983M16.8983 26.3894V29.6947C16.8983 30.7089 17.7046 31.531 18.6992 31.531H21.9407C22.9353 31.531 23.7415 30.7089 23.7415 29.6947V26.3894M23.7415 26.3894H25.5424" stroke="white" stroke-width="2" stroke-linecap="round"/>
<defs>
<linearGradient id="paint0_linear_6262_1365" x1="20" y1="0" x2="20" y2="40" gradientUnits="userSpaceOnUse">
<stop stop-color="#33E4DB"/>
<stop offset="1" stop-color="#00BBD3"/>
</linearGradient>
</defs>
</svg>
