<svg width="27" height="27" viewBox="0 0 27 27" fill="none" xmlns="http://www.w3.org/2000/svg">
<circle cx="13.5" cy="13.5" r="13.5" fill="#E9F6FE"/>
<path d="M11.973 7.81806C11.973 8.0942 12.1969 8.31806 12.473 8.31806C12.7492 8.31806 12.973 8.0942 12.973 7.81806H11.973ZM14.8857 7.81806C14.8857 8.0942 15.1095 8.31806 15.3857 8.31806C15.6618 8.31806 15.8857 8.0942 15.8857 7.81806H14.8857ZM18.6239 14.9285L18.2357 15.2437L18.2357 15.2437L18.6239 14.9285ZM19.9901 17.4479L20.4845 17.3735L19.9901 17.4479ZM13.9971 7.08747C13.721 7.08747 13.4971 7.31132 13.4971 7.58747C13.4971 7.86361 13.721 8.08747 13.9971 8.08747V7.08747ZM18.4721 11.5384L17.9744 11.5863L18.4721 11.5384ZM9.37609 14.9285L9.76425 15.2437L9.76425 15.2437L9.37609 14.9285ZM8.0099 17.4479L8.50434 17.5222L8.0099 17.4479ZM14.0029 8.08747C14.279 8.08747 14.5029 7.86361 14.5029 7.58747C14.5029 7.31132 14.279 7.08747 14.0029 7.08747V8.08747ZM9.52789 11.5384L9.03019 11.4906L9.52789 11.5384ZM15.7596 18.4844V18.7126H16.7596V18.4844H15.7596ZM12.1826 18.7126V18.4844H11.1826V18.7126H12.1826ZM13.9711 20.5C12.9831 20.5 12.1826 19.6995 12.1826 18.7126H11.1826C11.1826 20.2523 12.4313 21.5 13.9711 21.5V20.5ZM15.7596 18.7126C15.7596 19.6995 14.9591 20.5 13.9711 20.5V21.5C15.511 21.5 16.7596 20.2523 16.7596 18.7126H15.7596ZM12.973 7.81806C12.973 7.32633 13.1098 6.99552 13.2798 6.79628C13.4461 6.60154 13.6699 6.5 13.9293 6.5V5.5C13.3845 5.5 12.8801 5.72431 12.5193 6.14701C12.1623 6.56521 11.973 7.14343 11.973 7.81806H12.973ZM13.9293 6.5C14.1888 6.5 14.4126 6.60154 14.5788 6.79628C14.7489 6.99552 14.8857 7.32633 14.8857 7.81806H15.8857C15.8857 7.14343 15.6964 6.56521 15.3394 6.14701C14.9786 5.72431 14.4742 5.5 13.9293 5.5V6.5ZM18.2357 15.2437C18.3282 15.3575 18.4712 15.4915 18.568 15.5889C18.6811 15.7027 18.7997 15.8302 18.9158 15.9899C19.1432 16.3029 19.3825 16.7696 19.4957 17.5222L20.4845 17.3735C20.3475 16.462 20.0464 15.8448 19.7247 15.402C19.5662 15.1839 19.408 15.0155 19.2772 14.884C19.1302 14.7361 19.0623 14.6752 19.0121 14.6133L18.2357 15.2437ZM13.9971 8.08747C13.998 8.08747 13.9988 8.08747 13.9997 8.08747L14.0003 7.08747C13.9993 7.08747 13.9982 7.08747 13.9971 7.08747V8.08747ZM13.9997 8.08747C16.1102 8.08887 17.8081 9.858 17.9744 11.5863L18.9698 11.4906C18.7562 9.26949 16.6454 7.08922 14.0003 7.08747L13.9997 8.08747ZM17.9744 11.5863C18.0655 12.5334 18.0213 13.2436 17.9933 13.7928C17.9797 14.0597 17.9677 14.32 17.9862 14.5426C18.0047 14.766 18.0584 15.0253 18.2357 15.2437L19.0121 14.6133C19.0205 14.6238 18.9946 14.6023 18.9827 14.4597C18.9708 14.3163 18.9776 14.1256 18.992 13.8438C19.02 13.2958 19.0687 12.519 18.9698 11.4906L17.9744 11.5863ZM8.98793 14.6133C8.93767 14.6752 8.86976 14.7361 8.72276 14.884C8.592 15.0155 8.43381 15.1839 8.27528 15.402C7.95356 15.8448 7.65248 16.462 7.51545 17.3735L8.50434 17.5222C8.61748 16.7696 8.85677 16.3029 9.08425 15.9899C9.20032 15.8302 9.31893 15.7027 9.43201 15.5889C9.52884 15.4915 9.67179 15.3575 9.76425 15.2437L8.98793 14.6133ZM14.0029 7.08747C14.0018 7.08747 14.0007 7.08747 13.9997 7.08747L14.0003 8.08747C14.0012 8.08747 14.002 8.08747 14.0029 8.08747V7.08747ZM13.9997 7.08747C11.3546 7.08922 9.24385 9.26949 9.03019 11.4906L10.0256 11.5863C10.1919 9.858 11.8898 8.08887 14.0003 8.08747L13.9997 7.08747ZM9.03019 11.4906C8.93125 12.519 8.98002 13.2958 9.00801 13.8438C9.0224 14.1256 9.02919 14.3163 9.01726 14.4597C9.00541 14.6023 8.97946 14.6238 8.98793 14.6133L9.76425 15.2437C9.94156 15.0253 9.99525 14.766 10.0138 14.5426C10.0323 14.32 10.0203 14.0597 10.0067 13.7928C9.97866 13.2436 9.93449 12.5334 10.0256 11.5863L9.03019 11.4906ZM8.978 18.9844H19.022V17.9844H8.978V18.9844ZM7.51545 17.3735C7.3765 18.2979 8.15517 18.9844 8.978 18.9844V17.9844C8.65183 17.9844 8.47257 17.7335 8.50434 17.5222L7.51545 17.3735ZM19.4957 17.5222C19.5274 17.7335 19.3482 17.9844 19.022 17.9844V18.9844C19.8448 18.9844 20.6235 18.2979 20.4845 17.3735L19.4957 17.5222Z" fill="#252525"/>
<circle cx="18" cy="9" r="2" fill="url(#paint0_linear_2229_167)"/>
<defs>
<linearGradient id="paint0_linear_2229_167" x1="18" y1="7" x2="18" y2="11" gradientUnits="userSpaceOnUse">
<stop stop-color="#33E4DB"/>
<stop offset="1" stop-color="#00BBD3"/>
</linearGradient>
</defs>
</svg>
