<svg width="40" height="40" viewBox="0 0 40 40" fill="none" xmlns="http://www.w3.org/2000/svg">
<circle cx="20" cy="20" r="20" fill="url(#paint0_linear_6262_1366)"/>
<path d="M26.9937 27.4665C26.516 27.7437 26.3535 28.3557 26.6307 28.8333C26.9079 29.311 27.5198 29.4736 27.9975 29.1964L27.4956 28.3314L26.9937 27.4665ZM30.5019 27.7431C30.9796 27.4659 31.1421 26.854 30.8649 26.3763C30.5877 25.8986 29.9758 25.7361 29.4981 26.0132L30 26.8782L30.5019 27.7431ZM24.7353 23.535C24.2576 23.8122 24.0951 24.4242 24.3723 24.9019C24.6495 25.3795 25.2615 25.5421 25.7391 25.2649L25.2372 24.4L24.7353 23.535ZM28.2435 23.8116C28.7212 23.5344 28.8838 22.9225 28.6066 22.4448C28.3294 21.9671 27.7174 21.8046 27.2397 22.0818L27.7416 22.9467L28.2435 23.8116ZM28.0876 30.1537L27.2205 30.6518L27.2205 30.6518L28.0876 30.1537ZM24.818 32.051L25.6851 31.5529L25.6851 31.5529L24.818 32.051ZM27.3967 32.7455L27.8986 33.6104L27.8986 33.6104L27.3967 32.7455ZM22.8265 12.1858L21.9594 12.6839C23.4363 15.255 22.5578 18.5403 20.005 20.0217L20.5069 20.8866L21.0088 21.7515C24.5181 19.7151 25.7166 15.2095 23.6936 11.6877L22.8265 12.1858ZM20.5069 20.8866L20.005 20.0217C17.4552 21.5013 14.1924 20.6253 12.7172 18.0571L11.8501 18.5552L10.983 19.0533C13.0077 22.5781 17.4965 23.7896 21.0088 21.7515L20.5069 20.8866ZM11.8501 18.5552L12.7172 18.0571C11.2403 15.486 12.1188 12.2007 14.6716 10.7193L14.1697 9.85441L13.6678 8.98948C10.1585 11.0259 8.95993 15.5315 10.983 19.0533L11.8501 18.5552ZM14.1697 9.85441L14.6716 10.7193C17.2214 9.23972 20.4841 10.1157 21.9594 12.6839L22.8265 12.1858L23.6936 11.6877C21.6689 8.16293 17.1801 6.95135 13.6678 8.98948L14.1697 9.85441ZM27.4956 28.3314L27.9975 29.1964L30.5019 27.7431L30 26.8782L29.4981 26.0132L26.9937 27.4665L27.4956 28.3314ZM25.2372 24.4L25.7391 25.2649L28.2435 23.8116L27.7416 22.9467L27.2397 22.0818L24.7353 23.535L25.2372 24.4ZM22.1406 19.8008L21.2735 20.2989L27.2205 30.6518L28.0876 30.1537L28.9548 29.6556L23.0078 19.3027L22.1406 19.8008ZM24.818 32.051L25.6851 31.5529L19.7381 21.2001L18.871 21.6982L18.0038 22.1963L23.9508 32.5491L24.818 32.051ZM27.3967 32.7455L26.8948 31.8806C26.4731 32.1252 25.9316 31.9821 25.6851 31.5529L24.818 32.051L23.9508 32.5491C24.7469 33.9349 26.5144 34.4136 27.8986 33.6104L27.3967 32.7455ZM28.0876 30.1537L27.2205 30.6518C27.4687 31.0839 27.3194 31.6342 26.8948 31.8806L27.3967 32.7455L27.8986 33.6104C29.2797 32.809 29.7491 31.0384 28.9548 29.6556L28.0876 30.1537ZM17.7332 13.4318L16.8661 13.9299C16.9768 14.1226 16.9091 14.3667 16.7226 14.4749L17.2245 15.3399L17.7264 16.2048C18.8694 15.5415 19.2571 14.0771 18.6003 12.9337L17.7332 13.4318ZM17.2245 15.3399L16.7226 14.4749C16.5391 14.5814 16.3022 14.5203 16.1932 14.3305L15.326 14.8286L14.4589 15.3267C15.1175 16.4731 16.5804 16.8698 17.7264 16.2048L17.2245 15.3399ZM15.326 14.8286L16.1932 14.3305C16.0825 14.1377 16.1502 13.8936 16.3366 13.7854L15.8347 12.9205L15.3328 12.0556C14.1899 12.7188 13.8021 14.1832 14.4589 15.3267L15.326 14.8286ZM15.8347 12.9205L16.3366 13.7854C16.5201 13.6789 16.757 13.7401 16.8661 13.9299L17.7332 13.4318L18.6003 12.9337C17.9418 11.7873 16.4788 11.3906 15.3328 12.0556L15.8347 12.9205Z" fill="white"/>
<defs>
<linearGradient id="paint0_linear_6262_1366" x1="20" y1="0" x2="20" y2="40" gradientUnits="userSpaceOnUse">
<stop stop-color="#33E4DB"/>
<stop offset="1" stop-color="#00BBD3"/>
</linearGradient>
</defs>
</svg>
