<svg width="40" height="40" viewBox="0 0 40 40" fill="none" xmlns="http://www.w3.org/2000/svg">
<circle cx="20" cy="20" r="20" fill="url(#paint0_linear_2445_2279)"/>
<path d="M12.2792 13.8857C11.009 13.8867 9.52616 13.3919 9.52393 12.1521C9.52181 10.9743 10.897 10.4773 12.273 10.4762L24.8045 10.4762C26.0809 10.4762 26.5596 11.1626 26.5596 11.873V13.8857M30.4756 18.8449H25.9012C23.9998 18.8449 22.4584 20.302 22.4584 22.0994C22.4584 23.8968 23.9998 25.3539 25.9012 25.3539H30.4756M25.7434 22.2544H25.9012M9.52393 12.3359V27.9885C9.52393 28.8364 10.2208 29.5238 11.0805 29.5238H29.8721C30.7318 29.5238 31.4287 28.8364 31.4287 27.9885V15.421C31.4287 14.573 30.7318 13.8857 29.8721 13.8857H12.2569" stroke="white" stroke-linecap="round"/>
<defs>
<linearGradient id="paint0_linear_2445_2279" x1="20" y1="0" x2="20" y2="40" gradientUnits="userSpaceOnUse">
<stop stop-color="#33E4DB"/>
<stop offset="1" stop-color="#00BBD3"/>
</linearGradient>
</defs>
</svg>
