<svg width="27" height="27" viewBox="0 0 27 27" fill="none" xmlns="http://www.w3.org/2000/svg">
<circle cx="13.5" cy="13.5" r="13.5" fill="#E9F6FE"/>
<path d="M14.2728 20.5121L19.5616 17.529M11.375 9.18871L17.1064 18.9138M13.7599 7.45702C13.8468 7.60684 13.7904 7.80123 13.6338 7.89119L8.88403 10.6196C8.72742 10.7095 8.52999 10.661 8.44305 10.5112C6.48291 7.13328 7.75827 5.84063 8.8976 5.18616C10.0369 4.53169 11.7965 4.07347 13.7599 7.45702ZM13.9173 7.7283L19.4807 17.3157C19.5484 17.4324 19.5813 17.5661 19.5741 17.7007C19.4824 19.3999 19.248 20.8887 19.0925 21.7343C19.0187 22.1358 18.6122 22.3715 18.2249 22.2369C17.4072 21.9527 15.9858 21.416 14.4526 20.6428C14.3316 20.5818 14.2315 20.4865 14.1637 20.3696L8.60047 10.7825L13.9173 7.7283Z" stroke="#252525" stroke-linecap="round"/>
</svg>
