<svg width="52" height="40" viewBox="0 0 52 40" fill="none" xmlns="http://www.w3.org/2000/svg">
<path d="M1.61703 27.703H4.05303C4.54903 27.703 4.99703 27.787 5.39703 27.955C5.80103 28.123 6.12303 28.381 6.36303 28.729C6.60303 29.077 6.72303 29.525 6.72303 30.073C6.72303 30.621 6.60303 31.079 6.36303 31.447C6.12303 31.811 5.80103 32.085 5.39703 32.269C4.99703 32.453 4.54903 32.545 4.05303 32.545H2.87703V35.623H1.61703V27.703ZM2.87703 31.513H3.70503C4.01303 31.513 4.29303 31.469 4.54503 31.381C4.80103 31.289 5.00303 31.139 5.15103 30.931C5.30303 30.723 5.37903 30.447 5.37903 30.103C5.37903 29.755 5.30303 29.483 5.15103 29.287C5.00303 29.087 4.80103 28.945 4.54503 28.861C4.29303 28.777 4.01303 28.735 3.70503 28.735H2.87703V31.513ZM10.8906 30.553C11.2186 30.553 11.5386 30.621 11.8506 30.757C12.1626 30.893 12.4186 31.111 12.6186 31.411C12.8226 31.707 12.9246 32.093 12.9246 32.569V35.623H11.6346V32.803C11.6346 32.359 11.5326 32.033 11.3286 31.825C11.1286 31.613 10.8626 31.507 10.5306 31.507C10.3106 31.507 10.0986 31.569 9.89459 31.693C9.69059 31.817 9.52259 31.985 9.39059 32.197C9.26259 32.409 9.19859 32.653 9.19859 32.929V35.623H7.90859V27.367H9.19859V31.525C9.23459 31.389 9.33059 31.247 9.48659 31.099C9.64659 30.947 9.84859 30.819 10.0926 30.715C10.3366 30.607 10.6026 30.553 10.8906 30.553ZM18.1544 35.623V34.711C18.1224 34.807 18.0304 34.939 17.8784 35.107C17.7304 35.275 17.5264 35.427 17.2664 35.563C17.0104 35.699 16.7064 35.767 16.3544 35.767C15.8944 35.767 15.4804 35.657 15.1124 35.437C14.7444 35.217 14.4544 34.911 14.2424 34.519C14.0304 34.127 13.9244 33.675 13.9244 33.163C13.9244 32.651 14.0304 32.199 14.2424 31.807C14.4544 31.415 14.7444 31.109 15.1124 30.889C15.4804 30.665 15.8944 30.553 16.3544 30.553C16.6984 30.553 16.9964 30.613 17.2484 30.733C17.5004 30.853 17.7024 30.991 17.8544 31.147C18.0104 31.303 18.1064 31.439 18.1424 31.555V30.697H19.4144V35.623H18.1544ZM15.1904 33.163C15.1904 33.479 15.2604 33.755 15.4004 33.991C15.5404 34.227 15.7224 34.409 15.9464 34.537C16.1744 34.665 16.4184 34.729 16.6784 34.729C16.9584 34.729 17.2064 34.663 17.4224 34.531C17.6424 34.399 17.8144 34.217 17.9384 33.985C18.0664 33.749 18.1304 33.475 18.1304 33.163C18.1304 32.851 18.0664 32.579 17.9384 32.347C17.8144 32.111 17.6424 31.927 17.4224 31.795C17.2064 31.659 16.9584 31.591 16.6784 31.591C16.4184 31.591 16.1744 31.657 15.9464 31.789C15.7224 31.917 15.5404 32.099 15.4004 32.335C15.2604 32.571 15.1904 32.847 15.1904 33.163ZM21.9526 35.623H20.6746V30.697H21.9526V31.519H21.9226C21.9506 31.419 22.0266 31.295 22.1506 31.147C22.2786 30.995 22.4546 30.859 22.6786 30.739C22.9026 30.615 23.1726 30.553 23.4886 30.553C23.7166 30.553 23.9206 30.585 24.1006 30.649C24.2806 30.713 24.4086 30.777 24.4846 30.841L23.9686 31.897C23.9166 31.833 23.8186 31.771 23.6746 31.711C23.5346 31.647 23.3606 31.615 23.1526 31.615C22.8926 31.615 22.6726 31.691 22.4926 31.843C22.3166 31.995 22.1826 32.177 22.0906 32.389C21.9986 32.601 21.9526 32.799 21.9526 32.983V35.623ZM31.2797 30.553C31.6477 30.553 31.9637 30.631 32.2277 30.787C32.4957 30.943 32.7017 31.183 32.8457 31.507C32.9937 31.831 33.0677 32.245 33.0677 32.749V35.623H31.8017V32.977C31.8017 32.501 31.7337 32.139 31.5977 31.891C31.4657 31.643 31.2157 31.519 30.8477 31.519C30.6477 31.519 30.4597 31.573 30.2837 31.681C30.1077 31.789 29.9657 31.951 29.8577 32.167C29.7537 32.379 29.7017 32.649 29.7017 32.977V35.623H28.5137V32.977C28.5137 32.501 28.4317 32.139 28.2677 31.891C28.1077 31.643 27.8677 31.519 27.5477 31.519C27.3437 31.519 27.1557 31.571 26.9837 31.675C26.8117 31.779 26.6737 31.939 26.5697 32.155C26.4657 32.371 26.4137 32.645 26.4137 32.977V35.623H25.1417V30.697H26.4137V31.435C26.4577 31.311 26.5557 31.181 26.7077 31.045C26.8637 30.909 27.0577 30.793 27.2897 30.697C27.5217 30.601 27.7757 30.553 28.0517 30.553C28.3517 30.553 28.5997 30.609 28.7957 30.721C28.9957 30.829 29.1537 30.965 29.2697 31.129C29.3897 31.293 29.4777 31.457 29.5337 31.621C29.5897 31.457 29.6977 31.293 29.8577 31.129C30.0217 30.965 30.2257 30.829 30.4697 30.721C30.7137 30.609 30.9837 30.553 31.2797 30.553ZM38.3107 35.623V34.711C38.2787 34.807 38.1867 34.939 38.0347 35.107C37.8867 35.275 37.6827 35.427 37.4227 35.563C37.1667 35.699 36.8627 35.767 36.5107 35.767C36.0507 35.767 35.6367 35.657 35.2687 35.437C34.9007 35.217 34.6107 34.911 34.3987 34.519C34.1867 34.127 34.0807 33.675 34.0807 33.163C34.0807 32.651 34.1867 32.199 34.3987 31.807C34.6107 31.415 34.9007 31.109 35.2687 30.889C35.6367 30.665 36.0507 30.553 36.5107 30.553C36.8547 30.553 37.1527 30.613 37.4047 30.733C37.6567 30.853 37.8587 30.991 38.0107 31.147C38.1667 31.303 38.2627 31.439 38.2987 31.555V30.697H39.5707V35.623H38.3107ZM35.3467 33.163C35.3467 33.479 35.4167 33.755 35.5567 33.991C35.6967 34.227 35.8787 34.409 36.1027 34.537C36.3307 34.665 36.5747 34.729 36.8347 34.729C37.1147 34.729 37.3627 34.663 37.5787 34.531C37.7987 34.399 37.9707 34.217 38.0947 33.985C38.2227 33.749 38.2867 33.475 38.2867 33.163C38.2867 32.851 38.2227 32.579 38.0947 32.347C37.9707 32.111 37.7987 31.927 37.5787 31.795C37.3627 31.659 37.1147 31.591 36.8347 31.591C36.5747 31.591 36.3307 31.657 36.1027 31.789C35.8787 31.917 35.6967 32.099 35.5567 32.335C35.4167 32.571 35.3467 32.847 35.3467 33.163ZM43.3209 34.729C43.6049 34.729 43.8349 34.683 44.0109 34.591C44.1909 34.495 44.3069 34.425 44.3589 34.381L44.9649 35.281C44.9169 35.321 44.8169 35.381 44.6649 35.461C44.5129 35.537 44.3189 35.607 44.0829 35.671C43.8509 35.735 43.5869 35.767 43.2909 35.767C42.8029 35.767 42.3589 35.665 41.9589 35.461C41.5629 35.253 41.2449 34.955 41.0049 34.567C40.7689 34.175 40.6509 33.705 40.6509 33.157C40.6509 32.605 40.7689 32.135 41.0049 31.747C41.2449 31.359 41.5629 31.063 41.9589 30.859C42.3589 30.655 42.8029 30.553 43.2909 30.553C43.5829 30.553 43.8429 30.587 44.0709 30.655C44.3029 30.719 44.4949 30.793 44.6469 30.877C44.7989 30.961 44.9009 31.027 44.9529 31.075L44.3349 31.975C44.3069 31.947 44.2489 31.903 44.1609 31.843C44.0769 31.779 43.9649 31.721 43.8249 31.669C43.6849 31.617 43.5169 31.591 43.3209 31.591C43.0809 31.591 42.8509 31.655 42.6309 31.783C42.4109 31.911 42.2309 32.093 42.0909 32.329C41.9509 32.561 41.8809 32.837 41.8809 33.157C41.8809 33.477 41.9509 33.755 42.0909 33.991C42.2309 34.227 42.4109 34.409 42.6309 34.537C42.8509 34.665 43.0809 34.729 43.3209 34.729ZM48.0845 34.477L49.6445 30.697H50.9225L47.5745 38.119H46.2785L47.4065 35.623L45.3665 30.697H46.6625L48.0845 34.477Z" fill="url(#paint0_linear_2095_2047)"/>
<path d="M26.8314 17.9932C27.6955 20.3647 30.3184 21.5867 32.6899 20.7226C35.0614 19.8585 36.2834 17.2355 35.4193 14.864L33.4389 9.48252M26.8314 17.9932L17.2328 10.5907M26.8314 17.9932L24.8534 12.5646M24.8534 12.5646L33.4389 9.48252M24.8534 12.5646L22.8754 7.13593C22.0113 4.76444 23.2332 2.14149 25.6047 1.2774C27.9762 0.413314 30.5992 1.63529 31.4633 4.00678L33.4389 9.48252M27.3153 18.9543C26.7487 19.548 26.1041 20.0299 25.3595 20.375C24.5753 20.7398 23.7269 20.9465 22.8628 20.9832C21.9987 21.02 21.1359 20.8861 20.3235 20.5892C19.5112 20.2923 18.7654 19.8383 18.1286 19.2531C17.4918 18.6678 16.9765 17.9628 16.6123 17.1783C15.8771 15.5951 15.8009 13.7846 16.4004 12.1451C16.9998 10.5057 18.2259 9.17147 19.809 8.43591C20.7552 7.9956 21.7924 7.7862 22.8353 7.82496L23.1053 7.82496" stroke="url(#paint1_linear_2095_2047)" stroke-linecap="round" stroke-linejoin="round"/>
<defs>
<linearGradient id="paint0_linear_2095_2047" x1="26" y1="25.623" x2="26" y2="39.623" gradientUnits="userSpaceOnUse">
<stop stop-color="#39E8DB"/>
<stop offset="1" stop-color="#05BFD4"/>
</linearGradient>
<linearGradient id="paint1_linear_2095_2047" x1="25.8484" y1="1" x2="25.8484" y2="21" gradientUnits="userSpaceOnUse">
<stop stop-color="#33E4DB"/>
<stop offset="1" stop-color="#00BBD3"/>
</linearGradient>
</defs>
</svg>
