<svg width="22" height="22" viewBox="0 0 22 22" fill="none" xmlns="http://www.w3.org/2000/svg">
<path d="M11.8314 17.9932C12.6955 20.3647 15.3184 21.5867 17.6899 20.7226C20.0614 19.8585 21.2834 17.2355 20.4193 14.864L18.4389 9.48252M11.8314 17.9932L2.23276 10.5907M11.8314 17.9932L9.85337 12.5646M9.85337 12.5646L18.4389 9.48252M9.85337 12.5646L7.87536 7.13593C7.01127 4.76444 8.23322 2.14149 10.6047 1.2774C12.9762 0.413314 15.5992 1.63529 16.4633 4.00678L18.4389 9.48252M12.3153 18.9543C11.7487 19.548 11.1041 20.0299 10.3595 20.375C9.57526 20.7398 8.72693 20.9465 7.86283 20.9832C6.99873 21.02 6.13587 20.8861 5.32354 20.5892C4.5112 20.2923 3.76535 19.8383 3.12857 19.2531C2.49179 18.6678 1.9765 17.9628 1.6123 17.1783C0.877098 15.5951 0.800889 13.7846 1.40037 12.1451C1.99985 10.5057 3.22593 9.17147 4.80902 8.43591C5.75519 7.9956 6.79243 7.7862 7.83531 7.82496L8.10526 7.82496" stroke="url(#paint0_linear_2095_2043)" stroke-linecap="round" stroke-linejoin="round"/>
<defs>
<linearGradient id="paint0_linear_2095_2043" x1="10.8484" y1="1" x2="10.8484" y2="21" gradientUnits="userSpaceOnUse">
<stop stop-color="#33E4DB"/>
<stop offset="1" stop-color="#00BBD3"/>
</linearGradient>
</defs>
</svg>
