<svg width="40" height="40" viewBox="0 0 40 40" fill="none" xmlns="http://www.w3.org/2000/svg">
<circle cx="20" cy="20" r="20" fill="url(#paint0_linear_2445_2235)"/>
<path d="M11.96 11C11.4298 11 11 11.5641 11 12.2599V27.7401C11 28.4359 11.4298 29 11.96 29C17.6015 29 20.097 29 28.04 29C28.5702 29 29 28.4359 29 27.7401V12.2599C29 11.5641 28.5702 11 28.04 11H11.96Z" stroke="white"/>
<path d="M24.9354 20.1452C24.9354 22.7908 22.7907 24.9355 20.1451 24.9355C17.4994 24.9355 15.3547 22.7908 15.3547 20.1452C15.3547 17.4996 17.4994 15.3549 20.1451 15.3549C22.7907 15.3549 24.9354 17.4996 24.9354 20.1452Z" stroke="white"/>
<path d="M26.6775 14.4839C26.6775 14.9649 26.2875 15.3549 25.8065 15.3549C25.3255 15.3549 24.9355 14.9649 24.9355 14.4839C24.9355 14.0029 25.3255 13.6129 25.8065 13.6129C26.2875 13.6129 26.6775 14.0029 26.6775 14.4839Z" stroke="white"/>
<defs>
<linearGradient id="paint0_linear_2445_2235" x1="20" y1="0" x2="20" y2="40" gradientUnits="userSpaceOnUse">
<stop stop-color="#33E4DB"/>
<stop offset="1" stop-color="#00BBD3"/>
</linearGradient>
</defs>
</svg>
