<svg width="34" height="43" viewBox="0 0 34 43" fill="none" xmlns="http://www.w3.org/2000/svg">
<g filter="url(#filter0_d_2276_3004)">
<path d="M30 13C30 5.8203 24.1797 0 17 0C9.8203 0 4 5.8203 4 13C4 22.3338 11.5799 28.053 17.25 34.5C21.6407 28.5029 30 20.9604 30 13Z" fill="url(#paint0_linear_2276_3004)"/>
</g>
<circle cx="17" cy="12.5" r="9.5" fill="white"/>
<path d="M11.9419 11.7754L11.9419 11.2754L11.9419 11.7754ZM11.3539 10.1469L11.6615 10.5412L11.3539 10.1469ZM22.6461 10.1469L22.3385 10.5412L22.6461 10.1469ZM22.0581 11.7754L22.0581 12.2754L22.0581 11.7754ZM17.5879 6.20102L17.8955 5.80679V5.80679L17.5879 6.20102ZM16.4121 6.20102L16.1045 5.80679V5.80679L16.4121 6.20102ZM17 14.4878V14.9878V14.4878ZM18.65 16.0728H19.15H18.65ZM15.35 16.0728L14.85 16.0728V16.0728H15.35ZM14.85 18C14.85 18.2761 15.0739 18.5 15.35 18.5C15.6261 18.5 15.85 18.2761 15.85 18H14.85ZM18.15 18C18.15 18.2761 18.3739 18.5 18.65 18.5C18.9261 18.5 19.15 18.2761 19.15 18L18.15 18ZM21.106 11.6797V17.0853H22.106V11.6797H21.106ZM20.666 17.5H13.522V18.5H20.666V17.5ZM13.082 17.0852V11.6797H12.082V17.0852H13.082ZM13.522 17.5C13.2661 17.5 13.082 17.3016 13.082 17.0852H12.082C12.082 17.8793 12.7396 18.5 13.522 18.5V17.5ZM21.106 17.0853C21.106 17.3016 20.9219 17.5 20.666 17.5V18.5C21.4484 18.5 22.106 17.8793 22.106 17.0853H21.106ZM17.2804 6.59525L22.3385 10.5412L22.9536 9.75271L17.8955 5.80679L17.2804 6.59525ZM22.0581 11.2754L11.9419 11.2754L11.9419 12.2754L22.0581 12.2754L22.0581 11.2754ZM11.6615 10.5412L16.7196 6.59525L16.1045 5.80679L11.0464 9.75272L11.6615 10.5412ZM11.9419 11.2754C11.4982 11.2754 11.3682 10.77 11.6615 10.5412L11.0464 9.75272C9.95382 10.605 10.6094 12.2754 11.9419 12.2754L11.9419 11.2754ZM22.3385 10.5412C22.6318 10.77 22.5018 11.2754 22.0581 11.2754L22.0581 12.2754C23.3906 12.2754 24.0462 10.605 22.9536 9.75271L22.3385 10.5412ZM17.8955 5.80679C17.3711 5.39774 16.6289 5.39774 16.1045 5.80679L16.7196 6.59525C16.8824 6.46825 17.1176 6.46825 17.2804 6.59525L17.8955 5.80679ZM17 14.9878C17.6543 14.9878 18.15 15.4923 18.15 16.0728H19.15C19.15 14.9025 18.1683 13.9878 17 13.9878V14.9878ZM15.85 16.0728C15.85 15.4923 16.3457 14.9878 17 14.9878V13.9878C15.8317 13.9878 14.85 14.9025 14.85 16.0728L15.85 16.0728ZM15.85 18V16.0728H14.85V18H15.85ZM18.15 16.0728L18.15 18L19.15 18L19.15 16.0728H18.15Z" fill="url(#paint1_linear_2276_3004)"/>
<defs>
<filter id="filter0_d_2276_3004" x="0" y="0" width="34" height="42.5" filterUnits="userSpaceOnUse" color-interpolation-filters="sRGB">
<feFlood flood-opacity="0" result="BackgroundImageFix"/>
<feColorMatrix in="SourceAlpha" type="matrix" values="0 0 0 0 0 0 0 0 0 0 0 0 0 0 0 0 0 0 127 0" result="hardAlpha"/>
<feOffset dy="4"/>
<feGaussianBlur stdDeviation="2"/>
<feComposite in2="hardAlpha" operator="out"/>
<feColorMatrix type="matrix" values="0 0 0 0 0 0 0 0 0 0 0 0 0 0 0 0 0 0 0.25 0"/>
<feBlend mode="normal" in2="BackgroundImageFix" result="effect1_dropShadow_2276_3004"/>
<feBlend mode="normal" in="SourceGraphic" in2="effect1_dropShadow_2276_3004" result="shape"/>
</filter>
<linearGradient id="paint0_linear_2276_3004" x1="17" y1="0" x2="17" y2="34.5" gradientUnits="userSpaceOnUse">
<stop stop-color="#33E4DB"/>
<stop offset="1" stop-color="#00BBD3"/>
</linearGradient>
<linearGradient id="paint1_linear_2276_3004" x1="17" y1="6" x2="17" y2="18" gradientUnits="userSpaceOnUse">
<stop stop-color="#33E4DB"/>
<stop offset="1" stop-color="#00BBD3"/>
</linearGradient>
</defs>
</svg>
