<svg width="40" height="40" viewBox="0 0 40 40" fill="none" xmlns="http://www.w3.org/2000/svg">
<circle cx="20" cy="20" r="20" fill="url(#paint0_linear_2445_2258)"/>
<path d="M25.8981 17.0899L25.8981 14.6813C25.8981 11.8329 23.486 9.5238 20.5105 9.5238C17.5351 9.5238 15.123 11.8329 15.123 14.6813V17.0899M20.3566 23.2011C21.0367 23.2011 21.588 22.6799 21.588 22.037C21.588 21.3942 21.0367 20.873 20.3566 20.873C19.6765 20.873 19.1252 21.3942 19.1252 22.037C19.1252 22.6799 19.6765 23.2011 20.3566 23.2011ZM20.3566 23.2011V27.1296M12.968 30.4762H27.9847C28.8348 30.4762 29.5239 29.8247 29.5239 29.0212V18.545C29.5239 17.7414 28.8348 17.0899 27.9847 17.0899H12.968C12.1179 17.0899 11.4287 17.7414 11.4287 18.545V29.0212C11.4287 29.8247 12.1179 30.4762 12.968 30.4762Z" stroke="white" stroke-linecap="round"/>
<defs>
<linearGradient id="paint0_linear_2445_2258" x1="20" y1="0" x2="20" y2="40" gradientUnits="userSpaceOnUse">
<stop stop-color="#33E4DB"/>
<stop offset="1" stop-color="#00BBD3"/>
</linearGradient>
</defs>
</svg>
