<svg width="19" height="22" viewBox="0 0 19 22" fill="none" xmlns="http://www.w3.org/2000/svg">
<path d="M14.7801 5.74292C14.8673 6.46115 14.8084 7.18958 14.6071 7.88452C14.4058 8.57945 14.0661 9.22654 13.6084 9.78692C13.1508 10.3473 12.5846 10.8094 11.9439 11.1455C11.3032 11.4817 10.6012 11.6849 9.88003 11.7429C8.40225 11.8414 6.9439 11.3628 5.81179 10.4079C4.67969 9.45295 3.9621 8.09612 3.81002 6.62289C3.72281 5.90466 3.78167 5.17622 3.983 4.48129C4.18433 3.78636 4.52401 3.13927 4.98166 2.57888C5.4393 2.0185 6.00545 1.55636 6.64615 1.22024C7.28684 0.884122 7.98887 0.680939 8.71005 0.622891C10.1878 0.524438 11.6462 1.00302 12.7783 1.95794C13.9104 2.91286 14.628 4.26969 14.7801 5.74292Z" fill="url(#paint0_linear_2104_695)"/>
<path d="M19 20.5429C19 17.3529 18.46 14.1629 12.49 14.1629H6.25C2.18 14.1629 0 15.4929 0 20.5429C0.00526033 20.8276 0.122711 21.0987 0.326843 21.2972C0.530976 21.4957 0.805298 21.6056 1.09003 21.6029H17.92C18.0605 21.6042 18.1999 21.5779 18.3303 21.5253C18.4606 21.4727 18.5793 21.395 18.6796 21.2966C18.7799 21.1982 18.8598 21.0809 18.9147 20.9516C18.9697 20.8223 18.9987 20.6834 19 20.5429Z" fill="url(#paint1_linear_2104_695)"/>
<defs>
<linearGradient id="paint0_linear_2104_695" x1="9.5" y1="0.610229" x2="9.5" y2="21.603" gradientUnits="userSpaceOnUse">
<stop stop-color="#33E4DB"/>
<stop offset="1" stop-color="#00BBD3"/>
</linearGradient>
<linearGradient id="paint1_linear_2104_695" x1="9.5" y1="0.610229" x2="9.5" y2="21.603" gradientUnits="userSpaceOnUse">
<stop stop-color="#33E4DB"/>
<stop offset="1" stop-color="#00BBD3"/>
</linearGradient>
</defs>
</svg>
