<svg width="50" height="39" viewBox="0 0 50 39" fill="none" xmlns="http://www.w3.org/2000/svg">
<path d="M8.26866 26.08H11.1787C11.6147 26.08 12.0087 26.172 12.3607 26.356C12.7167 26.536 12.9987 26.8 13.2067 27.148C13.4147 27.496 13.5187 27.918 13.5187 28.414C13.5187 28.906 13.4247 29.312 13.2367 29.632C13.0487 29.952 12.8227 30.192 12.5587 30.352C12.2947 30.512 12.0487 30.602 11.8207 30.622L13.7707 34H12.3487L10.5487 30.718H9.52866V34H8.26866V26.08ZM9.52866 29.806H10.7287C11.1527 29.806 11.5087 29.7 11.7967 29.488C12.0847 29.276 12.2287 28.93 12.2287 28.45C12.2287 27.966 12.0867 27.622 11.8027 27.418C11.5187 27.214 11.1647 27.112 10.7407 27.112H9.52866V29.806ZM15.9298 31.84C15.9378 32.1 15.9998 32.334 16.1158 32.542C16.2318 32.75 16.4018 32.914 16.6258 33.034C16.8538 33.15 17.1318 33.208 17.4598 33.208C17.7438 33.208 17.9878 33.17 18.1918 33.094C18.3998 33.014 18.5718 32.92 18.7078 32.812C18.8438 32.7 18.9438 32.596 19.0078 32.5L19.5778 33.274C19.4538 33.442 19.2978 33.592 19.1098 33.724C18.9218 33.856 18.6878 33.958 18.4078 34.03C18.1318 34.106 17.7898 34.144 17.3818 34.144C16.8458 34.144 16.3798 34.034 15.9838 33.814C15.5878 33.594 15.2798 33.284 15.0598 32.884C14.8438 32.484 14.7358 32.016 14.7358 31.48C14.7358 31 14.8358 30.568 15.0358 30.184C15.2358 29.796 15.5258 29.49 15.9058 29.266C16.2898 29.042 16.7498 28.93 17.2858 28.93C17.7858 28.93 18.2198 29.03 18.5878 29.23C18.9558 29.43 19.2398 29.718 19.4398 30.094C19.6438 30.466 19.7458 30.916 19.7458 31.444C19.7458 31.476 19.7438 31.542 19.7398 31.642C19.7398 31.742 19.7358 31.808 19.7278 31.84H15.9298ZM18.5458 30.904C18.5418 30.776 18.4978 30.63 18.4138 30.466C18.3338 30.302 18.2038 30.16 18.0238 30.04C17.8438 29.916 17.6038 29.854 17.3038 29.854C16.9958 29.854 16.7458 29.914 16.5538 30.034C16.3618 30.15 16.2198 30.29 16.1278 30.454C16.0358 30.614 15.9818 30.764 15.9658 30.904H18.5458ZM23.2669 33.106C23.5509 33.106 23.7809 33.06 23.9569 32.968C24.1369 32.872 24.2529 32.802 24.3049 32.758L24.9109 33.658C24.8629 33.698 24.7629 33.758 24.6109 33.838C24.4589 33.914 24.2649 33.984 24.0289 34.048C23.7969 34.112 23.5329 34.144 23.2369 34.144C22.7489 34.144 22.3049 34.042 21.9049 33.838C21.5089 33.63 21.1909 33.332 20.9509 32.944C20.7149 32.552 20.5969 32.082 20.5969 31.534C20.5969 30.982 20.7149 30.512 20.9509 30.124C21.1909 29.736 21.5089 29.44 21.9049 29.236C22.3049 29.032 22.7489 28.93 23.2369 28.93C23.5289 28.93 23.7889 28.964 24.0169 29.032C24.2489 29.096 24.4409 29.17 24.5929 29.254C24.7449 29.338 24.8469 29.404 24.8989 29.452L24.2809 30.352C24.2529 30.324 24.1949 30.28 24.1069 30.22C24.0229 30.156 23.9109 30.098 23.7709 30.046C23.6309 29.994 23.4629 29.968 23.2669 29.968C23.0269 29.968 22.7969 30.032 22.5769 30.16C22.3569 30.288 22.1769 30.47 22.0369 30.706C21.8969 30.938 21.8269 31.214 21.8269 31.534C21.8269 31.854 21.8969 32.132 22.0369 32.368C22.1769 32.604 22.3569 32.786 22.5769 32.914C22.7969 33.042 23.0269 33.106 23.2669 33.106ZM28.1985 34.144C27.6825 34.144 27.2225 34.032 26.8185 33.808C26.4185 33.58 26.1045 33.272 25.8765 32.884C25.6485 32.492 25.5345 32.048 25.5345 31.552C25.5345 31.056 25.6485 30.61 25.8765 30.214C26.1045 29.818 26.4185 29.506 26.8185 29.278C27.2225 29.046 27.6825 28.93 28.1985 28.93C28.7145 28.93 29.1705 29.046 29.5665 29.278C29.9625 29.506 30.2725 29.818 30.4965 30.214C30.7245 30.61 30.8385 31.056 30.8385 31.552C30.8385 32.048 30.7245 32.492 30.4965 32.884C30.2725 33.272 29.9625 33.58 29.5665 33.808C29.1705 34.032 28.7145 34.144 28.1985 34.144ZM28.1985 33.064C28.4865 33.064 28.7365 32.998 28.9485 32.866C29.1605 32.734 29.3245 32.554 29.4405 32.326C29.5565 32.098 29.6145 31.838 29.6145 31.546C29.6145 31.254 29.5565 30.994 29.4405 30.766C29.3245 30.534 29.1605 30.35 28.9485 30.214C28.7365 30.078 28.4865 30.01 28.1985 30.01C27.9105 30.01 27.6585 30.078 27.4425 30.214C27.2305 30.35 27.0645 30.534 26.9445 30.766C26.8285 30.994 26.7705 31.254 26.7705 31.546C26.7705 31.838 26.8285 32.098 26.9445 32.326C27.0645 32.554 27.2305 32.734 27.4425 32.866C27.6585 32.998 27.9105 33.064 28.1985 33.064ZM33.1408 34H31.8628V29.074H33.1408V29.896H33.1108C33.1388 29.796 33.2148 29.672 33.3388 29.524C33.4668 29.372 33.6428 29.236 33.8668 29.116C34.0908 28.992 34.3608 28.93 34.6768 28.93C34.9048 28.93 35.1088 28.962 35.2888 29.026C35.4688 29.09 35.5968 29.154 35.6728 29.218L35.1568 30.274C35.1048 30.21 35.0068 30.148 34.8628 30.088C34.7228 30.024 34.5488 29.992 34.3408 29.992C34.0808 29.992 33.8608 30.068 33.6808 30.22C33.5048 30.372 33.3708 30.554 33.2788 30.766C33.1868 30.978 33.1408 31.176 33.1408 31.36V34ZM38.3307 34.144C37.8667 34.144 37.4567 34.034 37.1007 33.814C36.7447 33.594 36.4647 33.288 36.2607 32.896C36.0607 32.504 35.9607 32.052 35.9607 31.54C35.9607 31.028 36.0607 30.576 36.2607 30.184C36.4647 29.792 36.7447 29.486 37.1007 29.266C37.4567 29.042 37.8667 28.93 38.3307 28.93C38.6747 28.93 38.9807 28.99 39.2487 29.11C39.5167 29.226 39.7307 29.362 39.8907 29.518C40.0507 29.674 40.1447 29.812 40.1727 29.932V25.744H41.4567V34H40.1907V33.088C40.1347 33.228 40.0207 33.38 39.8487 33.544C39.6767 33.708 39.4587 33.85 39.1947 33.97C38.9347 34.086 38.6467 34.144 38.3307 34.144ZM38.6607 33.106C38.9407 33.106 39.1947 33.04 39.4227 32.908C39.6507 32.776 39.8327 32.594 39.9687 32.362C40.1047 32.126 40.1727 31.852 40.1727 31.54C40.1727 31.228 40.1047 30.956 39.9687 30.724C39.8327 30.488 39.6507 30.304 39.4227 30.172C39.1947 30.036 38.9407 29.968 38.6607 29.968C38.4047 29.968 38.1667 30.034 37.9467 30.166C37.7307 30.294 37.5567 30.476 37.4247 30.712C37.2927 30.948 37.2267 31.224 37.2267 31.54C37.2267 31.856 37.2927 32.132 37.4247 32.368C37.5567 32.604 37.7307 32.786 37.9467 32.914C38.1667 33.042 38.4047 33.106 38.6607 33.106Z" fill="url(#paint0_linear_2081_1501)"/>
<path d="M20.1667 5.01609C20.4428 5.01609 20.6667 4.79223 20.6667 4.51609C20.6667 4.23994 20.4428 4.01609 20.1667 4.01609V5.01609ZM28.9863 5.38924V5.88924C29.2624 5.88924 29.4863 5.66538 29.4863 5.38924H28.9863ZM25.9876 3.05792L25.527 2.86343C25.4618 3.01783 25.4783 3.19462 25.571 3.33428C25.6636 3.47395 25.82 3.55792 25.9876 3.55792V3.05792ZM26.1053 2.46994H25.6053L25.6053 2.4723L26.1053 2.46994ZM23.1654 2.46994L23.6654 2.47585V2.46994H23.1654ZM23.283 3.05792V3.55792C23.4512 3.55792 23.6081 3.47332 23.7006 3.3328C23.7931 3.19228 23.8087 3.01467 23.7422 2.86016L23.283 3.05792ZM20.1961 5.38924H19.6961C19.6961 5.66538 19.9199 5.88924 20.1961 5.88924V5.38924ZM25.0618 7.6794C25.0618 7.40326 24.8379 7.1794 24.5618 7.1794C24.2857 7.1794 24.0618 7.40326 24.0618 7.6794H25.0618ZM24.0618 11.0955C24.0618 11.3717 24.2857 11.5955 24.5618 11.5955C24.8379 11.5955 25.0618 11.3717 25.0618 11.0955H24.0618ZM26.2699 9.88747C26.546 9.88747 26.7699 9.66361 26.7699 9.38747C26.7699 9.11133 26.546 8.88747 26.2699 8.88747V9.88747ZM22.8537 8.88747C22.5776 8.88747 22.3537 9.11133 22.3537 9.38747C22.3537 9.66361 22.5776 9.88747 22.8537 9.88747V8.88747ZM20.3372 12.8563C20.0611 12.8563 19.8372 13.0802 19.8372 13.3563C19.8372 13.6325 20.0611 13.8563 20.3372 13.8563V12.8563ZM28.8364 13.8563C29.1125 13.8563 29.3364 13.6325 29.3364 13.3563C29.3364 13.0802 29.1125 12.8563 28.8364 12.8563V13.8563ZM20.3372 15.2641C20.0611 15.2641 19.8372 15.4879 19.8372 15.7641C19.8372 16.0402 20.0611 16.2641 20.3372 16.2641V15.2641ZM28.8364 16.2641C29.1125 16.2641 29.3364 16.0402 29.3364 15.7641C29.3364 15.4879 29.1125 15.2641 28.8364 15.2641V16.2641ZM20.3372 17.7012C20.0611 17.7012 19.8372 17.9251 19.8372 18.2012C19.8372 18.4774 20.0611 18.7012 20.3372 18.7012V17.7012ZM28.8364 18.7012C29.1125 18.7012 29.3364 18.4774 29.3364 18.2012C29.3364 17.9251 29.1125 17.7012 28.8364 17.7012V18.7012ZM28.9863 5.01609H29.5743V4.01609H28.9863V5.01609ZM29.5743 5.01609C30.1289 5.01609 30.656 5.52598 30.656 6.28001H31.656C31.656 5.08197 30.7836 4.01609 29.5743 4.01609V5.01609ZM30.656 6.28001V19.2361H31.656V6.28001H30.656ZM30.656 19.2361C30.656 19.9835 30.1208 20.5 29.5743 20.5V21.5C30.7741 21.5 31.656 20.429 31.656 19.2361H30.656ZM29.5743 20.5H19.5787V21.5H29.5743V20.5ZM19.5787 20.5C19.0257 20.5 18.5 19.989 18.5 19.2361H17.5C17.5 20.4293 18.3677 21.5 19.5787 21.5V20.5ZM18.5 19.2361V6.28001H17.5V19.2361H18.5ZM18.5 6.28001C18.5 5.52959 19.0352 5.01609 19.5787 5.01609V4.01609C18.3817 4.01609 17.5 5.08424 17.5 6.28001H18.5ZM19.5787 5.01609H20.1667V4.01609H19.5787V5.01609ZM29.4863 5.38924V4.51609H28.4863V5.38924H29.4863ZM29.4863 4.51609V3.72526H28.4863V4.51609H29.4863ZM29.4863 3.72526C29.4863 3.41569 29.3634 3.11877 29.1444 2.89982L28.4373 3.60693C28.4687 3.63829 28.4863 3.68084 28.4863 3.72526H29.4863ZM29.1444 2.89982C28.9255 2.68088 28.6285 2.55792 28.3189 2.55792V3.55792C28.3634 3.55792 28.4059 3.57556 28.4373 3.60693L29.1444 2.89982ZM28.3189 2.55792H25.9876V3.55792H28.3189V2.55792ZM26.4483 3.2524C26.5531 3.00416 26.6065 2.73718 26.6053 2.46758L25.6053 2.4723C25.6059 2.60656 25.5793 2.73962 25.527 2.86343L26.4483 3.2524ZM26.6053 2.46994C26.6053 1.94744 26.3977 1.4464 26.0283 1.07699L25.3211 1.78409C25.5031 1.96602 25.6053 2.21273 25.6053 2.46994H26.6053ZM26.0283 1.07699C25.6588 0.707562 25.1578 0.5 24.6353 0.5V1.5C24.8926 1.5 25.1392 1.60218 25.3211 1.78409L26.0283 1.07699ZM24.6353 0.5C24.1129 0.5 23.6118 0.707544 23.2423 1.07699L23.9494 1.78409C24.1313 1.6022 24.3781 1.5 24.6353 1.5V0.5ZM23.2423 1.07699C22.8729 1.44644 22.6654 1.94751 22.6654 2.46994H23.6654C23.6654 2.21267 23.7676 1.96597 23.9494 1.78409L23.2423 1.07699ZM22.6654 2.46403C22.6622 2.73603 22.7161 3.00574 22.8237 3.25567L23.7422 2.86016C23.69 2.7389 23.6638 2.60797 23.6654 2.47585L22.6654 2.46403ZM23.283 2.55792H20.8634V3.55792H23.283V2.55792ZM20.8634 2.55792C20.5539 2.55792 20.2569 2.68088 20.038 2.89982L20.7451 3.60693C20.7764 3.57556 20.819 3.55792 20.8634 3.55792V2.55792ZM20.038 2.89982C19.819 3.11877 19.6961 3.41569 19.6961 3.72526H20.6961C20.6961 3.68084 20.7137 3.63829 20.7451 3.60693L20.038 2.89982ZM19.6961 3.72526V5.38924H20.6961V3.72526H19.6961ZM20.1961 5.88924H28.9863V4.88924H20.1961V5.88924ZM24.0618 7.6794V9.38747H25.0618V7.6794H24.0618ZM24.0618 9.38747V11.0955H25.0618V9.38747H24.0618ZM26.2699 8.88747H24.5618V9.88747H26.2699V8.88747ZM24.5618 8.88747H22.8537V9.88747H24.5618V8.88747ZM24.5087 2.4229C24.5087 2.34971 24.568 2.29038 24.6412 2.29038V3.29038C25.1203 3.29038 25.5087 2.902 25.5087 2.4229H24.5087ZM24.6412 2.29038C24.7144 2.29038 24.7737 2.34971 24.7737 2.4229H23.7737C23.7737 2.902 24.1621 3.29038 24.6412 3.29038V2.29038ZM24.7737 2.4229C24.7737 2.49608 24.7144 2.55541 24.6412 2.55541V1.55541C24.1621 1.55541 23.7737 1.9438 23.7737 2.4229H24.7737ZM24.6412 2.55541C24.568 2.55541 24.5087 2.49608 24.5087 2.4229H25.5087C25.5087 1.9438 25.1203 1.55541 24.6412 1.55541V2.55541ZM20.3372 13.8563H28.8364V12.8563H20.3372V13.8563ZM20.3372 16.2641H28.8364V15.2641H20.3372V16.2641ZM20.3372 18.7012H28.8364V17.7012H20.3372V18.7012Z" fill="url(#paint1_linear_2081_1501)"/>
<defs>
<linearGradient id="paint0_linear_2081_1501" x1="24.8308" y1="24" x2="24.8308" y2="38.4846" gradientUnits="userSpaceOnUse">
<stop stop-color="#39E8DB"/>
<stop offset="1" stop-color="#05BFD4"/>
</linearGradient>
<linearGradient id="paint1_linear_2081_1501" x1="24.578" y1="1" x2="24.578" y2="21" gradientUnits="userSpaceOnUse">
<stop stop-color="#33E4DB"/>
<stop offset="1" stop-color="#00BBD3"/>
</linearGradient>
</defs>
</svg>
