<svg width="46" height="44" viewBox="0 0 46 44" fill="none" xmlns="http://www.w3.org/2000/svg">
<rect width="46" height="44" rx="9" fill="url(#paint0_linear_2245_3743)"/>
<path d="M29.7841 14.0074V13.5074V14.0074ZM31 15.1818H30.5H31ZM13 15.1818H12.5H13ZM14.2159 14.0074V14.5074V14.0074ZM29.7841 32.979V32.479V32.979ZM31 31.8045H31.5H31ZM17.2141 30.0819H17.7141H17.2141ZM15.9968 28.9074V29.4074H15.9973L15.9968 28.9074ZM13.4682 29.3648L13.1201 29.7238L13.4682 29.3648ZM18.7395 32.979V33.479V32.979ZM16.1064 31.919L15.7591 32.2787L16.1064 31.919ZM13.6102 19.5294C13.334 19.5294 13.1102 19.7533 13.1102 20.0294C13.1102 20.3056 13.334 20.5294 13.6102 20.5294V19.5294ZM30.8475 20.5294C31.1236 20.5294 31.3475 20.3056 31.3475 20.0294C31.3475 19.7533 31.1236 19.5294 30.8475 19.5294V20.5294ZM18.0775 16.4408C18.0775 16.7169 18.3013 16.9408 18.5775 16.9408C18.8536 16.9408 19.0775 16.7169 19.0775 16.4408H18.0775ZM19.0775 12C19.0775 11.7239 18.8536 11.5 18.5775 11.5C18.3013 11.5 18.0775 11.7239 18.0775 12H19.0775ZM25.3995 16.4408C25.3995 16.7169 25.6234 16.9408 25.8995 16.9408C26.1757 16.9408 26.3995 16.7169 26.3995 16.4408H25.3995ZM26.3995 12C26.3995 11.7239 26.1757 11.5 25.8995 11.5C25.6234 11.5 25.3995 11.7239 25.3995 12H26.3995ZM18.4915 23.5441C18.2154 23.5441 17.9915 23.768 17.9915 24.0441C17.9915 24.3203 18.2154 24.5441 18.4915 24.5441V23.5441ZM18.6441 24.5441C18.9202 24.5441 19.1441 24.3203 19.1441 24.0441C19.1441 23.768 18.9202 23.5441 18.6441 23.5441V24.5441ZM18.4915 26.9412C18.2154 26.9412 17.9915 27.165 17.9915 27.4412C17.9915 27.7173 18.2154 27.9412 18.4915 27.9412V26.9412ZM18.6441 27.9412C18.9202 27.9412 19.1441 27.7173 19.1441 27.4412C19.1441 27.165 18.9202 26.9412 18.6441 26.9412V27.9412ZM22.1525 23.5441C21.8764 23.5441 21.6525 23.768 21.6525 24.0441C21.6525 24.3203 21.8764 24.5441 22.1525 24.5441V23.5441ZM22.3051 24.5441C22.5812 24.5441 22.8051 24.3203 22.8051 24.0441C22.8051 23.768 22.5812 23.5441 22.3051 23.5441V24.5441ZM22.1525 26.9412C21.8764 26.9412 21.6525 27.165 21.6525 27.4412C21.6525 27.7173 21.8764 27.9412 22.1525 27.9412V26.9412ZM22.3051 27.9412C22.5812 27.9412 22.8051 27.7173 22.8051 27.4412C22.8051 27.165 22.5812 26.9412 22.3051 26.9412V27.9412ZM25.8136 23.5441C25.5374 23.5441 25.3136 23.768 25.3136 24.0441C25.3136 24.3203 25.5374 24.5441 25.8136 24.5441V23.5441ZM25.9661 24.5441C26.2422 24.5441 26.4661 24.3203 26.4661 24.0441C26.4661 23.768 26.2422 23.5441 25.9661 23.5441V24.5441ZM25.8136 26.9412C25.5374 26.9412 25.3136 27.165 25.3136 27.4412C25.3136 27.7173 25.5374 27.9412 25.8136 27.9412V26.9412ZM25.9661 27.9412C26.2422 27.9412 26.4661 27.7173 26.4661 27.4412C26.4661 27.165 26.2422 26.9412 25.9661 26.9412V27.9412ZM29.7841 32.479H18.7395V33.479H29.7841V32.479ZM13.5 28.2519V15.1818H12.5L12.5 28.2519H13.5ZM14.2159 14.5074L29.7841 14.5074V13.5074L14.2159 13.5074V14.5074ZM30.5 15.1818L30.5 31.8045H31.5L31.5 15.1818H30.5ZM29.7841 14.5074C30.196 14.5074 30.5 14.8255 30.5 15.1818H31.5C31.5 14.2408 30.7153 13.5074 29.7841 13.5074V14.5074ZM13.5 15.1818C13.5 14.8255 13.804 14.5074 14.2159 14.5074V13.5074C13.2847 13.5074 12.5 14.2408 12.5 15.1818H13.5ZM16.4537 31.5593C15.5954 30.7306 14.4488 29.6192 13.8163 29.0059L13.1201 29.7238C13.7526 30.3371 14.9 31.4492 15.7591 32.2787L16.4537 31.5593ZM29.7841 33.479C30.7153 33.479 31.5 32.7455 31.5 31.8045H30.5C30.5 32.1608 30.196 32.479 29.7841 32.479V33.479ZM16.7141 30.0819L16.7141 33H17.7141V30.0819H16.7141ZM13 29.4074L15.9968 29.4074L15.9968 28.4074L13 28.4074L13 29.4074ZM17.7141 30.0819C17.7141 29.1401 16.9281 28.4064 15.9962 28.4074L15.9973 29.4074C16.4096 29.407 16.7141 29.7253 16.7141 30.0819H17.7141ZM12.5 28.2519C12.5 28.8062 12.7215 29.3372 13.1201 29.7238L13.8163 29.0059C13.6145 28.8102 13.5 28.5393 13.5 28.2519H12.5ZM18.7395 32.479C18.4004 32.479 17.9592 32.3813 17.522 32.2057C17.0846 32.0301 16.6985 31.7956 16.4537 31.5593L15.7591 32.2787C16.124 32.631 16.6332 32.9265 17.1494 33.1337C17.6656 33.341 18.2362 33.479 18.7395 33.479V32.479ZM13.6102 20.5294H30.8475V19.5294H13.6102V20.5294ZM19.0775 16.4408V12H18.0775V16.4408H19.0775ZM26.3995 16.4408V12H25.3995V16.4408H26.3995ZM18.4915 24.5441H18.6441V23.5441H18.4915V24.5441ZM18.4915 27.9412H18.6441V26.9412H18.4915V27.9412ZM22.1525 24.5441H22.3051V23.5441H22.1525V24.5441ZM22.1525 27.9412H22.3051V26.9412H22.1525V27.9412ZM25.8136 24.5441H25.9661V23.5441H25.8136V24.5441ZM25.8136 27.9412H25.9661V26.9412H25.8136V27.9412Z" fill="white"/>
<defs>
<linearGradient id="paint0_linear_2245_3743" x1="23" y1="0" x2="23" y2="44" gradientUnits="userSpaceOnUse">
<stop stop-color="#33E4DB"/>
<stop offset="1" stop-color="#00BBD3"/>
</linearGradient>
</defs>
</svg>
