<svg width="27" height="27" viewBox="0 0 27 27" fill="none" xmlns="http://www.w3.org/2000/svg">
<circle cx="13.5" cy="13.5" r="13.5" fill="#E9F6FE"/>
<path d="M13.2399 15.2492C13.4087 15.0306 13.3683 14.7166 13.1498 14.5478C12.9312 14.3791 12.6172 14.4195 12.4484 14.638L13.2399 15.2492ZM11.2155 16.2348C11.0467 16.4534 11.0871 16.7674 11.3057 16.9362C11.5242 17.1049 11.8382 17.0646 12.007 16.846L11.2155 16.2348ZM10.6131 15.1481C10.3937 14.9804 10.0799 15.0223 9.91221 15.2417C9.74451 15.4611 9.78641 15.7749 10.0058 15.9426L10.6131 15.1481ZM12.7087 18.0087C12.9281 18.1764 13.2419 18.1345 13.4096 17.9151C13.5773 17.6957 13.5354 17.3819 13.316 17.2142L12.7087 18.0087ZM9.90989 20.5858L10.3056 20.8914L9.90989 20.5858ZM8.22055 19.2945L7.82479 18.9889L8.22055 19.2945ZM8.41629 20.7806L8.11264 21.1778L8.41629 20.7806ZM18.6909 13.7573C17.3753 15.4612 14.9188 15.7822 13.2051 14.4722L12.5978 15.2667C14.7478 16.9102 17.8297 16.5089 19.4824 14.3685L18.6909 13.7573ZM13.2051 14.4722C11.4929 13.1634 11.1721 10.7232 12.4866 9.02085L11.6951 8.4097C10.0412 10.5517 10.4463 13.6221 12.5978 15.2667L13.2051 14.4722ZM12.4866 9.02085C13.8022 7.317 16.2587 6.99602 17.9724 8.30597L18.5797 7.5115C16.4297 5.86803 13.3478 6.26925 11.6951 8.4097L12.4866 9.02085ZM17.9724 8.30597C19.6846 9.61478 20.0054 12.055 18.6909 13.7573L19.4824 14.3685C21.1363 12.2265 20.7312 9.15611 18.5797 7.5115L17.9724 8.30597ZM12.4484 14.638L11.2155 16.2348L12.007 16.846L13.2399 15.2492L12.4484 14.638ZM10.0058 15.9426L12.7087 18.0087L13.316 17.2142L10.6131 15.1481L10.0058 15.9426ZM12.1098 16.9185L9.51413 20.2802L10.3056 20.8914L12.9013 17.5297L12.1098 16.9185ZM8.6163 19.6L11.212 16.2383L10.4205 15.6272L7.82479 18.9889L8.6163 19.6ZM8.71994 20.3833C8.47309 20.1946 8.42763 19.8444 8.6163 19.6L7.82479 18.9889C7.29668 19.6729 7.42649 20.6533 8.11264 21.1778L8.71994 20.3833ZM9.51413 20.2802C9.3243 20.5261 8.96829 20.5732 8.71994 20.3833L8.11264 21.1778C8.79729 21.7011 9.77869 21.5738 10.3056 20.8914L9.51413 20.2802Z" fill="#252525"/>
</svg>
