<svg width="17" height="20" viewBox="0 0 17 20" fill="none" xmlns="http://www.w3.org/2000/svg">
<path d="M7.32243 11.5121C7.48751 11.2907 7.44187 10.9775 7.2205 10.8124C6.99912 10.6473 6.68585 10.6929 6.52077 10.9143L6.9216 11.2132L7.32243 11.5121ZM4.98985 12.9674C4.82478 13.1887 4.87042 13.502 5.09179 13.6671C5.31316 13.8322 5.62644 13.7865 5.79151 13.5651L5.39068 13.2663L4.98985 12.9674ZM4.08462 11.5948C3.86809 11.4234 3.55363 11.46 3.38225 11.6765C3.21087 11.8931 3.24746 12.2075 3.46399 12.3789L3.7743 11.9869L4.08462 11.5948ZM6.82014 15.0354C7.03666 15.2067 7.35112 15.1701 7.52251 14.9536C7.69389 14.7371 7.65729 14.4226 7.44077 14.2513L7.13045 14.6433L6.82014 15.0354ZM3.27818 18.4675L3.67901 18.7663L3.67901 18.7663L3.27818 18.4675ZM1.18058 16.8072L0.779754 16.5083L1.18058 16.8072ZM1.42363 18.7179L1.11332 19.1099L1.42363 18.7179ZM14.6727 10.0809L14.2719 9.78199C12.5952 12.0305 9.47781 12.4472 7.30301 10.7258L6.99269 11.1179L6.68238 11.5099C9.305 13.5858 13.0645 13.074 15.0735 10.3798L14.6727 10.0809ZM6.99269 11.1179L7.30301 10.7258C5.11913 8.99724 4.70382 5.76149 6.38701 3.50425L5.98618 3.20535L5.58536 2.90646C3.58288 5.59188 4.06882 9.44124 6.68238 11.5099L6.99269 11.1179ZM5.98618 3.20535L6.38701 3.50425C8.06367 1.25577 11.1811 0.839026 13.3559 2.56042L13.6662 2.16837L13.9765 1.77632C11.3539 -0.299533 7.59437 0.212269 5.58536 2.90646L5.98618 3.20535ZM13.6662 2.16837L13.3559 2.56042C15.5397 4.289 15.9551 7.52475 14.2719 9.78199L14.6727 10.0809L15.0735 10.3798C17.076 7.69435 16.5901 3.845 13.9765 1.77632L13.6662 2.16837ZM6.9216 11.2132L6.52077 10.9143L4.98985 12.9674L5.39068 13.2663L5.79151 13.5651L7.32243 11.5121L6.9216 11.2132ZM3.7743 11.9869L3.46399 12.3789L6.82014 15.0354L7.13045 14.6433L7.44077 14.2513L4.08462 11.5948L3.7743 11.9869ZM6.50117 14.1453L6.10035 13.8464L2.87735 18.1686L3.27818 18.4675L3.67901 18.7663L6.902 14.4442L6.50117 14.1453ZM1.18058 16.8072L1.58141 17.1061L4.80441 12.7839L4.40358 12.485L4.00275 12.1861L0.779754 16.5083L1.18058 16.8072ZM1.42363 18.7179L1.73395 18.3258C1.36955 18.0374 1.29605 17.4887 1.58141 17.1061L1.18058 16.8072L0.779754 16.5083C0.17511 17.3191 0.319241 18.4814 1.11332 19.1099L1.42363 18.7179ZM3.27818 18.4675L2.87735 18.1686C2.59853 18.5425 2.08927 18.6071 1.73395 18.3258L1.42363 18.7179L1.11332 19.1099C1.91646 19.7456 3.06782 19.586 3.67901 18.7663L3.27818 18.4675Z" fill="url(#paint0_linear_6097_427)"/>
<defs>
<linearGradient id="paint0_linear_6097_427" x1="8.35674" y1="1" x2="8.35674" y2="19" gradientUnits="userSpaceOnUse">
<stop stop-color="#33E4DB"/>
<stop offset="1" stop-color="#00BBD3"/>
</linearGradient>
</defs>
</svg>
