<svg width="27" height="27" viewBox="0 0 27 27" fill="none" xmlns="http://www.w3.org/2000/svg">
<circle cx="13.5" cy="13.5" r="13.5" fill="#E9F6FE"/>
<path d="M11.9589 6V5.5C11.6828 5.5 11.4589 5.72386 11.4589 6H11.9589ZM15.0411 6H15.5411C15.5411 5.72386 15.3172 5.5 15.0411 5.5V6ZM15.0411 21V21.5C15.3172 21.5 15.5411 21.2761 15.5411 21H15.0411ZM11.9589 21H11.4589C11.4589 21.2761 11.6828 21.5 11.9589 21.5V21ZM21 11.9589H21.5C21.5 11.6828 21.2761 11.4589 21 11.4589L21 11.9589ZM21 15.0411V15.5411C21.1326 15.5411 21.2598 15.4884 21.3536 15.3947C21.4473 15.3009 21.5 15.1737 21.5 15.0411H21ZM6 15.0411H5.5C5.5 15.3172 5.72386 15.5411 6 15.5411L6 15.0411ZM6 11.9589L6 11.4589C5.86739 11.4589 5.74021 11.5116 5.64645 11.6054C5.55268 11.6991 5.5 11.8263 5.5 11.9589H6ZM17.7136 7.10698L18.0671 6.75343C17.8727 6.55896 17.5576 6.55805 17.3621 6.7514L17.7136 7.10698ZM19.893 9.28642L20.2486 9.63793C20.4419 9.44235 20.441 9.12733 20.2466 8.93287L19.893 9.28642ZM9.28642 19.893L8.93287 20.2466C9.12742 20.4411 9.4426 20.4419 9.63815 20.2484L9.28642 19.893ZM7.10698 17.7136L6.75161 17.3618C6.55806 17.5574 6.55887 17.8726 6.75343 18.0671L7.10698 17.7136ZM19.893 17.7136L20.2466 18.0671C20.4393 17.8744 20.4422 17.563 20.2531 17.3667L19.893 17.7136ZM17.7136 19.893L17.3571 20.2436C17.4506 20.3387 17.5782 20.3925 17.7115 20.393C17.8448 20.3936 17.9729 20.3408 18.0671 20.2466L17.7136 19.893ZM7.10698 9.28642L6.75343 8.93286C6.65966 9.02663 6.60698 9.15381 6.60698 9.28642C6.60698 9.41903 6.65966 9.5462 6.75343 9.63997L7.10698 9.28642ZM9.28642 7.10698L9.63997 6.75343C9.44471 6.55816 9.12813 6.55816 8.93287 6.75343L9.28642 7.10698ZM18.4711 15.0411L18.4711 14.5411H18.1121L17.9973 14.8812L18.4711 15.0411ZM18.1104 15.863L17.6719 15.6227L17.4952 15.9451L17.7503 16.2099L18.1104 15.863ZM15.863 18.0115L16.2195 17.6609L15.9665 17.4038L15.6427 17.5627L15.863 18.0115ZM15.0411 18.3302L14.9014 17.8501L14.5411 17.955V18.3302H15.0411ZM11.9589 18.2656H12.4589V17.9067L12.1188 17.7919L11.9589 18.2656ZM11.2397 17.9597L11.47 17.5159L11.1468 17.3481L10.888 17.6043L11.2397 17.9597ZM9.04031 15.7603L9.39568 16.112L9.65186 15.8532L9.48411 15.53L9.04031 15.7603ZM8.7344 15.0411L9.20814 14.8812L9.09334 14.5411H8.7344V15.0411ZM8.66984 11.9589V12.4589H9.04505L9.14992 12.0986L8.66984 11.9589ZM8.97832 11.1578L9.42817 11.376L9.58351 11.0558L9.33187 10.8042L8.97832 11.1578ZM11.0933 8.91387L10.7398 9.26742L11.0076 9.53524L11.3379 9.34995L11.0933 8.91387ZM11.9589 8.52892L12.1188 9.00266L12.4589 8.88786V8.52892H11.9589ZM15.0411 8.46436H14.5411V8.83957L14.9014 8.94444L15.0411 8.46436ZM15.9658 8.83483L15.7354 9.27863L16.0585 9.44627L16.3173 9.19041L15.9658 8.83483ZM18.1652 11.0342L17.8096 10.6827L17.5537 10.9415L17.7214 11.2646L18.1652 11.0342ZM18.5356 11.9589L18.0556 12.0986L18.1604 12.4589H18.5356V11.9589ZM11.9589 6.5H15.0411V5.5H11.9589V6.5ZM15.0411 20.5H11.9589V21.5H15.0411V20.5ZM20.5 11.9589V15.0411H21.5V11.9589H20.5ZM6.5 15.0411V11.9589H5.5V15.0411H6.5ZM17.36 7.46053L19.5395 9.63997L20.2466 8.93287L18.0671 6.75343L17.36 7.46053ZM9.63997 19.5395L7.46053 17.36L6.75343 18.0671L8.93287 20.2466L9.63997 19.5395ZM19.5395 17.36L17.36 19.5395L18.0671 20.2466L20.2466 18.0671L19.5395 17.36ZM7.46053 9.63997L9.63997 7.46053L8.93287 6.75343L6.75343 8.93286L7.46053 9.63997ZM17.9973 14.8812C17.9103 15.1392 17.801 15.3871 17.6719 15.6227L18.5488 16.1034C18.7058 15.8169 18.8388 15.5152 18.9448 15.201L17.9973 14.8812ZM15.6427 17.5627C15.4062 17.6788 15.1584 17.7753 14.9014 17.8501L15.1808 18.8102C15.4938 18.7191 15.7955 18.6017 16.0833 18.4604L15.6427 17.5627ZM12.1188 17.7919C11.8944 17.7161 11.6777 17.6236 11.47 17.5159L11.0094 18.4035C11.262 18.5346 11.5258 18.6471 11.799 18.7393L12.1188 17.7919ZM9.48411 15.53C9.37635 15.3223 9.28388 15.1056 9.20814 14.8812L8.26065 15.201C8.35288 15.4742 8.46544 15.738 8.59652 15.9906L9.48411 15.53ZM9.14992 12.0986C9.22276 11.8484 9.31615 11.6069 9.42817 11.376L8.52847 10.9395C8.39216 11.2204 8.27847 11.5145 8.18977 11.8192L9.14992 12.0986ZM11.3379 9.34995C11.5852 9.21125 11.8464 9.09462 12.1188 9.00266L11.799 8.05517C11.4673 8.16715 11.1494 8.30911 10.8487 8.47778L11.3379 9.34995ZM14.9014 8.94444C15.1921 9.02908 15.4712 9.14148 15.7354 9.27863L16.1961 8.39104C15.8746 8.22421 15.5349 8.08737 15.1808 7.98429L14.9014 8.94444ZM17.7214 11.2646C17.8585 11.5288 17.9709 11.8079 18.0556 12.0986L19.0157 11.8192C18.9126 11.4651 18.7758 11.1254 18.609 10.8039L17.7214 11.2646ZM12.4589 8.52892V6H11.4589V8.52892H12.4589ZM14.5411 6V8.46436H15.5411V6H14.5411ZM8.93287 7.46053L10.7398 9.26742L11.4469 8.56031L9.63997 6.75343L8.93287 7.46053ZM9.33187 10.8042L7.46054 8.93286L6.75343 9.63997L8.62476 11.5113L9.33187 10.8042ZM16.3173 9.19041L18.0651 7.46256L17.3621 6.7514L15.6142 8.47925L16.3173 9.19041ZM19.5374 8.9349L17.8096 10.6827L18.5207 11.3858L20.2486 9.63793L19.5374 8.9349ZM18.5356 12.4589L21 12.4589L21 11.4589L18.5356 11.4589L18.5356 12.4589ZM21 14.5411L18.4711 14.5411L18.4711 15.5411L21 15.5411L21 14.5411ZM17.7503 16.2099L19.5329 18.0605L20.2531 17.3667L18.4705 15.5161L17.7503 16.2099ZM18.0701 19.5424L16.2195 17.6609L15.5065 18.3622L17.3571 20.2436L18.0701 19.5424ZM14.5411 18.3302V21H15.5411V18.3302H14.5411ZM12.4589 21V18.2656H11.4589V21H12.4589ZM10.888 17.6043L8.93469 19.5377L9.63815 20.2484L11.5915 18.3151L10.888 17.6043ZM7.46235 18.0653L9.39568 16.112L8.68495 15.4085L6.75161 17.3618L7.46235 18.0653ZM8.7344 14.5411L6 14.5411L6 15.5411L8.7344 15.5411L8.7344 14.5411ZM6 12.4589L8.66984 12.4589V11.4589L6 11.4589L6 12.4589ZM15.1385 13.145C15.3218 14.0611 14.7322 14.9207 13.8268 15.077L13.9969 16.0624C15.4637 15.8093 16.4114 14.4098 16.119 12.9487L15.1385 13.145ZM13.8268 15.077C12.9109 15.235 12.0092 14.6161 11.8238 13.69L10.8433 13.8862C11.1337 15.3374 12.5406 16.3137 13.9969 16.0624L13.8268 15.077ZM11.8238 13.69C11.6405 12.7738 12.2301 11.9142 13.1355 11.758L12.9654 10.7726C11.4987 11.0257 10.5509 12.4251 10.8433 13.8862L11.8238 13.69ZM13.1355 11.758C14.0514 11.5999 14.9532 12.2189 15.1385 13.145L16.119 12.9487C15.8286 11.4976 14.4217 10.5212 12.9654 10.7726L13.1355 11.758Z" fill="#252525"/>
</svg>
