<svg width="40" height="40" viewBox="0 0 40 40" fill="none" xmlns="http://www.w3.org/2000/svg">
<circle cx="20" cy="20" r="20" fill="url(#paint0_linear_2445_2270)"/>
<path d="M18.0299 8.57141V8.07141C17.7537 8.07141 17.5299 8.29527 17.5299 8.57141H18.0299ZM22.9222 8.57141H23.4222C23.4222 8.29527 23.1984 8.07141 22.9222 8.07141V8.57141ZM22.9222 32.3809V32.8809C23.1984 32.8809 23.4222 32.6571 23.4222 32.3809H22.9222ZM18.0299 32.3809H17.5299C17.5299 32.6571 17.7537 32.8809 18.0299 32.8809V32.3809ZM32.3808 18.03H32.8808C32.8808 17.7538 32.657 17.53 32.3808 17.53L32.3808 18.03ZM32.3808 22.9224V23.4224C32.5134 23.4224 32.6406 23.3697 32.7344 23.2759C32.8281 23.1821 32.8808 23.055 32.8808 22.9224H32.3808ZM8.57129 22.9224H8.07129C8.07129 23.1985 8.29515 23.4224 8.57129 23.4224L8.57129 22.9224ZM8.57129 18.03L8.57129 17.53C8.43868 17.53 8.3115 17.5827 8.21774 17.6764C8.12397 17.7702 8.07129 17.8974 8.07129 18.03H8.57129ZM27.1643 10.3285L27.5178 9.97497C27.3234 9.7805 27.0083 9.77959 26.8128 9.97294L27.1643 10.3285ZM30.6237 13.7879L30.9793 14.1395C31.1726 13.9439 31.1717 13.6289 30.9773 13.4344L30.6237 13.7879ZM13.7878 30.6238L13.4343 30.9774C13.6288 31.1719 13.944 31.1727 14.1396 30.9792L13.7878 30.6238ZM10.3284 27.1644L9.97303 26.8127C9.77948 27.0082 9.78029 27.3234 9.97485 27.518L10.3284 27.1644ZM30.6237 27.1644L30.9773 27.518C31.1699 27.3253 31.1729 27.0138 30.9838 26.8175L30.6237 27.1644ZM27.1643 30.6238L26.8078 30.9744C26.9013 31.0695 27.0289 31.1233 27.1622 31.1238C27.2955 31.1244 27.4236 31.0717 27.5178 30.9774L27.1643 30.6238ZM10.3284 13.7879L9.97485 13.4344C9.88108 13.5282 9.8284 13.6553 9.8284 13.7879C9.8284 13.9206 9.88108 14.0477 9.97485 14.1415L10.3284 13.7879ZM13.7878 10.3285L14.1414 9.97497C13.9461 9.77971 13.6295 9.77971 13.4343 9.97497L13.7878 10.3285ZM28.3667 22.9224V22.4224H28.0077L27.8929 22.7625L28.3667 22.9224ZM27.7941 24.227L27.3556 23.9866L27.1789 24.3091L27.434 24.5739L27.7941 24.227ZM24.2269 27.6374L24.5833 27.2868L24.3304 27.0296L24.0066 27.1885L24.2269 27.6374ZM22.9222 28.1431L22.7825 27.663L22.4222 27.7679V28.1431H22.9222ZM18.0299 28.0406H18.5299V27.6817L18.1898 27.5669L18.0299 28.0406ZM16.8883 27.555L17.1186 27.1112L16.7954 26.9435L16.5366 27.1997L16.8883 27.555ZM13.3972 24.0639L13.7525 24.4156L14.0087 24.1568L13.841 23.8336L13.3972 24.0639ZM12.9116 22.9224L13.3853 22.7625L13.2705 22.4224H12.9116L12.9116 22.9224ZM12.8091 18.03V18.53H13.1843L13.2892 18.1697L12.8091 18.03ZM13.2988 16.7583L13.7486 16.9766L13.904 16.6564L13.6523 16.4048L13.2988 16.7583ZM16.6559 13.1966L16.3024 13.5501L16.5702 13.818L16.9005 13.6327L16.6559 13.1966ZM18.0299 12.5856L18.1898 13.0593L18.5299 12.9445V12.5856H18.0299ZM22.9222 12.4831H22.4222V12.8583L22.7825 12.9632L22.9222 12.4831ZM24.3899 13.0711L24.1596 13.5149L24.4826 13.6826L24.7415 13.4267L24.3899 13.0711ZM27.8811 16.5623L27.5255 16.2108L27.2696 16.4696L27.4373 16.7926L27.8811 16.5623ZM28.4691 18.03L27.9891 18.1697L28.0939 18.53H28.4691V18.03ZM18.0299 9.07141H22.9222V8.07141H18.0299V9.07141ZM22.9222 31.8809H18.0299V32.8809H22.9222V31.8809ZM31.8808 18.03V22.9224H32.8808V18.03H31.8808ZM9.07129 22.9224V18.03H8.07129V22.9224H9.07129ZM26.8107 10.6821L30.2702 14.1415L30.9773 13.4344L27.5178 9.97497L26.8107 10.6821ZM14.1414 30.2703L10.682 26.8108L9.97485 27.518L13.4343 30.9774L14.1414 30.2703ZM30.2702 26.8108L26.8107 30.2703L27.5178 30.9774L30.9773 27.518L30.2702 26.8108ZM10.682 14.1415L14.1414 10.6821L13.4343 9.97497L9.97485 13.4344L10.682 14.1415ZM27.8929 22.7625C27.7491 23.1885 27.5688 23.5978 27.3556 23.9866L28.2325 24.4673C28.4736 24.0275 28.6776 23.5645 28.8404 23.0823L27.8929 22.7625ZM24.0066 27.1885C23.6161 27.3802 23.2069 27.5395 22.7825 27.663L23.062 28.6232C23.5423 28.4833 24.0054 28.303 24.4472 28.0862L24.0066 27.1885ZM18.1898 27.5669C17.8193 27.4418 17.4614 27.2891 17.1186 27.1112L16.658 27.9988C17.0457 28.2 17.4506 28.3728 17.87 28.5144L18.1898 27.5669ZM13.841 23.8336C13.6631 23.4908 13.5104 23.133 13.3853 22.7625L12.4379 23.0823C12.5794 23.5016 12.7522 23.9065 12.9534 24.2942L13.841 23.8336ZM13.2892 18.1697C13.4095 17.7565 13.5637 17.3578 13.7486 16.9766L12.8489 16.5401C12.6397 16.9713 12.4652 17.4226 12.3291 17.8902L13.2892 18.1697ZM16.9005 13.6327C17.3087 13.4037 17.7399 13.2111 18.1898 13.0593L17.87 12.1118C17.3608 12.2837 16.8729 12.5016 16.4113 12.7605L16.9005 13.6327ZM22.7825 12.9632C23.2627 13.1029 23.7234 13.2885 24.1596 13.5149L24.6203 12.6274C24.1268 12.3713 23.6055 12.1612 23.062 12.003L22.7825 12.9632ZM27.4373 16.7926C27.6637 17.2289 27.8493 17.6896 27.9891 18.1697L28.9492 17.8902C28.791 17.3468 28.581 16.8254 28.3249 16.332L27.4373 16.7926ZM18.5299 12.5856V8.57141H17.5299V12.5856H18.5299ZM22.4222 8.57141V12.4831H23.4222V8.57141H22.4222ZM13.4343 10.6821L16.3024 13.5501L17.0095 12.843L14.1414 9.97497L13.4343 10.6821ZM13.6523 16.4048L10.682 13.4344L9.97485 14.1415L12.9452 17.1119L13.6523 16.4048ZM24.7415 13.4267L27.5158 10.6841L26.8128 9.97294L24.0384 12.7156L24.7415 13.4267ZM30.2681 13.4364L27.5255 16.2108L28.2367 16.9138L30.9793 14.1395L30.2681 13.4364ZM28.4691 18.53H32.3808L32.3808 17.53H28.4691V18.53ZM32.3808 22.4224L28.3667 22.4224V23.4224L32.3808 23.4224L32.3808 22.4224ZM27.434 24.5739L30.2636 27.5113L30.9838 26.8175L28.1542 23.8801L27.434 24.5739ZM27.5207 30.2732L24.5833 27.2868L23.8704 27.988L26.8078 30.9744L27.5207 30.2732ZM22.4222 28.1431V32.3809H23.4222V28.1431H22.4222ZM18.5299 32.3809V28.0406H17.5299V32.3809H18.5299ZM16.5366 27.1997L13.4361 30.2685L14.1396 30.9792L17.24 27.9104L16.5366 27.1997ZM10.6838 27.5161L13.7525 24.4156L13.0418 23.7122L9.97303 26.8127L10.6838 27.5161ZM12.9116 22.4224L8.57129 22.4224L8.57129 23.4224L12.9116 23.4224L12.9116 22.4224ZM8.57129 18.53H12.8091V17.53H8.57129L8.57129 18.53ZM23.3648 19.855C23.6878 21.4692 22.6468 22.9922 21.0447 23.2687L21.2148 24.2541C23.3782 23.8807 24.7774 21.8179 24.3453 19.6588L23.3648 19.855ZM21.0447 23.2687C19.4322 23.5469 17.8526 22.4595 17.5275 20.8354L16.547 21.0316C16.9771 23.1808 19.062 24.6256 21.2148 24.2541L21.0447 23.2687ZM17.5275 20.8354C17.2045 19.2211 18.2456 17.6982 19.8476 17.4217L19.6775 16.4363C17.5141 16.8096 16.1149 18.8724 16.547 21.0316L17.5275 20.8354ZM19.8476 17.4217C21.4601 17.1434 23.0397 18.2308 23.3648 19.855L24.3453 19.6588C23.9152 17.5095 21.8303 16.0647 19.6775 16.4363L19.8476 17.4217Z" fill="white"/>
<defs>
<linearGradient id="paint0_linear_2445_2270" x1="20" y1="0" x2="20" y2="40" gradientUnits="userSpaceOnUse">
<stop stop-color="#33E4DB"/>
<stop offset="1" stop-color="#00BBD3"/>
</linearGradient>
</defs>
</svg>
