<svg width="40" height="40" viewBox="0 0 40 40" fill="none" xmlns="http://www.w3.org/2000/svg">
<circle cx="20" cy="20" r="20" fill="url(#paint0_linear_2445_2276)"/>
<path d="M14.7231 26.6107V20.6412M24.2769 26.6107V20.6412M9.76923 19.5968V17.8321C9.76923 12.402 14.2051 8 19.6769 8C25.1488 8 29.5846 12.402 29.5846 17.8321V19.8382M11.1846 28.1908C11.1846 29.7423 12.5762 31 14.2929 31H19.6769M12.9538 18.8855C13.1493 18.8855 13.3077 19.1035 13.3077 19.3724V27.5284C13.3077 27.7973 13.1493 28.0153 12.9538 28.0153C8.54787 28.0153 8 25.4068 8 23.4504C8 21.494 8.54052 18.8855 12.9538 18.8855ZM26.0462 18.8855C25.8507 18.8855 25.6923 19.1035 25.6923 19.3724L25.6923 27.5284C25.6923 27.7973 25.8507 28.0153 26.0462 28.0153C30.4521 28.0153 31 25.4068 31 23.4504C31 21.494 30.4595 18.8855 26.0462 18.8855Z" stroke="white" stroke-linecap="round" stroke-linejoin="round"/>
<defs>
<linearGradient id="paint0_linear_2445_2276" x1="20" y1="0" x2="20" y2="40" gradientUnits="userSpaceOnUse">
<stop stop-color="#33E4DB"/>
<stop offset="1" stop-color="#00BBD3"/>
</linearGradient>
</defs>
</svg>
