<svg width="57" height="38" viewBox="0 0 57 38" fill="none" xmlns="http://www.w3.org/2000/svg">
<path d="M4.93852 25.936C5.40252 25.936 5.80452 25.99 6.14452 26.098C6.48852 26.202 6.76052 26.314 6.96052 26.434C7.16052 26.55 7.28052 26.626 7.32052 26.662L6.69052 27.688C6.63052 27.636 6.52252 27.564 6.36652 27.472C6.21452 27.376 6.02652 27.29 5.80252 27.214C5.58252 27.138 5.33652 27.1 5.06452 27.1C4.65652 27.1 4.33252 27.18 4.09252 27.34C3.85252 27.496 3.73252 27.724 3.73252 28.024C3.73252 28.224 3.79652 28.4 3.92452 28.552C4.05252 28.704 4.23452 28.846 4.47052 28.978C4.71052 29.11 4.99652 29.244 5.32852 29.38C5.60852 29.496 5.88052 29.628 6.14452 29.776C6.41252 29.924 6.65252 30.098 6.86452 30.298C7.07652 30.498 7.24452 30.73 7.36852 30.994C7.49652 31.258 7.56052 31.562 7.56052 31.906C7.56052 32.266 7.48652 32.586 7.33852 32.866C7.19052 33.142 6.98652 33.376 6.72652 33.568C6.46652 33.756 6.16652 33.9 5.82652 34C5.49052 34.096 5.13052 34.144 4.74652 34.144C4.24252 34.144 3.78852 34.084 3.38452 33.964C2.98452 33.84 2.66052 33.712 2.41252 33.58C2.16452 33.444 2.02052 33.356 1.98052 33.316L2.64652 32.242C2.69452 32.282 2.78252 32.342 2.91052 32.422C3.04252 32.498 3.20452 32.58 3.39652 32.668C3.58852 32.752 3.80052 32.824 4.03252 32.884C4.26852 32.94 4.51252 32.968 4.76452 32.968C5.24852 32.968 5.61452 32.864 5.86252 32.656C6.11052 32.444 6.23452 32.172 6.23452 31.84C6.23452 31.588 6.15452 31.37 5.99452 31.186C5.83852 30.998 5.62252 30.828 5.34652 30.676C5.07452 30.524 4.76452 30.374 4.41652 30.226C4.06052 30.07 3.73052 29.894 3.42652 29.698C3.12652 29.502 2.88452 29.264 2.70052 28.984C2.51652 28.7 2.42452 28.356 2.42452 27.952C2.42452 27.548 2.53852 27.196 2.76652 26.896C2.99852 26.592 3.30452 26.356 3.68452 26.188C4.06452 26.02 4.48252 25.936 4.93852 25.936ZM10.0575 36.496H8.78555V29.074H10.0755V29.932C10.1195 29.812 10.2215 29.674 10.3815 29.518C10.5455 29.362 10.7615 29.226 11.0295 29.11C11.2975 28.99 11.6035 28.93 11.9475 28.93C12.4115 28.93 12.8175 29.042 13.1655 29.266C13.5175 29.486 13.7915 29.792 13.9875 30.184C14.1875 30.576 14.2875 31.028 14.2875 31.54C14.2875 32.052 14.1855 32.504 13.9815 32.896C13.7775 33.288 13.4955 33.594 13.1355 33.814C12.7795 34.034 12.3695 34.144 11.9055 34.144C11.5415 34.144 11.2255 34.078 10.9575 33.946C10.6895 33.81 10.4795 33.658 10.3275 33.49C10.1755 33.322 10.0855 33.188 10.0575 33.088V36.496ZM13.0215 31.54C13.0215 31.224 12.9555 30.948 12.8235 30.712C12.6915 30.476 12.5155 30.294 12.2955 30.166C12.0795 30.034 11.8415 29.968 11.5815 29.968C11.3015 29.968 11.0475 30.036 10.8195 30.172C10.5915 30.304 10.4095 30.488 10.2735 30.724C10.1415 30.956 10.0755 31.228 10.0755 31.54C10.0755 31.852 10.1415 32.126 10.2735 32.362C10.4095 32.594 10.5915 32.776 10.8195 32.908C11.0475 33.04 11.3015 33.106 11.5815 33.106C11.8415 33.106 12.0795 33.042 12.2955 32.914C12.5155 32.786 12.6915 32.604 12.8235 32.368C12.9555 32.132 13.0215 31.856 13.0215 31.54ZM16.2123 31.84C16.2203 32.1 16.2823 32.334 16.3983 32.542C16.5143 32.75 16.6843 32.914 16.9083 33.034C17.1363 33.15 17.4143 33.208 17.7423 33.208C18.0263 33.208 18.2703 33.17 18.4743 33.094C18.6823 33.014 18.8543 32.92 18.9903 32.812C19.1263 32.7 19.2263 32.596 19.2903 32.5L19.8603 33.274C19.7363 33.442 19.5803 33.592 19.3923 33.724C19.2043 33.856 18.9703 33.958 18.6903 34.03C18.4143 34.106 18.0723 34.144 17.6643 34.144C17.1283 34.144 16.6623 34.034 16.2663 33.814C15.8703 33.594 15.5623 33.284 15.3423 32.884C15.1263 32.484 15.0183 32.016 15.0183 31.48C15.0183 31 15.1183 30.568 15.3183 30.184C15.5183 29.796 15.8083 29.49 16.1883 29.266C16.5723 29.042 17.0323 28.93 17.5683 28.93C18.0683 28.93 18.5023 29.03 18.8703 29.23C19.2383 29.43 19.5223 29.718 19.7223 30.094C19.9263 30.466 20.0283 30.916 20.0283 31.444C20.0283 31.476 20.0263 31.542 20.0223 31.642C20.0223 31.742 20.0183 31.808 20.0103 31.84H16.2123ZM18.8283 30.904C18.8243 30.776 18.7803 30.63 18.6963 30.466C18.6163 30.302 18.4863 30.16 18.3063 30.04C18.1263 29.916 17.8863 29.854 17.5863 29.854C17.2783 29.854 17.0283 29.914 16.8363 30.034C16.6443 30.15 16.5023 30.29 16.4103 30.454C16.3183 30.614 16.2643 30.764 16.2483 30.904H18.8283ZM23.5494 33.106C23.8334 33.106 24.0634 33.06 24.2394 32.968C24.4194 32.872 24.5354 32.802 24.5874 32.758L25.1934 33.658C25.1454 33.698 25.0454 33.758 24.8934 33.838C24.7414 33.914 24.5474 33.984 24.3114 34.048C24.0794 34.112 23.8154 34.144 23.5194 34.144C23.0314 34.144 22.5874 34.042 22.1874 33.838C21.7914 33.63 21.4734 33.332 21.2334 32.944C20.9974 32.552 20.8794 32.082 20.8794 31.534C20.8794 30.982 20.9974 30.512 21.2334 30.124C21.4734 29.736 21.7914 29.44 22.1874 29.236C22.5874 29.032 23.0314 28.93 23.5194 28.93C23.8114 28.93 24.0714 28.964 24.2994 29.032C24.5314 29.096 24.7234 29.17 24.8754 29.254C25.0274 29.338 25.1294 29.404 25.1814 29.452L24.5634 30.352C24.5354 30.324 24.4774 30.28 24.3894 30.22C24.3054 30.156 24.1934 30.098 24.0534 30.046C23.9134 29.994 23.7454 29.968 23.5494 29.968C23.3094 29.968 23.0794 30.032 22.8594 30.16C22.6394 30.288 22.4594 30.47 22.3194 30.706C22.1794 30.938 22.1094 31.214 22.1094 31.534C22.1094 31.854 22.1794 32.132 22.3194 32.368C22.4594 32.604 22.6394 32.786 22.8594 32.914C23.0794 33.042 23.3094 33.106 23.5494 33.106ZM26.2076 34V29.074H27.4856V34H26.2076ZM26.8616 27.598C26.6456 27.598 26.4596 27.52 26.3036 27.364C26.1516 27.208 26.0756 27.022 26.0756 26.806C26.0756 26.59 26.1516 26.404 26.3036 26.248C26.4596 26.088 26.6456 26.008 26.8616 26.008C27.0056 26.008 27.1376 26.046 27.2576 26.122C27.3816 26.194 27.4796 26.29 27.5516 26.41C27.6276 26.526 27.6656 26.658 27.6656 26.806C27.6656 27.022 27.5876 27.208 27.4316 27.364C27.2756 27.52 27.0856 27.598 26.8616 27.598ZM32.8947 34V33.088C32.8627 33.184 32.7707 33.316 32.6187 33.484C32.4707 33.652 32.2667 33.804 32.0067 33.94C31.7507 34.076 31.4467 34.144 31.0947 34.144C30.6347 34.144 30.2207 34.034 29.8527 33.814C29.4847 33.594 29.1947 33.288 28.9827 32.896C28.7707 32.504 28.6647 32.052 28.6647 31.54C28.6647 31.028 28.7707 30.576 28.9827 30.184C29.1947 29.792 29.4847 29.486 29.8527 29.266C30.2207 29.042 30.6347 28.93 31.0947 28.93C31.4387 28.93 31.7367 28.99 31.9887 29.11C32.2407 29.23 32.4427 29.368 32.5947 29.524C32.7507 29.68 32.8467 29.816 32.8827 29.932V29.074H34.1547V34H32.8947ZM29.9307 31.54C29.9307 31.856 30.0007 32.132 30.1407 32.368C30.2807 32.604 30.4627 32.786 30.6867 32.914C30.9147 33.042 31.1587 33.106 31.4187 33.106C31.6987 33.106 31.9467 33.04 32.1627 32.908C32.3827 32.776 32.5547 32.594 32.6787 32.362C32.8067 32.126 32.8707 31.852 32.8707 31.54C32.8707 31.228 32.8067 30.956 32.6787 30.724C32.5547 30.488 32.3827 30.304 32.1627 30.172C31.9467 30.036 31.6987 29.968 31.4187 29.968C31.1587 29.968 30.9147 30.034 30.6867 30.166C30.4627 30.294 30.2807 30.476 30.1407 30.712C30.0007 30.948 29.9307 31.224 29.9307 31.54ZM36.7829 34H35.4929V25.744H36.7829V34ZM37.7619 29.074H38.6859V27.052H39.9579V29.074H41.1759V30.154H39.9579V32.26C39.9579 32.524 40.0019 32.722 40.0899 32.854C40.1819 32.986 40.3119 33.052 40.4799 33.052C40.6199 33.052 40.7299 33.026 40.8099 32.974C40.8939 32.922 40.9439 32.886 40.9599 32.866L41.4339 33.796C41.4099 33.82 41.3399 33.86 41.2239 33.916C41.1079 33.972 40.9579 34.024 40.7739 34.072C40.5899 34.12 40.3799 34.144 40.1439 34.144C39.7279 34.144 39.3799 34.02 39.0999 33.772C38.8239 33.524 38.6859 33.136 38.6859 32.608V30.154H37.7619V29.074ZM42.3677 34V29.074H43.6457V34H42.3677ZM43.0217 27.598C42.8057 27.598 42.6197 27.52 42.4637 27.364C42.3117 27.208 42.2357 27.022 42.2357 26.806C42.2357 26.59 42.3117 26.404 42.4637 26.248C42.6197 26.088 42.8057 26.008 43.0217 26.008C43.1657 26.008 43.2977 26.046 43.4177 26.122C43.5417 26.194 43.6397 26.29 43.7117 26.41C43.7877 26.526 43.8257 26.658 43.8257 26.806C43.8257 27.022 43.7477 27.208 43.5917 27.364C43.4357 27.52 43.2457 27.598 43.0217 27.598ZM46.0248 31.84C46.0328 32.1 46.0948 32.334 46.2108 32.542C46.3268 32.75 46.4968 32.914 46.7208 33.034C46.9488 33.15 47.2268 33.208 47.5548 33.208C47.8388 33.208 48.0828 33.17 48.2868 33.094C48.4948 33.014 48.6668 32.92 48.8028 32.812C48.9388 32.7 49.0388 32.596 49.1028 32.5L49.6728 33.274C49.5488 33.442 49.3928 33.592 49.2048 33.724C49.0168 33.856 48.7828 33.958 48.5028 34.03C48.2268 34.106 47.8848 34.144 47.4768 34.144C46.9408 34.144 46.4748 34.034 46.0788 33.814C45.6828 33.594 45.3748 33.284 45.1548 32.884C44.9388 32.484 44.8308 32.016 44.8308 31.48C44.8308 31 44.9308 30.568 45.1308 30.184C45.3308 29.796 45.6208 29.49 46.0008 29.266C46.3848 29.042 46.8448 28.93 47.3808 28.93C47.8808 28.93 48.3148 29.03 48.6828 29.23C49.0508 29.43 49.3348 29.718 49.5348 30.094C49.7388 30.466 49.8408 30.916 49.8408 31.444C49.8408 31.476 49.8388 31.542 49.8348 31.642C49.8348 31.742 49.8308 31.808 49.8228 31.84H46.0248ZM48.6408 30.904C48.6368 30.776 48.5928 30.63 48.5088 30.466C48.4288 30.302 48.2988 30.16 48.1188 30.04C47.9388 29.916 47.6988 29.854 47.3988 29.854C47.0908 29.854 46.8408 29.914 46.6488 30.034C46.4568 30.15 46.3148 30.29 46.2228 30.454C46.1308 30.614 46.0768 30.764 46.0608 30.904H48.6408ZM52.8879 28.93C53.1639 28.93 53.4199 28.956 53.6559 29.008C53.8919 29.06 54.0939 29.122 54.2619 29.194C54.4299 29.266 54.5459 29.326 54.6099 29.374L54.1419 30.166C54.0619 30.098 53.9179 30.02 53.7099 29.932C53.5059 29.844 53.2759 29.8 53.0199 29.8C52.7639 29.8 52.5479 29.846 52.3719 29.938C52.1959 30.03 52.1079 30.168 52.1079 30.352C52.1079 30.532 52.1999 30.676 52.3839 30.784C52.5719 30.892 52.8259 30.982 53.1459 31.054C53.4099 31.114 53.6619 31.198 53.9019 31.306C54.1419 31.41 54.3379 31.56 54.4899 31.756C54.6459 31.948 54.7239 32.206 54.7239 32.53C54.7239 32.838 54.6579 33.096 54.5259 33.304C54.3979 33.508 54.2259 33.672 54.0099 33.796C53.7939 33.92 53.5539 34.008 53.2899 34.06C53.0299 34.116 52.7679 34.144 52.5039 34.144C52.1799 34.144 51.8899 34.112 51.6339 34.048C51.3819 33.984 51.1719 33.91 51.0039 33.826C50.8359 33.738 50.7159 33.664 50.6439 33.604L51.1119 32.716C51.2159 32.816 51.3859 32.922 51.6219 33.034C51.8579 33.142 52.1219 33.196 52.4139 33.196C52.7259 33.196 52.9759 33.136 53.1639 33.016C53.3519 32.896 53.4459 32.736 53.4459 32.536C53.4459 32.388 53.3999 32.268 53.3079 32.176C53.2199 32.084 53.0979 32.01 52.9419 31.954C52.7859 31.898 52.6119 31.848 52.4199 31.804C52.2399 31.76 52.0579 31.704 51.8739 31.636C51.6939 31.564 51.5279 31.472 51.3759 31.36C51.2239 31.244 51.1019 31.1 51.0099 30.928C50.9179 30.756 50.8719 30.554 50.8719 30.322C50.8719 30.026 50.9659 29.774 51.1539 29.566C51.3419 29.358 51.5899 29.2 51.8979 29.092C52.2059 28.984 52.5359 28.93 52.8879 28.93Z" fill="url(#paint0_linear_2095_2012)"/>
<path d="M37.7795 9.42493C37.8694 9.93493 37.9155 10.4517 37.9173 10.9696C37.9158 11.5039 37.8654 12.0371 37.7667 12.5623C37.7522 12.6393 37.762 12.7188 37.7948 12.79C37.8275 12.8612 37.8815 12.9205 37.9494 12.9596L38.6608 13.3698C38.7476 13.4207 38.8108 13.5038 38.8366 13.601C38.8624 13.6983 38.8487 13.8017 38.7986 13.889L36.3567 18.1191C36.3064 18.2056 36.2239 18.2688 36.1272 18.2946C36.0305 18.3204 35.9275 18.3069 35.8407 18.2568L35.0909 17.8242C35.0236 17.7866 34.9464 17.7704 34.8696 17.7778C34.7929 17.7853 34.7202 17.816 34.6614 17.8659C33.8674 18.5196 32.9665 19.0313 31.9984 19.3785C31.924 19.4038 31.8593 19.4516 31.8134 19.5154C31.7675 19.5791 31.7425 19.6556 31.742 19.7342V20.6219C31.742 20.6715 31.7323 20.7207 31.7133 20.7666C31.6943 20.8125 31.6664 20.8541 31.6313 20.8893C31.5962 20.9244 31.5545 20.9522 31.5086 20.9712C31.4627 20.9902 31.4135 21 31.3639 21H26.4736C26.3733 21 26.2772 20.9602 26.2063 20.8893C26.1353 20.8183 26.0955 20.7221 26.0955 20.6219V19.6605C26.0951 19.5836 26.0712 19.5087 26.0271 19.4457C25.9831 19.3827 25.9208 19.3347 25.8488 19.308C24.915 18.9534 24.0482 18.443 23.2851 17.7986C23.2256 17.7485 23.1522 17.7179 23.0748 17.7111C22.9974 17.7042 22.9197 17.7213 22.8524 17.7601L22.0128 18.244C21.9256 18.2942 21.8221 18.3079 21.7249 18.282C21.6276 18.2562 21.5445 18.193 21.4937 18.1062L21.0835 17.398L20.6957 16.7218L19.0517 13.8761C19.0016 13.7889 18.9879 13.6854 19.0138 13.5882C19.0396 13.491 19.1027 13.4079 19.1896 13.357L20.0484 12.8635C20.1154 12.8244 20.1686 12.7655 20.2008 12.6949C20.2329 12.6243 20.2424 12.5455 20.2278 12.4693C20.1427 11.9772 20.0998 11.4786 20.0997 10.9792C20.1005 10.4873 20.1423 9.99638 20.2246 9.51146C20.2372 9.43547 20.2265 9.35745 20.1939 9.28766C20.1613 9.21787 20.1084 9.15958 20.042 9.12049L19.1896 8.62698C19.1464 8.60241 19.1085 8.5695 19.0781 8.53016C19.0478 8.49083 19.0255 8.44585 19.0127 8.39784C18.9999 8.34984 18.9967 8.29976 19.0034 8.25052C19.0101 8.20129 19.0266 8.15388 19.0517 8.11104L21.4937 3.88095C21.5185 3.83765 21.5517 3.79972 21.5914 3.76932C21.631 3.73893 21.6763 3.71667 21.7245 3.70386C21.7728 3.69104 21.8231 3.68792 21.8726 3.69466C21.9221 3.70141 21.9697 3.71789 22.0128 3.74315L22.8332 4.21743C22.9008 4.25582 22.9787 4.27241 23.0561 4.26496C23.1335 4.2575 23.2067 4.22636 23.2658 4.17577C24.0382 3.52367 24.916 3.00783 25.8615 2.65037C25.9339 2.62405 25.9964 2.5761 26.0406 2.51304C26.0847 2.44997 26.1083 2.37485 26.1083 2.29787V1.37814C26.1083 1.27785 26.1481 1.18166 26.2191 1.11075C26.29 1.03983 26.3862 1 26.4865 1H31.3703C31.4706 1 31.5668 1.03983 31.6377 1.11075C31.7086 1.18166 31.7484 1.27785 31.7484 1.37814V2.22737C31.7484 2.30607 31.7732 2.38275 31.8192 2.4466C31.8652 2.51044 31.9302 2.55819 32.0048 2.58308C32.9809 2.93299 33.8885 3.45026 34.6871 4.11169C34.7454 4.16244 34.8181 4.19371 34.8951 4.20117C34.9721 4.20864 35.0495 4.19192 35.1165 4.15333L35.8471 3.73353C35.89 3.70834 35.9374 3.69192 35.9866 3.68522C36.0359 3.67851 36.086 3.68166 36.134 3.69449C36.182 3.70731 36.2269 3.72955 36.2663 3.75991C36.3056 3.79027 36.3385 3.82815 36.3631 3.87134L38.805 8.10142C38.8302 8.14425 38.8466 8.19166 38.8533 8.2409C38.86 8.29013 38.8569 8.34021 38.844 8.38822C38.8312 8.43623 38.809 8.48122 38.7786 8.52056C38.7483 8.5599 38.7104 8.59281 38.6672 8.61738L37.959 9.02756C37.8917 9.06717 37.8383 9.12664 37.8062 9.19778C37.7741 9.26893 37.7648 9.34827 37.7795 9.42493Z" stroke="url(#paint1_linear_2095_2012)" stroke-linecap="round" stroke-linejoin="round"/>
<defs>
<linearGradient id="paint0_linear_2095_2012" x1="28.5" y1="24" x2="28.5" y2="38" gradientUnits="userSpaceOnUse">
<stop stop-color="#39E8DB"/>
<stop offset="1" stop-color="#05BFD4"/>
</linearGradient>
<linearGradient id="paint1_linear_2095_2012" x1="28.9284" y1="1" x2="28.9284" y2="21" gradientUnits="userSpaceOnUse">
<stop stop-color="#33E4DB"/>
<stop offset="1" stop-color="#00BBD3"/>
</linearGradient>
</defs>
</svg>
