<svg width="70" height="70" viewBox="0 0 70 70" fill="none" xmlns="http://www.w3.org/2000/svg">
<path d="M56.555 13.4315L65.2223 4.77777M25.9645 55.3618L52.0231 29.3439C52.3568 29.0008 52.5916 28.5742 52.7029 28.109L54.5912 19.3327L50.5785 15.3263L41.7885 17.2117C41.3347 17.3255 40.9203 17.5601 40.5894 17.8904L14.5309 43.9083M19.9503 38.5916L31.3556 49.9791M4.77783 55.4561L14.5592 65.2222M28.882 58.2747L11.6418 41.052M25.653 44.2854L9.62132 60.292M38.0402 20.5205L41.7413 24.2158M32.1298 26.4216L35.8309 30.1169M26.2667 32.2757L30.0905 36.1029M50.6117 15.3571L54.0899 11.8842L58.1023 15.8903L54.624 19.3632L50.6117 15.3571Z" stroke="white" stroke-linecap="round" stroke-linejoin="round"/>
</svg>
