<svg width="43" height="43" viewBox="0 0 43 43" fill="none" xmlns="http://www.w3.org/2000/svg">
<path d="M29.2463 13.7488L32.3611 10.6389M18.2529 28.8175L27.6177 19.4673C27.7376 19.3441 27.822 19.1907 27.862 19.0236L28.5406 15.8696L27.0985 14.4298L23.9396 15.1073C23.7765 15.1482 23.6276 15.2325 23.5087 15.3512L14.1439 24.7014M16.0915 22.7907L20.1903 26.8831M10.6389 28.8514L14.1541 32.3611M19.3013 29.8643L13.1057 23.6749M18.1409 24.8369L12.3795 30.5893M22.5926 16.2964L23.9227 17.6244M20.4685 18.4171L21.7986 19.7451M18.3615 20.5209L19.7356 21.8964M27.1105 14.4408L28.3605 13.1928L29.8024 14.6325L28.5524 15.8805L27.1105 14.4408Z" stroke="white" stroke-linecap="round" stroke-linejoin="round"/>
</svg>
