<svg width="40" height="40" viewBox="0 0 40 40" fill="none" xmlns="http://www.w3.org/2000/svg">
<circle cx="20" cy="20" r="20" fill="url(#paint0_linear_2445_2247)"/>
<path d="M29.2531 26.7475C30.7271 24.7903 31.6 22.3602 31.6 19.7274C31.6 13.2505 26.317 8 19.8 8C13.283 8 8 13.2505 8 19.7274C8 26.2042 13.283 31.4547 19.8 31.4547C21.83 31.4547 23.7403 30.9453 25.4084 30.048L30.705 31.9899C31.0207 32.0589 31.2943 31.7638 31.2012 31.4547L29.2531 26.7475Z" stroke="white" stroke-linecap="round" stroke-linejoin="round"/>
<path d="M18.8139 13.8534L20.0887 16.0185C20.2746 16.3341 20.1355 16.539 19.9152 16.7479C19.6948 16.9568 18.4362 17.5851 18.1144 17.7673C17.7925 17.9495 20.7216 23.1063 21.124 22.8785C21.5263 22.6507 22.6301 21.9417 22.9248 21.8591C23.2194 21.7764 23.47 21.7608 23.6558 22.0764L24.9307 24.2415C25.0742 24.4852 24.9874 24.7984 24.7366 24.9361C20.9619 27.0093 19.2195 27.4328 18.1032 25.5L14.5361 19.442C13.3872 17.5277 14.3848 15.8395 18.1033 13.6708C18.3503 13.5268 18.6703 13.6096 18.8139 13.8534Z" stroke="white" stroke-linecap="round"/>
<defs>
<linearGradient id="paint0_linear_2445_2247" x1="20" y1="0" x2="20" y2="40" gradientUnits="userSpaceOnUse">
<stop stop-color="#33E4DB"/>
<stop offset="1" stop-color="#00BBD3"/>
</linearGradient>
</defs>
</svg>
